<?xml version="1.0" encoding="UTF-8" standalone="no"?>
<!DOCTYPE svg PUBLIC "-//W3C//DTD SVG 1.1//EN" "http://www.w3.org/Graphics/SVG/1.1/DTD/svg11.dtd">
<svg width="100%" height="100%" viewBox="0 0 1536 864" version="1.1" xmlns="http://www.w3.org/2000/svg" xmlns:xlink="http://www.w3.org/1999/xlink" xml:space="preserve" xmlns:serif="http://www.serif.com/" style="fill-rule:evenodd;clip-rule:evenodd;stroke-linejoin:round;stroke-miterlimit:2;">
    <g id="gc81b43f40f021c37ab34c9066aace7112680915f0df30b91b98544f651d87ea288da8e101c609861b940c6ba17fbd160.jpg" transform="matrix(1.5,0,0,1.5,0,0)">
        <path d="M1023.999,52.5L1023.999,575.999C1019.565,578.791 1019.032,575.999 958.5,575.999L0,575.999C-2.59,572.319 0,567 0,562.5L0,533.5C0.355,533.342 2.546,532.368 4.537,531.783C6.659,531.159 7.139,528.982 8.579,531.5C8.739,531.779 12.817,532.836 18.482,531.416C22.042,530.524 23.49,533.168 24.273,530.225C25.259,526.518 26.931,525.638 23.421,523.863C23.259,523.781 20.717,519.286 18.502,519.813C13.897,520.909 14.067,520.818 9.5,520.855C9.273,520.856 9.5,520.855 7.457,522.822C4.331,521.557 4.135,520.139 1.54,522.36L0,522.5L0,0C11.288,-2.09 11.355,0 143.5,0L1023.999,0C1026.416,3.435 1023.999,3.945 1023.999,52.5Z" style="fill:rgb(232,182,151);"/>
        <g>
            <path d="M425.542,395.66C425.263,400.409 427.762,398.208 432.301,397.319C436.845,400.001 439.925,397.866 440.462,397.494C440.382,449.064 440.262,449.03 440.345,453.511C440.376,460.687 442.726,491.6 431.567,489.782L428.533,489.826C425.516,489.936 422.498,490.045 419.48,490.154C417.43,489.858 417.613,489.858 415.516,490.147L414.513,490.132C411.857,489.875 409.2,489.617 406.544,489.359C396.596,486.11 398.562,481.648 398.568,462.5L398.621,461.525C398.67,456.185 398.718,450.845 398.767,445.505C398.74,442.841 398.712,440.178 398.685,437.514L398.732,436.567C398.69,429.879 398.648,423.19 398.606,416.502C399.237,416.063 399.869,415.624 400.5,415.185C402.751,414.086 403.208,413.544 403.384,413.334C406.326,409.844 402.394,410.878 398.722,408.493C398.753,404.522 398.783,400.551 398.814,396.581C400.936,396.307 407.195,395.499 425.542,395.66Z" style="fill:rgb(204,172,149);"/>
            <path d="M584.95,398.476L585.001,398.519C586.946,399.148 588.565,399.672 610.537,399.624C611.399,408.506 627.794,398.569 622.199,405.417C620.39,407.632 619.474,403.542 617.2,405.477C616.73,405.876 618.099,406.877 617.629,407.277C621.829,407.82 623.83,405.333 624.21,409.5C624.547,413.199 624.167,413.755 620.454,414.124C618.489,419.224 622.751,417.362 626.34,421.465L626.222,425.544C617.629,423.235 618.382,426.72 618.772,427.189C620.802,429.633 625.431,426.864 625.924,426.569C625.318,429.702 626.138,438.394 626.234,439.418L625.792,439.697L623.817,439.997C623.153,439.931 616.576,439.278 615.489,439.462C615.237,439.504 615.085,441.615 616.273,441.682C621.138,441.955 621.133,441.445 625.597,443.482L625.681,444.479L625.578,450.514L625.373,455.517L625.399,461.482L625.383,462.505C624.515,465.498 624.888,465.369 625.18,468.439C625.115,472.048 625.05,475.657 624.985,479.265C622.492,479.513 617.09,479.711 616.403,479.737L615.407,479.684C613.497,479.54 600.452,478.563 591.585,477.228C592.509,473.338 606.879,476.101 615.566,475.65C615.9,475.633 618.511,472.71 612.481,472.844C607.943,472.945 608.051,473.028 607.666,473.018C607.17,471.464 606.929,471.166 608.521,470.562C609.29,470.541 660.284,465.689 617.381,466.801C616.906,463.907 616.462,463.771 616.208,463.694C615.926,463.607 609.537,461.653 613.857,460.855C616.127,460.436 620.056,457.101 615.601,457.222C612.76,457.299 604.287,451.164 598.157,459.458C597.806,459.117 596.21,454.634 584.047,457.457C584.133,451.149 584.219,444.84 584.305,438.531C585.683,437.184 590.208,432.762 608.249,435.885C610.968,430.011 619.683,433.531 616.306,430.719C615.762,430.266 615.666,430.618 607.565,429.343C589,427.859 588.615,429.44 588.248,430.947C587.881,430.957 586.5,430.994 584.363,428.501C584.392,427.831 584.313,427.16 584.342,426.49C584.836,415.323 584.737,405.725 584.95,398.476Z" style="fill:rgb(211,188,174);"/>
            <path d="M440.497,309.5C440.856,315.517 440.802,326.959 440.794,328.477L440.864,331.489C432.376,337.768 424.143,329.244 417.406,336.083C405.477,335.66 418.314,339.116 418.572,339.177C429.591,341.802 429.479,341.526 440.615,340.523C440.651,342.189 440.688,343.855 440.724,345.522C440.768,354.185 440.633,353.995 440.888,362.506C437.569,363.263 437.741,362.879 434.519,361.871C442.473,355.94 418.173,357.915 419.516,355.509C420.977,352.891 436.325,355.862 437.44,355.452C450.8,350.539 433.319,354.327 419.473,351.37C420.983,347.106 417.995,348.622 413.496,348.609C406.806,348.59 407.005,348.604 400.501,348.499C396.822,348.439 399.065,319.224 399.362,311.617C402.151,311.958 421.475,314.321 434.474,312.481C434.643,312.457 435.184,312.38 434.565,310.35C437.704,310.199 437.892,311.314 440.497,309.5Z" style="fill:rgb(194,160,134);"/>
            <path d="M471.176,246.842C482.587,260.283 482.913,259.921 483.83,261.143C477.27,263.971 467.402,261.6 461.413,262.217C461.904,263.293 460.296,263.02 460.784,264.087C460.843,264.215 460.958,264.467 462.481,264.554C473.805,265.198 481.016,268.501 487.891,265.176C489.162,266.657 489.134,266.443 489.645,268.275C486.672,268.959 486.618,267.89 451.543,269.711C448.785,269.854 447.471,268.564 447.488,271.528C443.833,268.564 438.59,268.904 442.514,271.921C442.849,272.179 443.198,270.959 447.551,273.5C452.784,276.554 453.037,274.818 456.55,272.005C474.268,271.675 474.212,270.959 475.751,270.955C484.301,270.978 485.62,275.792 491.451,269.549C492.734,270.985 502.244,281.636 507.517,287.473C505.795,287.337 505.957,287.412 504.413,287.887C500.514,283.21 497.82,287.861 492.171,284.012C492.318,275.402 473.901,280.633 470.494,277.714C469.64,276.982 469.511,277.662 456.519,276.267C452.923,275.88 453.448,277.336 453.147,278.812C449.749,278.792 449.782,284.702 448.756,281.394C447.52,277.406 446.594,278.244 442.563,277.418C434.541,279.713 415.701,277.204 413.387,276.895C410.429,274.761 410.362,276.815 406.711,277.567C404.861,279.841 403.421,277.085 401.5,279.424C396.804,285.143 408.969,279.001 412.442,284.423C409.119,284.436 408.806,283.721 406.46,286.237C399.937,286.699 399.312,285.538 398.931,285.426C399.163,278.383 398.928,269.901 398.891,268.552C407.386,263.769 409.385,267.908 432.486,266.645C433.39,266.595 433.35,266.488 443.781,265.805C441.788,262.425 438.955,263.772 434.557,263.837C432.298,261.672 429.473,261.946 416.329,261.836C417.562,259.99 417.413,259.342 423.49,259.294C443.734,259.135 462.145,259.471 465.505,259.532C474.218,259.152 479.581,262.117 476.501,256.5C474.987,253.737 474.366,254.642 471.51,255.824C471.24,255.648 469.279,254.373 469.586,252.282C469.224,252.083 468.863,251.885 468.501,251.687C466.173,251.272 463.845,250.856 461.517,250.44L460.53,248.543C466.133,248.247 466.218,249.348 471.176,246.842Z" style="fill:rgb(200,170,152);"/>
            <path d="M552.63,251.532C553.951,251.678 555.273,251.825 556.595,251.971C557.706,252.033 570.487,252.746 570.487,252.746C572.898,252.876 572.492,253.517 574.754,254.387C573.19,255.138 573.331,255.274 571.549,255.316C570.041,255.184 552.563,253.664 552.645,254.741C552.876,257.784 564.606,258.992 565.701,259.105C564.961,260.183 564.221,261.262 563.481,262.34C555.364,263.22 555.536,263.028 547.468,263.459C547.363,263.796 547.258,264.133 547.153,264.47C549.588,265.36 549.627,265.375 579.533,265.802C574.318,269.36 573.917,267.209 563.474,267.134C560.039,272.855 518.745,266.229 543.684,271.244C541.596,273.325 541.83,273.297 541.596,273.325C541.345,273.354 527.159,275.412 539.641,275.803C539.649,275.828 538.209,277.201 540.229,277.779C543.932,278.839 569.995,277.665 572.581,277.549C577.842,276.351 580.417,277.447 590.542,277.476C590.505,276.761 590.468,276.046 590.431,275.33C601.486,275.306 608.496,276.74 610.546,273.26L615.455,273.125C615.444,273.771 615.394,276.72 616.81,281.083C616.837,281.165 636.051,285.286 623.493,284.579C612.266,283.947 612.436,284.321 601.161,285.059C600.621,285.502 600.08,285.946 599.54,286.39C592.567,283.875 591.592,286.463 585.832,281.882C589.315,278.74 579.155,275.605 578.544,282.483C578.263,285.654 570.054,283.656 567.546,288.21C563.199,288.309 558.851,288.407 554.503,288.505C552.521,288.559 534.936,289.595 528.896,288.07L527.592,287.323C526.688,286.151 526.724,286.386 525.393,285.496C525.361,284.874 525.28,284.917 524.141,282.309L526.138,280.101C542.099,261.853 543.067,262.966 552.63,251.532Z" style="fill:rgb(208,185,169);"/>
            <path d="M398.751,362.53C399.445,362.854 400.139,363.177 400.833,363.5C401.427,363.786 402.021,364.073 402.615,364.359C397.595,374.616 406.737,369.966 424.837,372.108C425.86,372.229 441.125,374.036 437.551,370.069C436.658,369.077 427.905,373.998 429.15,366.256C429.525,365.751 429.899,365.246 430.274,364.741C436.024,364.972 435.988,364.955 436.484,364.991C438.723,365.152 438.499,365.338 440.864,365.508C440.495,381.639 440.44,381.552 440.48,385.5L440.462,397.494C439.925,397.866 436.845,400.001 432.301,397.319C431.559,396.557 433.141,396.388 432.413,395.641C432.029,395.247 431.916,395.642 425.542,395.66C407.195,395.499 400.936,396.307 398.814,396.581L398.923,392.32C398.09,382.938 399.751,383.011 398.809,373.581L398.751,362.53Z" style="fill:rgb(200,166,141);"/>
            <path d="M517.517,296.474C519.719,296.806 519.536,296.772 521.528,297.23C519.373,302.502 524.366,298.467 532.325,300.89C533.094,301.124 533.891,301.367 542.361,301.239C542.985,305.361 544.821,302.969 551.494,302.736C555.52,302.595 555.335,302.805 562.387,303.461C559.434,306.526 559.702,306.628 556.426,309.364C542.583,307.993 542.668,308.646 523.818,305.914C523.652,305.928 523.54,306.128 523.374,306.142C523.049,306.169 523.072,306.155 519.299,306.318C518.685,306.196 518.645,306.188 511.477,306.34C509.043,308.594 508.736,309.707 511.728,310.847C514.559,311.925 519.911,306.361 520.765,312.916C518.562,313.309 512.122,312.814 511.372,312.756C510.426,312.684 505.208,312.283 499.514,312.687C492.01,313.22 492.128,312.697 484.708,312.978C478.731,313.205 479.508,315.04 477.199,315.956C465.059,304.052 464.894,301.667 464.783,300.057C467.432,300.364 467.578,301.217 469.492,299.483C469.492,299.483 475.95,298.95 476.511,298.904C505.801,299.786 506.109,300.772 508.865,298.706C511.587,298.751 518.332,298.214 518.346,298.141C518.466,297.532 517.397,297.083 517.517,296.474Z" style="fill:rgb(201,167,142);"/>
            <path d="M585.677,327.498C589.703,328.245 589.505,328.538 592.731,331.194C594.446,332.607 594.665,331.564 620.502,331.531C622.225,330.746 623.949,329.962 625.673,329.177C626.435,329.235 627.197,329.293 627.959,329.352C627.745,331.768 628.269,340.969 627.8,350.483C624.062,347.68 617.065,350.008 619.39,352.54C621.385,354.711 619.533,356.424 619.536,356.526C619.543,357.154 619.549,357.781 619.555,358.409C606.525,358.116 606.446,359.039 605.563,358.352C599.954,353.983 608.162,358.035 614.91,355.94C627.041,352.176 598.914,353.503 597.51,353.57L597.508,352.5C590.461,351.064 589.288,352.622 585.606,346.496C585.804,336.851 585.525,337.014 585.677,327.498Z" style="fill:rgb(204,183,171);"/>
            <path d="M629.076,270.516C628.986,272.913 629.082,272.885 628.512,300.497C623.194,305.593 597.08,301.949 594.374,301.572C593.711,303.18 593.772,303.157 593.505,303.513C589.683,303.283 589.62,302.634 586.142,304.429C586.246,302.12 586.35,299.81 586.455,297.5C586.123,287.822 587.474,287.316 584.668,284.129L584.299,283.918C584.81,283.239 585.321,282.561 585.832,281.882C591.592,286.463 592.567,283.875 599.54,286.39C600.08,285.946 600.621,285.502 601.161,285.059C612.436,284.321 612.266,283.947 623.493,284.579C636.051,285.286 616.837,281.165 616.81,281.083C615.394,276.72 615.444,273.771 615.455,273.125C626.349,273.813 626.471,273.041 627.5,271.665C628.025,271.282 628.551,270.899 629.076,270.516Z" style="fill:rgb(205,185,172);"/>
            <path d="M456.131,230.882C458.384,232.952 468.979,244.765 470.077,245.989C453.898,247.082 453.906,245.978 452.508,246.129L450.592,246.307C447.462,245.319 447.421,244.965 444.48,246.58C437.562,243.892 437.351,244.139 430.365,246.934C424.291,245.587 424.472,244.935 418.437,246.015C414.316,246.247 414.517,245.668 410.529,245.366C409.484,240.322 401.551,242.549 401.953,243.346C402.828,245.082 402.556,245.523 404.511,245.555C404.581,249.547 413.025,248.334 422.474,248.863C413.886,254.71 407.282,248.312 399.014,251.367C398.79,237.036 398.947,235.653 399.101,234.296C403.386,234.931 403.214,234.543 407.469,234.225C413.617,234.607 413.414,234.73 419.582,234.321C425.807,234.151 426.064,234.83 427.447,233.443C429.081,231.802 428.299,231.397 428.48,231.351C433.012,230.198 433.018,232.707 447.215,231.862C452.375,233.1 455.271,231.031 456.131,230.882Z" style="fill:rgb(204,184,175);"/>
            <path d="M628.512,300.497C628.52,302.576 628.557,312.499 628.283,326.48C622.765,326.612 623.001,326.46 617.468,326.198C614.002,326.033 616.273,328.087 616.489,328.57C602.948,326.551 598.975,326.646 597.445,326.682C601.395,323.8 601.108,323.509 601.51,323.391C601.755,323.319 612.387,323.95 604.774,320.929C603.454,321.235 602.133,321.541 600.812,321.846C595.622,315.519 592.539,322.343 586.094,317.492C586.407,314.83 586.719,312.168 587.032,309.507C601.37,310.714 601.91,312.708 611.489,307.269C666.408,308.745 595.582,304.235 593.505,303.513C593.772,303.157 593.711,303.18 594.374,301.572C597.08,301.949 623.194,305.593 628.512,300.497Z" style="fill:rgb(207,185,171);"/>
            <path d="M453.147,278.812C453.448,277.336 452.923,275.88 456.519,276.267C469.511,277.662 469.64,276.982 470.494,277.714C473.901,280.633 492.318,275.402 492.171,284.012C491.192,284.551 491.684,285.319 489.499,285.482C422.932,290.456 503.206,287.931 504.413,287.887C505.957,287.412 505.795,287.337 507.517,287.473C513.247,292.443 514.311,291.061 514.477,291.074C513.611,292.379 513.849,292.289 512.866,293.5C511.342,295.38 516.323,292.998 534.347,294.312L535.567,296.3L533.524,296.667C531.047,297.884 522.487,297.296 521.528,297.23C519.536,296.772 519.719,296.806 517.517,296.474C513.505,296.25 513.585,295.521 509.59,296.692C507.525,296.479 484.639,294.124 483.711,294.822C480.294,297.393 479.691,296.018 476.511,298.904C475.95,298.95 469.492,299.483 469.492,299.483C467.578,301.217 467.432,300.364 464.783,300.057L463.359,299.787C461.361,298.22 461.482,298.273 459.702,296.334C460.033,294.703 460.268,294.909 460.642,293.269C463.305,292.701 510.753,293.301 498.267,290.865C496.029,290.429 462.467,289.382 455.118,291.713L454.661,291.403C453.3,289.268 452.993,289.519 452.753,287.11C467.943,290.326 490.893,287.227 478.517,285.411C477.652,285.284 470.944,289.023 470.946,285.371C470.947,284.009 470.437,284.661 467.505,284.502C464.995,280.708 463.522,283.631 459.445,281.705C458.904,281.836 458.363,281.966 457.823,282.097C454.764,281.499 454.598,281.609 453.147,278.812Z" style="fill:rgb(203,172,150);"/>
            <path d="M584.047,457.457C596.21,454.634 597.806,459.117 598.157,459.458C594.247,462.231 594.327,462.253 592.441,466.713C591.776,466.796 591.135,467.029 590.47,467.113C582.408,468.125 599.348,471.147 604.426,471.356C605.08,470.962 605.735,470.568 606.39,470.174C607.1,470.303 607.81,470.432 608.521,470.562C606.929,471.166 607.17,471.464 607.666,473.018C608.051,473.028 607.943,472.945 612.481,472.844C618.511,472.71 615.9,475.633 615.566,475.65C606.879,476.101 592.509,473.338 591.585,477.228C587.69,477.787 588.248,478.8 588.5,478.926C588.838,479.095 589.876,479.614 591.511,482.568C592.468,482.685 593.425,482.801 594.382,482.918C594.956,482.614 599.429,480.25 602.452,482.04C608.616,485.69 612.412,481.587 624.789,482.665C624.271,483.872 623.304,487.51 621.657,487.833C621.33,487.897 620.077,488.142 618.609,490.674C617.958,490.73 617.308,490.786 616.657,490.843C615.597,490.968 614.537,491.093 613.477,491.218C604.786,490.722 605.005,491.069 596.448,490.733L590.532,490.351C581.613,487.874 583.812,480.524 584.047,457.457Z" style="fill:rgb(211,186,171);"/>
            <path d="M585.606,346.496C589.288,352.622 590.461,351.064 597.508,352.5L597.51,353.57C590.068,354.503 585.431,352.216 587.56,359.5C588.422,362.448 587.347,363.825 590.481,363.819C620.942,363.758 621.891,366.498 627.443,361.495L627.399,363.514L627.449,364.497L627.319,373.474C627.269,374.273 626.932,379.654 627.138,383.482C626.64,385.54 626.616,385.433 627.043,387.575L626.727,388.414C624.503,386.641 612.59,390.76 608.607,388.343C605.749,386.608 614.931,386.544 615.502,386.539C615.8,386.537 629.501,386.441 617.51,383.402L615.646,384.135C610.42,381.296 610.558,381.307 604.416,380.757C606.505,378.855 606.279,378.856 606.505,378.855C613.395,378.824 613.293,378.746 616.218,377.252C618.889,375.888 620.378,376.699 619.816,373.69C624.367,371.945 625.477,373.103 625.266,371.5C624.973,369.283 623.844,370.603 597.463,368.65C596.654,368.102 592.418,365.233 585.257,368.483C585.488,357.478 585.544,357.635 585.606,346.496Z" style="fill:rgb(199,167,142);"/>
            <path d="M417.801,188.119C419.189,189.477 420.577,190.835 421.965,192.193L422.891,193.153C424.12,194.635 436.559,209.641 438.694,211.291C428.354,209.789 415.453,212.575 425.463,209.251C428.058,208.389 430.95,208.829 428.503,207.499C426.988,206.676 426.927,207.193 425.445,206.376C421.295,206.457 421.138,207.679 417.531,205.479C411.724,201.937 408.528,205.842 399.162,203.397L399.281,191.457C403.251,190.435 410.562,191.105 417.801,188.119Z" style="fill:rgb(194,168,155);"/>
            <path d="M597.525,211.456C600.571,211.55 600.345,211.449 603.506,211.288C610.84,218.979 624.469,208.34 627.921,215.5C627.921,215.5 629.353,215.499 629.477,215.499L629.453,218.494C629.235,218.894 629.017,219.295 628.8,219.695C624.734,219.532 625.872,221.041 625.828,221.127L624.5,221.334C622.079,224.018 619.724,221.86 619.333,225.525C616.572,227.705 616.345,226.514 612.882,226.084C612.435,225.993 607.293,224.936 607.293,224.936C606.552,224.448 607.109,221.752 593.606,223.028C592.893,223.066 592.18,223.105 591.468,223.144C584.943,222.064 583.981,223.611 582.007,220.149C583.433,218.82 584.86,217.491 586.286,216.162C587.977,216.471 587.811,216.946 589.552,216.759C590.569,216.649 590.4,217.182 591.459,217.068C591.524,214.322 590.676,214.708 590.725,214.5C591.443,211.386 593.269,212.964 593.598,212.766C595.967,212.741 596.296,213.427 597.525,211.456Z" style="fill:rgb(210,194,188);"/>
            <path d="M591.468,223.144C592.18,223.105 592.893,223.066 593.606,223.028C607.109,221.752 606.552,224.448 607.293,224.936C607.293,224.936 612.435,225.993 612.882,226.084C612.47,226.887 612.981,227.971 612.57,228.774C612.333,229.235 607.443,226.566 605.425,229.356L604.439,230.211C585.828,230.322 585.872,230.905 577.573,229.827C575.076,229.502 577.082,230.694 577.679,231.5C578.849,233.082 580.253,234.273 580.504,234.486C577.831,235.083 576.764,234.841 576.446,234.77C575.588,234.889 576.435,233.739 575.606,233.854C575.444,233.877 574.366,234.027 573.988,235.111C573.831,235.56 574.902,235.871 574.745,236.321C582.475,238.582 643.843,235.985 623.003,234.048C622.323,231.799 622.643,229.706 622.7,229.333C625.845,231.809 626.365,230.773 629.358,233.492L629.373,237.47C619.848,239.671 604.869,238.82 598.504,239.488C595.987,239.435 579.554,237.579 574.427,240.836C572.262,240.751 572.381,240.696 570.483,241.505C569.95,241.712 565.004,243.633 563.5,242.994C562.911,242.744 563.004,241.662 562.415,241.412C576.077,226.515 576.069,226.6 577.179,225.246C577.436,225.338 576.697,227 584.488,227.537C585.966,227.136 591.305,227.243 590.904,225.311L591.468,223.144Z" style="fill:rgb(205,181,166);"/>
            <path d="M601.588,242.215C610.285,242.873 610.056,243.688 618.676,244.044C624.112,243.892 623.907,244.066 629.115,244.609L629.32,248.495C629.007,248.573 620.11,250.816 629.248,252.524C628.999,258.629 629.153,262.559 629.187,263.431L628.5,262.441C619.558,260.332 619.504,261.473 618.747,261.262C607.789,258.215 625.054,258.834 625.638,258.855C625.399,258.385 625.16,257.914 624.921,257.443C622.452,255.956 622.355,256.479 616.502,255.559C611.565,251.204 610.989,253.009 604.519,252.445C601.224,252.158 590.697,252.479 589.495,252.516C580.424,252.793 578.97,255.146 578.486,255.93C576.388,255.48 576.489,255.723 574.754,254.387C572.492,253.517 572.898,252.876 570.487,252.746C570.487,252.746 557.706,252.033 556.595,251.971C557.631,250.56 557.139,249.27 561.504,249.733C569.807,250.336 569.752,250.399 570.471,250.385C583.406,250.127 583.374,250.609 584.417,250.215C590.371,247.968 590.569,251.135 596.73,249.631C597.367,249.149 598.003,248.668 598.64,248.186C601.714,250.7 621.947,250.735 624.5,248.743C624.508,248.283 624.515,247.823 624.523,247.363C622.68,247.388 608.773,247.571 601.484,247.186C598.366,247.022 602.748,245.126 601.588,242.215Z" style="fill:rgb(206,188,179);"/>
            <path d="M438.694,211.291C439.985,212.404 439.896,212.456 456.131,230.882C455.271,231.031 452.375,233.1 447.215,231.862C433.018,232.707 433.012,230.198 428.48,231.351C428.299,231.397 429.081,231.802 427.447,233.443C426.064,234.83 425.807,234.151 419.582,234.321C418.714,230.021 408.682,229.521 407.469,234.225C403.214,234.543 403.386,234.931 399.101,234.296L399.237,228.508C401.308,228.901 427.757,231.519 437.476,226.154C440.242,225.863 440.531,226.092 441.46,223.64C435.946,222.117 436.917,220.216 431.389,218.75C431.299,211.199 436.695,213.581 437.283,213.337C438.048,213.02 437.929,211.609 438.694,211.291Z" style="fill:rgb(191,159,139);"/>
            <path d="M585.257,368.483C592.418,365.233 596.654,368.102 597.463,368.65C623.844,370.603 624.973,369.283 625.266,371.5C625.477,373.103 624.367,371.945 619.816,373.69C620.378,376.699 618.889,375.888 616.218,377.252C613.293,378.746 613.395,378.824 606.505,378.855C606.279,378.856 606.505,378.855 604.416,380.757C594.802,381.685 594.946,380.835 585.147,381.455L585.257,368.483Z" style="fill:rgb(218,208,205);"/>
            <path d="M419.473,351.37C433.319,354.327 450.8,350.539 437.44,355.452C436.325,355.862 420.977,352.891 419.516,355.509C418.173,357.915 442.473,355.94 434.519,361.871L433.473,361.639C431.989,362.39 432.183,362.361 430.563,362.725C426.818,361.841 426.85,361.751 426.518,361.771C412.583,362.589 429.106,364.54 429.428,364.578L430.274,364.741C429.899,365.246 429.525,365.751 429.15,366.256C423.181,366.16 423.401,365.678 417.568,365.85C417.184,358.925 413.999,361.158 402.533,361.56C401.019,361.613 401.197,361.964 400.833,363.5C400.139,363.177 399.445,362.854 398.751,362.53C398.843,352.73 396.697,350.05 400.684,350.872C401.858,351.114 417.97,351.348 419.473,351.37Z" style="fill:rgb(207,182,166);"/>
            <path d="M539.507,320.52C544.141,321.447 544.123,321.384 544.509,321.515C542.361,324.218 535.118,334.582 530.496,335.484C515.804,335.352 515.993,337.712 501.499,336.449C498.854,336.219 499.034,336.577 496.5,337.5C492.805,333.595 493.038,333.699 489.427,329.589C499.162,326.433 499.309,328.805 509.56,328.289L520.488,328.384C529.947,328.245 531.698,330.734 533.094,326.015C536.308,324.61 536.295,324.713 536.556,324.564C539.262,323.364 539.994,323.485 539.507,320.52Z" style="fill:rgb(192,148,110);"/>
            <path d="M437.414,289.68L438.646,289.359C439.315,289.727 439.984,290.095 440.653,290.463C440.837,295.006 440.814,294.829 440.717,299.521L439.5,299.551C420.949,298.922 421.183,300.793 421.108,300.866C420.832,300.856 412.016,300.538 419.447,297.838C417.45,296.204 416.757,296.454 416.516,296.542C414.725,297.189 407.897,295.35 406.498,295.409C405.905,295.434 405.919,296.724 405.326,296.749C399.446,296.187 399.46,296.546 398.998,296.336C399.005,294.692 399.012,293.047 399.019,291.402C400.965,289.5 400.958,289.718 400.965,289.5C401.088,285.953 431.395,291.932 437.414,289.68Z" style="fill:rgb(204,177,159);"/>
            <path d="M604.416,380.757C610.558,381.307 610.42,381.296 615.646,384.135C616.267,383.891 616.889,383.647 617.51,383.402C629.501,386.441 615.8,386.537 615.502,386.539C614.931,386.544 605.749,386.608 608.607,388.343C612.59,390.76 624.503,386.641 626.727,388.414C621.995,394.406 616.683,388.729 608.502,392.769C608.176,392.93 590.178,392.343 588.585,392.291C586.509,391.724 586.409,391.825 584.95,393.501C585.015,389.486 585.081,385.471 585.147,381.455C594.946,380.835 594.802,381.685 604.416,380.757Z" style="fill:rgb(218,206,201);"/>
            <path d="M597.51,353.57C598.914,353.503 627.041,352.176 614.91,355.94C608.162,358.035 599.954,353.983 605.563,358.352C606.446,359.039 606.525,358.116 619.555,358.409C619.549,357.781 619.543,357.154 619.536,356.526C623.75,356.805 623.554,356.734 627.799,357.506L627.551,360.51L627.443,361.495C621.891,366.498 620.942,363.758 590.481,363.819C587.347,363.825 588.422,362.448 587.56,359.5C585.431,352.216 590.068,354.503 597.51,353.57Z" style="fill:rgb(217,205,201);"/>
            <path d="M405.326,296.749C405.919,296.724 405.905,295.434 406.498,295.409C407.897,295.35 414.725,297.189 416.516,296.542C416.757,296.454 417.45,296.204 419.447,297.838C412.016,300.538 420.832,300.856 421.108,300.866C424.665,301.975 424.561,301.638 428.387,301.761C430.781,303.172 429.996,304.598 433.434,304.736C437.273,304.891 437.316,304.22 437.537,304.463C441.786,309.121 435.735,306.488 429.496,306.495C429.165,306.496 429.273,306.76 429.417,310.637C401.35,308.582 401.45,308.865 399.074,308.336C398.967,303.762 398.858,303.926 399.117,299.38C406.822,297.422 407.439,298.258 407.37,297.586C407.295,296.854 405.401,297.481 405.326,296.749Z" style="fill:rgb(201,175,160);"/>
            <path d="M523.818,305.914C542.668,308.646 542.583,307.993 556.426,309.364C550.638,317.052 545.61,320.713 544.509,321.515C544.123,321.384 544.141,321.447 539.507,320.52C513.294,317.059 511.161,321.732 508.497,316.556C527.954,315.031 528.254,315.774 530.661,313.892C537.952,314.921 559.479,313.139 544.378,311.735C536.838,311.034 537.008,310.935 529.482,310.63C528.657,309.684 529.001,309.567 527.792,309.068C519.801,308.073 519.966,307.895 519.279,307.87L519.299,306.318C523.072,306.155 523.049,306.169 523.374,306.142C523.54,306.128 523.652,305.928 523.818,305.914Z" style="fill:rgb(184,134,91);"/>
            <path d="M579.533,265.802C585.768,267.103 592.371,264.435 591.166,266.547C590.274,268.11 589.517,267.156 588.447,268.666C583.864,268.383 583.894,268.371 583.497,268.361C583.192,268.353 571.405,269.226 582.284,271.976C586.05,272.928 585.759,270.258 589.559,270.709C588.631,272.423 587.822,273.098 589.694,273.333C590.75,273.465 608.878,273.278 610.546,273.26C608.496,276.74 601.486,275.306 590.431,275.33C587.846,275.172 585.26,275.014 582.675,274.856C574.399,272.136 574.213,274.549 565.522,273.408C562.941,273.069 563.458,270.921 559.533,271.596C559.182,271.656 559.757,272.466 555.494,273.473C554.521,273.703 554.903,273.882 554.496,275.527C551.317,275.634 551.532,275.606 548.504,275.65C548.73,272.05 546.482,273.66 543.684,271.244C518.745,266.229 560.039,272.855 563.474,267.134C573.917,267.209 574.318,269.36 579.533,265.802Z" style="fill:rgb(212,193,183);"/>
            <path d="M422.474,248.863C426.472,248.735 426.775,248.019 429.498,250.828C427.165,250.365 427.381,250.915 425.661,252.453C438.599,256.835 449.058,255.23 451.429,253.806C451.99,253.817 452.551,253.828 453.112,253.838C461.057,255.746 462.707,251.799 463.238,254.513C463.312,254.887 463.337,255.015 467.438,256.765C469.459,257.627 469.295,256.875 471.51,255.824C474.366,254.642 474.987,253.737 476.501,256.5C479.581,262.117 474.218,259.152 465.505,259.532C461.384,256.098 460.396,257.483 432.482,257.352C424.172,251.16 409.521,258.275 398.947,255.396C398.969,254.053 398.992,252.71 399.014,251.367C407.282,248.312 413.886,254.71 422.474,248.863Z" style="fill:rgb(205,186,176);"/>
            <path d="M609.128,191.162C612.927,195.333 613.777,191.045 619.548,191.621C642.538,193.919 608.707,195.965 608.5,196.299C606.522,199.489 615.77,196.399 625.28,199.197C626.064,201.815 628.817,202.263 626.254,203.406C624.137,204.35 623.904,201.699 618.51,203.509C616.556,204.165 617.093,204.702 615.354,205.61C612.807,204.403 612.608,204.585 610.837,206.671C609.412,208.348 599.331,206.825 598.342,206.676C597.463,206.543 596.992,205.345 596.113,205.212C602.743,198.156 602.556,198.214 609.128,191.162Z" style="fill:rgb(203,182,170);"/>
            <path d="M619.333,225.525C620.504,230.855 622.595,229.304 622.7,229.333C622.643,229.706 622.323,231.799 623.003,234.048C608.494,234.806 608.568,234.47 580.504,234.486C580.253,234.273 578.849,233.082 577.679,231.5C577.082,230.694 575.076,229.502 577.573,229.827C585.872,230.905 585.828,230.322 604.439,230.211C604.767,229.926 605.096,229.641 605.425,229.356C607.443,226.566 612.333,229.235 612.57,228.774C612.981,227.971 612.47,226.887 612.882,226.084C616.345,226.514 616.572,227.705 619.333,225.525Z" style="fill:rgb(217,206,202);"/>
            <path d="M629.187,263.431L629.076,270.516C628.551,270.899 628.025,271.282 627.5,271.665C624.484,271.315 619.088,270.69 589.559,270.709C585.759,270.258 586.05,272.928 582.284,271.976C571.405,269.226 583.192,268.353 583.497,268.361C583.894,268.371 583.864,268.383 588.447,268.666C595.101,268.689 598.419,271.991 598.492,265.369C606.322,269.813 606.717,269.934 615.473,267.446C625.065,264.719 610.278,266.838 605.818,264.221C607.298,262.635 607.38,262.915 609.502,263.017C610.707,263.074 610.022,258.418 612.526,260.417C613.13,260.899 612.995,261.921 613.461,262.536C613.949,263.182 614.148,262.533 623.497,263.809C626.293,264.191 626.404,264.371 628.5,262.441L629.187,263.431Z" style="fill:rgb(198,169,150);"/>
            <path d="M629.815,198.62C629.77,202.669 629.574,202.485 629.53,206.5C629.522,207.219 629.526,207.166 629.477,215.499C629.353,215.499 627.921,215.5 627.921,215.5C624.469,208.34 610.84,218.979 603.506,211.288C600.345,211.449 600.571,211.55 597.525,211.456C597.191,210.505 595.834,210.16 595.5,209.209C594.925,207.57 615.99,213.338 615.354,205.61C617.093,204.702 616.556,204.165 618.51,203.509C623.904,201.699 624.137,204.35 626.254,203.406C628.817,202.263 626.064,201.815 625.28,199.197C627.735,198.844 627.503,198.872 629.815,198.62Z" style="fill:rgb(200,176,163);"/>
            <path d="M616.502,255.559C622.355,256.479 622.452,255.956 624.921,257.443L625.638,258.855C625.054,258.834 607.789,258.215 618.747,261.262C619.504,261.473 619.558,260.332 628.5,262.441C626.404,264.371 626.293,264.191 623.497,263.809C614.148,262.533 613.949,263.182 613.461,262.536C612.995,261.921 613.13,260.899 612.526,260.417C610.022,258.418 610.707,263.074 609.502,263.017C607.38,262.915 607.298,262.635 605.818,264.221C603.194,262.206 602.22,260.307 600.583,263.713C596.939,262.756 588.179,264.205 583.763,263.93C583.545,263.551 585.11,262.525 582.65,261.994C581.528,261.752 581.545,261.861 581.424,261.6C578.285,254.824 611.459,261.257 607.389,256.772C608.122,256.716 615.408,256.162 616.502,255.559Z" style="fill:rgb(214,201,198);"/>
            <path d="M598.157,459.458C604.287,451.164 612.76,457.299 615.601,457.222C620.056,457.101 616.127,460.436 613.857,460.855C609.537,461.653 615.926,463.607 616.208,463.694C616.462,463.771 616.906,463.907 617.381,466.801C608.023,468.716 594.42,466.967 592.441,466.713C594.327,462.253 594.247,462.231 598.157,459.458Z" style="fill:rgb(213,186,171);"/>
            <path d="M522.626,321.202C523.62,321.198 524.614,321.194 525.609,321.19C523.849,326.891 527.345,325.194 533.094,326.015C531.698,330.734 529.947,328.245 520.488,328.384L509.56,328.289C499.309,328.805 499.162,326.433 489.427,329.589C487.966,328.038 486.504,326.486 485.042,324.935C490.633,321.514 490.923,323.757 497.444,324.002C521.805,324.917 522.352,323.211 522.626,321.202Z" style="fill:rgb(204,171,145);"/>
            <path d="M629.373,237.47C629.319,238.804 629.266,240.138 629.212,241.471C623.313,237.563 620.826,241.661 620.462,242.262C619.016,242.554 618.698,242.44 618.676,244.044C610.056,243.688 610.285,242.873 601.588,242.215C601.076,242.278 600.202,242.386 596.341,245.949C591.621,244.983 591.642,245.408 575.607,245.208L572.396,244.807C571.758,243.706 571.12,242.606 570.483,241.505C572.381,240.696 572.262,240.751 574.427,240.836C576.165,241.153 584.236,242.625 596.49,241.628C599.739,241.363 598.283,239.968 598.504,239.488C604.869,238.82 619.848,239.671 629.373,237.47Z" style="fill:rgb(209,194,186);"/>
            <path d="M413.387,276.895C413.804,284.998 439.498,274.233 442.454,283.452C441.575,285.262 441.506,285.008 440.733,286.654C438.243,286.575 438.464,286.598 436.196,287.1L435.358,287.271C434.775,285.865 434.847,283.57 412.442,284.423C408.969,279.001 396.804,285.143 401.5,279.424C403.421,277.085 404.861,279.841 406.711,277.567C410.362,276.815 410.429,274.761 413.387,276.895Z" style="fill:rgb(206,181,164);"/>
            <path d="M615.627,339.435C617.934,339.477 620.242,339.52 622.549,339.562C624.131,342.524 627.386,341.336 625.934,344.5C622.943,351.015 617.919,345.114 605.866,348.5C605.427,348.623 602.791,347.877 602.49,347.548C602.162,347.187 603.257,344.73 595.411,344.949C591.428,345.059 589.482,346.636 589.531,342.537C598.536,342.804 598.078,339.837 607.291,340.088C609.309,340.143 609.111,341.569 610.35,341.893C615.062,343.13 614.777,341.6 615.627,339.435Z" style="fill:rgb(215,201,195);"/>
            <path d="M586.094,317.492C592.539,322.343 595.622,315.519 600.812,321.846C591.275,324.151 591.025,322.587 590.322,323.056C584.298,327.077 596.805,326.702 597.445,326.682C598.975,326.646 602.948,326.551 616.489,328.57C619.55,328.772 622.612,328.974 625.673,329.177C623.949,329.962 622.225,330.746 620.502,331.531C594.665,331.564 594.446,332.607 592.731,331.194C589.505,328.538 589.703,328.245 585.677,327.498C585.816,324.163 585.955,320.827 586.094,317.492Z" style="fill:rgb(216,207,205);"/>
            <path d="M585.832,281.882C585.321,282.561 584.81,283.239 584.299,283.918C576.976,284.093 577.749,289.055 571.306,293.247C566.475,292.388 559.607,292.704 558.59,292.751C534.071,288.754 529.749,295.101 528.896,288.07C534.936,289.595 552.521,288.559 554.503,288.505C556.55,291.547 569.685,292.175 567.546,288.21C570.054,283.656 578.263,285.654 578.544,282.483C579.155,275.605 589.315,278.74 585.832,281.882Z" style="fill:rgb(202,166,136);"/>
            <path d="M477.624,316.255C477.646,316.263 491.957,316.983 508.497,316.556C511.161,321.732 513.294,317.059 539.507,320.52C539.994,323.485 539.262,323.364 536.556,324.564C533.157,320.888 531.974,322.22 529.494,321.581C528.926,321.743 528.358,321.904 527.79,322.065C527.063,321.773 526.336,321.481 525.609,321.19C524.614,321.194 523.62,321.198 522.626,321.202C484.531,320.367 484.563,320.654 481.259,320.457C481.005,320.093 479.745,318.288 477.624,316.255Z" style="fill:rgb(188,145,113);"/>
            <path d="M626.727,388.414C626.69,397.674 626.876,397.654 626.859,398.457C625.036,397.33 591.549,393.177 585.001,398.519L584.95,398.476L584.95,393.501C586.409,391.825 586.509,391.724 588.585,392.291C590.178,392.343 608.176,392.93 608.502,392.769C616.683,388.729 621.995,394.406 626.727,388.414Z" style="fill:rgb(201,171,151);"/>
            <path d="M622.506,185.459C629.733,187.936 630,189.841 629.815,198.62C627.503,198.872 627.735,198.844 625.28,199.197C615.77,196.399 606.522,199.489 608.5,196.299C608.707,195.965 642.538,193.919 619.548,191.621C613.777,191.045 612.927,195.333 609.128,191.162C615.335,185.93 614.904,182.905 622.506,185.459Z" style="fill:rgb(206,187,176);"/>
            <path d="M402.615,364.359C410.251,364.613 410.079,364.691 417.568,365.85C423.401,365.678 423.181,366.16 429.15,366.256C427.905,373.998 436.658,369.077 437.551,370.069C441.125,374.036 425.86,372.229 424.837,372.108C406.737,369.966 397.595,374.616 402.615,364.359Z" style="fill:rgb(206,176,157);"/>
            <path d="M524.141,282.309C525.28,284.917 525.361,284.874 525.393,285.496C525.294,285.704 524.133,288.143 524.515,288.242C524.515,288.242 527.346,287.397 527.592,287.323L528.896,288.07C529.749,295.101 534.071,288.754 558.59,292.751C558.243,293.314 557.895,293.876 557.548,294.438C555.693,294.476 540.877,294.778 534.347,294.312C516.323,292.998 511.342,295.38 512.866,293.5C513.849,292.289 513.611,292.379 514.477,291.074C520.229,287.855 519.359,287.013 524.141,282.309Z" style="fill:rgb(193,141,92);"/>
            <path d="M574.754,254.387C576.489,255.723 576.388,255.48 578.486,255.93C580.795,255.801 580.588,256.034 607.389,256.772C611.459,261.257 578.285,254.824 581.424,261.6C581.545,261.861 581.528,261.752 582.65,261.994C585.11,262.525 583.545,263.551 583.763,263.93C582.315,264.145 582.566,262.695 565.483,263.16C564.207,263.194 564.557,262.78 563.481,262.34C564.221,261.262 564.961,260.183 565.701,259.105C569.865,258.451 571.395,259.423 571.549,255.316C573.331,255.274 573.19,255.138 574.754,254.387Z" style="fill:rgb(205,187,182);"/>
            <path d="M407.37,447.323C426.472,448.376 426.499,448.753 428.44,448.058C428.852,447.91 429.896,444.888 430.184,447.644C430.704,452.611 427.829,451.022 427.92,451.357C428.301,452.753 429.573,452.191 429.104,453.051C427.485,456.025 428.846,458.139 425.537,457.438C421.267,456.533 421.823,458.618 421.503,458.524C413.403,456.156 405.958,459.552 405.203,457.952C402.116,451.415 418.384,459.51 415.865,452.168C414.111,447.055 409.957,451.984 407.37,447.323Z" style="fill:rgb(217,194,182);"/>
            <path d="M432.482,257.352C460.396,257.483 461.384,256.098 465.505,259.532C462.145,259.471 443.734,259.135 423.49,259.294C417.413,259.342 417.562,259.99 416.329,261.836C413.55,261.871 405.37,260.639 401.246,263.84C400.48,261.5 399.233,259.653 399.007,259.318C408.723,258.573 408.706,258.804 409.498,258.521C416.037,256.189 416.124,257.581 432.482,257.352Z" style="fill:rgb(212,194,183);"/>
            <path d="M520.765,312.916C526.781,312.854 527.023,311.629 530.661,313.892C528.254,315.774 527.954,315.031 508.497,316.556C491.957,316.983 477.646,316.263 477.624,316.255L477.199,315.956C479.508,315.04 478.731,313.205 484.708,312.978C492.128,312.697 492.01,313.22 499.514,312.687C505.208,312.283 510.426,312.684 511.372,312.756C512.122,312.814 518.562,313.309 520.765,312.916Z" style="fill:rgb(221,209,203);"/>
            <path d="M498.314,339.651C499.929,339.125 499.941,339.248 519.5,338.287C525.853,337.975 525.179,339.795 526.145,341.214C524.926,343.397 524.996,343.228 522.819,344.828C515.735,347.258 514.989,343.254 508.342,346.863L507.74,347.063C507.113,347.044 506.485,347.024 505.858,347.005C503.753,345.191 498.904,340.253 498.314,339.651Z" style="fill:rgb(198,156,120);"/>
            <path d="M413.387,276.895C415.701,277.204 434.541,279.713 442.563,277.418C446.594,278.244 447.52,277.406 448.756,281.394C449.782,284.702 449.749,278.792 453.147,278.812C454.598,281.609 454.764,281.499 457.823,282.097C458.363,281.966 458.904,281.836 459.445,281.705C463.522,283.631 464.995,280.708 467.505,284.502C458.347,285.648 457.378,280.314 450.151,285.891C448.023,284.101 448.139,284.293 445.904,283.004C443.961,282.849 444.19,283.047 442.454,283.452C439.498,274.233 413.804,284.998 413.387,276.895Z" style="fill:rgb(192,150,114);"/>
            <path d="M591.585,477.228C600.452,478.563 613.497,479.54 615.407,479.684C615.739,479.701 616.071,479.719 616.403,479.737C617.09,479.711 622.492,479.513 624.985,479.265C625.033,481.406 625.245,481.199 624.789,482.665C612.412,481.587 608.616,485.69 602.452,482.04C599.429,480.25 594.956,482.614 594.382,482.918C593.425,482.801 592.468,482.685 591.511,482.568C589.876,479.614 588.838,479.095 588.5,478.926C588.248,478.8 587.69,477.787 591.585,477.228Z" style="fill:rgb(221,202,191);"/>
            <path d="M558.59,292.751C559.607,292.704 566.475,292.388 571.306,293.247C570.854,293.968 567.979,298.548 563.47,300.448C553.397,300.146 553.513,299.326 543.735,300.909C543.106,300.735 543.141,299.553 542.512,299.38C539.18,298.461 535.76,302.023 533.524,296.667L535.567,296.3C541.388,298.62 572.191,296.274 557.548,294.438C557.895,293.876 558.243,293.314 558.59,292.751Z" style="fill:rgb(195,157,125);"/>
            <path d="M431.389,218.75C436.917,220.216 435.946,222.117 441.46,223.64C440.531,226.092 440.242,225.863 437.476,226.154C433.556,223.525 433.27,225.83 428.684,225.27C417.942,219.154 401.975,231.403 403.278,222.488C403.661,219.871 404.697,219.924 406.559,221.655C406.608,221.7 408.064,226.23 410.538,221.754C416.325,221.353 416.728,223.66 421.575,220.271C422.226,219.816 422.305,220.383 431.389,218.75Z" style="fill:rgb(205,186,178);"/>
            <path d="M430.365,246.934C437.351,244.139 437.562,243.892 444.48,246.58C446,247.517 445.854,247.493 447.586,248.216C450.005,250.615 451.353,252.201 452.583,248.511C452.784,247.908 453.057,248.53 460.53,248.543L461.517,250.44C457.414,253.382 454.287,248.853 453.112,253.838C452.551,253.828 451.99,253.817 451.429,253.806C442.925,247.551 431.094,261.261 436.061,252.087C436.019,250.901 435.978,249.714 435.937,248.528C434.88,247.238 434.754,247.716 433.023,247.771C432.137,247.492 431.251,247.213 430.365,246.934Z" style="fill:rgb(198,170,157);"/>
            <path d="M563.481,262.34C564.557,262.78 564.207,263.194 565.483,263.16C582.566,262.695 582.315,264.145 583.763,263.93C588.179,264.205 596.939,262.756 600.583,263.713C598.63,265.321 598.651,265.227 598.492,265.369C598.419,271.991 595.101,268.689 588.447,268.666C589.517,267.156 590.274,268.11 591.166,266.547C592.371,264.435 585.768,267.103 579.533,265.802C549.627,265.375 549.588,265.36 547.153,264.47L547.468,263.459C555.536,263.028 555.364,263.22 563.481,262.34Z" style="fill:rgb(223,216,214);"/>
            <path d="M414.267,324.729C414.602,324.721 414.436,324.583 418.438,324.403C421.844,324.249 422.477,328.273 424.225,325.259C424.616,325.42 424.099,326.34 424.49,326.501C431.591,329.426 441.244,329.867 433.489,330.44C430.239,330.68 430.34,330.175 428.895,330.053C426.201,328.588 418.515,327.061 422.451,331.699C421.075,331.863 419.7,332.028 418.325,332.192C418.645,328.024 395.996,332.213 401.5,326.606C403.025,325.052 411.933,328.074 414.267,324.729Z" style="fill:rgb(207,184,173);"/>
            <path d="M584.363,428.501C586.5,430.994 587.881,430.957 588.248,430.947C588.984,431.33 595.723,434.843 598.591,431.807C601.72,428.494 607.752,435.322 607.565,429.343C615.666,430.618 615.762,430.266 616.306,430.719C619.683,433.531 610.968,430.011 608.249,435.885C590.208,432.762 585.683,437.184 584.305,438.531L584.363,428.501Z" style="fill:rgb(212,194,186);"/>
            <path d="M585.001,398.519C591.549,393.177 625.036,397.33 626.859,398.457C626.772,399.164 626.686,399.87 626.599,400.576C618.573,399.779 618.754,399.841 610.537,399.624C588.565,399.672 586.946,399.148 585.001,398.519Z" style="fill:rgb(225,215,209);"/>
            <path d="M578.486,255.93C578.97,255.146 580.424,252.793 589.495,252.516C590.697,252.479 601.224,252.158 604.519,252.445C610.989,253.009 611.565,251.204 616.502,255.559C615.408,256.162 608.122,256.716 607.389,256.772C580.588,256.034 580.795,255.801 578.486,255.93Z" style="fill:rgb(218,213,215);"/>
            <path d="M509.59,296.692C509.619,297.921 509.73,297.864 508.865,298.706C506.109,300.772 505.801,299.786 476.511,298.904C479.691,296.018 480.294,297.393 483.711,294.822C484.639,294.124 507.525,296.479 509.59,296.692Z" style="fill:rgb(217,199,190);"/>
            <path d="M610.537,399.624C618.754,399.841 618.573,399.779 626.599,400.576L626.656,402.512L626.441,406.51C626.471,408.17 626.502,409.83 626.533,411.49L626.623,412.485C626.392,413.166 625.922,414.555 626.34,421.465C622.751,417.362 618.489,419.224 620.454,414.124C624.167,413.755 624.547,413.199 624.21,409.5C623.83,405.333 621.829,407.82 617.629,407.277C618.099,406.877 616.73,405.876 617.2,405.477C619.474,403.542 620.39,407.632 622.199,405.417C627.794,398.569 611.399,408.506 610.537,399.624Z" style="fill:rgb(191,149,113);"/>
            <path d="M428.306,316.846C428.744,317.751 429.183,318.655 429.621,319.559C427.96,319.491 428.149,319.817 426.53,319.433C420.066,317.896 419.953,319.464 413.582,317.333C413.17,317.195 408.103,315.5 408.285,318.526C408.312,318.972 408.969,317.664 413.588,320.288C408.852,322.79 405.877,318.126 404.521,323.446C403.373,323.248 402.211,324.144 401.063,323.946C397.368,323.309 404.534,321.588 403.335,318.656L403.5,317.234C409.462,310.4 416.583,317.727 422.568,314.978C423.651,314.48 426.202,316.278 428.306,316.846Z" style="fill:rgb(209,191,183);"/>
            <path d="M399.007,259.318C399.233,259.653 400.48,261.5 401.246,263.84C417.969,265.015 417.798,264.264 434.557,263.837C438.955,263.772 441.788,262.425 443.781,265.805C433.35,266.488 433.39,266.595 432.486,266.645C409.385,267.908 407.386,263.769 398.891,268.552C398.93,265.474 398.968,262.396 399.007,259.318Z" style="fill:rgb(174,133,109);"/>
            <path d="M489.645,268.275L491.451,269.549C485.62,275.792 484.301,270.978 475.751,270.955C474.212,270.959 474.268,271.675 456.55,272.005C451.942,271.844 452.188,271.713 447.488,271.528C447.471,268.564 448.785,269.854 451.543,269.711C486.618,267.89 486.672,268.959 489.645,268.275Z" style="fill:rgb(216,200,194);"/>
            <path d="M398.602,219.423C403.097,216.207 409.474,221.143 410.538,221.754C408.064,226.23 406.608,221.7 406.559,221.655C404.697,219.924 403.661,219.871 403.278,222.488C401.975,231.403 417.942,219.154 428.684,225.27C425.28,229.028 424.089,225.33 419.367,227.019C417.799,227.58 404.039,226.763 399.342,227.459C399.14,222.928 399.509,223.057 398.602,219.423Z" style="fill:rgb(193,168,156);"/>
            <path d="M511.477,306.34C511.79,311.439 514.161,308.855 519.279,307.87C519.966,307.895 519.801,308.073 527.792,309.068C528.356,309.588 528.919,310.109 529.482,310.63C537.008,310.935 536.838,311.034 544.378,311.735C559.479,313.139 537.952,314.921 530.661,313.892C527.023,311.629 526.781,312.854 520.765,312.916C519.911,306.361 514.559,311.925 511.728,310.847C508.736,309.707 509.043,308.594 511.477,306.34Z" style="fill:rgb(211,177,151);"/>
            <path d="M576.446,234.77C576.764,234.841 577.831,235.083 580.504,234.486C608.568,234.47 608.494,234.806 623.003,234.048C643.843,235.985 582.475,238.582 574.745,236.321C575.312,235.804 575.879,235.287 576.446,234.77Z" style="fill:rgb(198,174,162);"/>
            <path d="M481.259,320.457C484.563,320.654 484.531,320.367 522.626,321.202C522.352,323.211 521.805,324.917 497.444,324.002C490.923,323.757 490.633,321.514 485.042,324.935C484.187,324.142 484.313,324.191 481.259,320.457Z" style="fill:rgb(218,201,191);"/>
            <path d="M417.406,336.083C437.563,335.095 439.531,337.156 440.832,338.519L440.615,340.523C429.479,341.526 429.591,341.802 418.572,339.177C418.314,339.116 405.477,335.66 417.406,336.083Z" style="fill:rgb(216,197,186);"/>
            <path d="M593.505,303.513C595.582,304.235 666.408,308.745 611.489,307.269C610.523,307.26 602.276,307.183 599.415,306.765C592.88,305.81 593.167,307.013 587.032,309.507C585.998,307.057 586.22,307.156 586.142,304.429C589.62,302.634 589.683,303.283 593.505,303.513Z" style="fill:rgb(221,214,214);"/>
            <path d="M435.65,415.966C433.486,418.881 435.24,418.888 437.51,421.499C439.495,423.784 435.582,427.452 435.189,427.821C434.981,427.82 423.282,426.425 433.612,425.744C439.373,425.365 434.647,421.803 432.528,421.47C431.356,421.286 431.011,418.747 427.505,419.518C426.349,419.771 406.709,424.086 412.716,419.645C415.675,417.457 433.797,416.104 435.65,415.966Z" style="fill:rgb(198,164,140);"/>
            <path d="M455.118,291.713C462.467,289.382 496.029,290.429 498.267,290.865C510.753,293.301 463.305,292.701 460.642,293.269C458.669,293.052 458.799,293.009 456.777,293.047L455.63,292.323L455.118,291.713Z" style="fill:rgb(218,202,192);"/>
            <path d="M398.931,285.426C399.312,285.538 399.937,286.699 406.46,286.237C416.034,286.691 433.046,287.202 435.358,287.271L436.196,287.1L436.279,288.499L437.414,289.68C431.395,291.932 401.088,285.953 400.965,289.5C400.958,289.718 400.965,289.5 399.019,291.402L398.931,285.426Z" style="fill:rgb(173,133,104);"/>
            <path d="M623.574,291.619C614.773,293.664 599.527,290.303 590.961,292.5C590.771,292.318 587.081,288.771 590.462,289.259C595.438,289.976 633.498,287.357 623.574,291.619Z" style="fill:rgb(221,214,212);"/>
            <path d="M596.113,205.212C596.992,205.345 597.463,206.543 598.342,206.676C599.331,206.825 609.412,208.348 610.837,206.671C612.608,204.585 612.807,204.403 615.354,205.61C615.99,213.338 594.925,207.57 595.5,209.209C595.834,210.16 597.191,210.505 597.525,211.456C596.216,211.893 594.907,212.329 593.598,212.766C593.269,212.964 591.443,211.386 590.725,214.5C590.676,214.708 591.524,214.322 591.459,217.068C590.4,217.182 590.569,216.649 589.552,216.759C587.811,216.946 587.977,216.471 586.286,216.162C587.026,215.247 589.363,212.357 596.113,205.212Z" style="fill:rgb(198,168,150);"/>
            <path d="M592.441,466.713C594.42,466.967 608.023,468.716 617.381,466.801C660.284,465.689 609.29,470.541 608.521,470.562C607.81,470.432 607.1,470.303 606.39,470.174C605.017,469.905 605.203,470.339 604.426,471.356C599.348,471.147 582.408,468.125 590.47,467.113C591.135,467.029 591.776,466.796 592.441,466.713Z" style="fill:rgb(225,208,200);"/>
            <path d="M596.499,337.566C600.494,337.66 600.332,337.476 604.492,337.575C605.368,337.596 605.303,337.599 615.44,337.898C615.503,338.411 615.565,338.923 615.627,339.435C614.777,341.6 615.062,343.13 610.35,341.893C609.111,341.569 609.309,340.143 607.291,340.088C598.078,339.837 598.536,342.804 589.531,342.537C589.527,341.635 588.46,337.526 596.499,337.566Z" style="fill:rgb(217,206,204);"/>
            <path d="M575.82,246.444C576.324,246.613 576.164,247.625 576.668,247.794C577.878,248.198 591.022,244.773 596.73,249.631C590.569,251.135 590.371,247.968 584.417,250.215C583.374,250.609 583.406,250.127 570.471,250.385C569.752,250.399 569.807,250.336 561.504,249.733C566.271,243.422 568.212,248.299 575.82,246.444Z" style="fill:rgb(211,192,182);"/>
            <path d="M433.215,316.585C435.843,318.808 437.305,319.465 434.64,321.643C434.504,321.753 434.64,321.643 434.195,323.784C431.306,323.704 431.482,323.493 428.582,323.422C420.728,322.318 419.76,325.476 413.588,320.288C408.969,317.664 408.312,318.972 408.285,318.526C408.103,315.5 413.17,317.195 413.582,317.333C419.953,319.464 420.066,317.896 426.53,319.433C428.149,319.817 427.96,319.491 429.621,319.559C432.481,318.432 433.077,316.932 433.215,316.585Z" style="fill:rgb(193,161,137);"/>
            <path d="M399.074,308.336C401.45,308.865 401.35,308.582 429.417,310.637C434.332,310.233 434.155,310.398 434.565,310.35C435.184,312.38 434.643,312.457 434.474,312.481C421.475,314.321 402.151,311.958 399.362,311.617C398.631,310.05 398.985,310.194 399.074,308.336Z" style="fill:rgb(215,197,188);"/>
            <path d="M404.511,245.555C405.679,245.53 405.481,245.356 406.463,245.335C406.788,245.328 406.764,245.337 410.529,245.366C414.517,245.668 414.316,246.247 418.437,246.015C424.472,244.935 424.291,245.587 430.365,246.934C431.251,247.213 432.137,247.492 433.023,247.771C434.399,248.834 434.336,248.478 435.937,248.528C435.978,249.714 436.019,250.901 436.061,252.087C432.499,248.849 432.045,250.297 429.498,250.828C426.775,248.019 426.472,248.735 422.474,248.863C413.025,248.334 404.581,249.547 404.511,245.555Z" style="fill:rgb(187,157,141);"/>
            <path d="M530.496,335.484C530.307,336.299 529.865,338.898 526.145,341.214C525.179,339.795 525.853,337.975 519.5,338.287C499.941,339.248 499.929,339.125 498.314,339.651C497.709,338.934 497.104,338.217 496.5,337.5C499.034,336.577 498.854,336.219 501.499,336.449C515.993,337.712 515.804,335.352 530.496,335.484Z" style="fill:rgb(163,109,61);"/>
            <path d="M483.83,261.143C485.184,262.487 486.537,263.832 487.891,265.176C481.016,268.501 473.805,265.198 462.481,264.554C460.958,264.467 460.843,264.215 460.784,264.087C460.296,263.02 461.904,263.293 461.413,262.217C467.402,261.6 477.27,263.971 483.83,261.143Z" style="fill:rgb(206,177,157);"/>
            <path d="M589.559,270.709C619.088,270.69 624.484,271.315 627.5,271.665C626.471,273.041 626.349,273.813 615.455,273.125L610.546,273.26C608.878,273.278 590.75,273.465 589.694,273.333C587.822,273.098 588.631,272.423 589.559,270.709Z" style="fill:rgb(224,216,212);"/>
            <path d="M467.505,284.502C470.437,284.661 470.947,284.009 470.946,285.371C470.944,289.023 477.652,285.284 478.517,285.411C490.893,287.227 467.943,290.326 452.753,287.11C451.329,286.549 451.544,286.475 450.151,285.891C457.378,280.314 458.347,285.648 467.505,284.502Z" style="fill:rgb(212,189,175);"/>
            <path d="M440.717,299.521C440.606,308.735 440.499,308.701 440.497,309.5C437.892,311.314 437.704,310.199 434.565,310.35C434.155,310.398 434.332,310.233 429.417,310.637C429.273,306.76 429.165,306.496 429.496,306.495C435.735,306.488 441.786,309.121 437.537,304.463C437.316,304.22 437.273,304.891 433.434,304.736C429.996,304.598 430.781,303.172 428.387,301.761C436.962,301.611 437.185,301.925 439.5,299.551L440.717,299.521Z" style="fill:rgb(184,137,100);"/>
            <path d="M428.684,225.27C433.27,225.83 433.556,223.525 437.476,226.154C427.757,231.519 401.308,228.901 399.237,228.508L399.342,227.459C404.039,226.763 417.799,227.58 419.367,227.019C424.089,225.33 425.28,229.028 428.684,225.27Z" style="fill:rgb(207,189,183);"/>
            <path d="M417.801,188.119C410.562,191.105 403.251,190.435 399.281,191.457C399.557,190.757 402.028,184.486 405.479,184.397C412.409,184.217 413.024,183.128 417.801,188.119Z" style="fill:rgb(189,154,129);"/>
            <path d="M601.588,242.215C602.748,245.126 598.366,247.022 601.484,247.186C608.773,247.571 622.68,247.388 624.523,247.363L624.5,248.743C621.947,250.735 601.714,250.7 598.64,248.186C597.588,246.891 597.678,247.075 596.341,245.949C600.202,242.386 601.076,242.278 601.588,242.215Z" style="fill:rgb(224,223,223);"/>
            <path d="M398.947,255.396C409.521,258.275 424.172,251.16 432.482,257.352C416.124,257.581 416.037,256.189 409.498,258.521C408.706,258.804 408.723,258.573 399.007,259.318C398.987,258.011 398.967,256.703 398.947,255.396Z" style="fill:rgb(184,151,132);"/>
            <path d="M607.602,449.934C606.5,450.091 606.57,450.035 606.5,450.091C605.802,450.646 606.351,450.938 605.539,451.536C604.341,452.418 604.572,451.47 603.454,449.577C602.67,448.25 584.051,448.521 588.26,445.46C588.296,445.434 613.124,446.325 613.264,446.606C615.297,450.674 612.104,449.487 607.602,449.934Z" style="fill:rgb(226,221,221);"/>
            <path d="M539.641,275.803C543.537,275.946 547.796,275.692 548.504,275.65C551.532,275.606 551.317,275.634 554.496,275.527C563.046,275.508 562.85,275.477 571.439,275.625C571.455,275.643 571.442,275.623 572.581,277.549C569.995,277.665 543.932,278.839 540.229,277.779C538.209,277.201 539.649,275.828 539.641,275.803Z" style="fill:rgb(226,215,210);"/>
            <path d="M426.419,479.723C426.921,479.748 459.574,482.014 431.84,482.891C428.022,483.198 386.643,480.352 415.525,479.804C421.007,479.7 420.883,479.764 426.419,479.723Z" style="fill:rgb(226,208,195);"/>
            <path d="M611.489,307.269C601.91,312.708 601.37,310.714 587.032,309.507C593.167,307.013 592.88,305.81 599.415,306.765C602.276,307.183 610.523,307.26 611.489,307.269Z" style="fill:rgb(217,209,209);"/>
            <path d="M416.329,261.836C429.473,261.946 432.298,261.672 434.557,263.837C417.798,264.264 417.969,265.015 401.246,263.84C405.37,260.639 413.55,261.871 416.329,261.836Z" style="fill:rgb(219,206,197);"/>
            <path d="M429.498,250.828C432.045,250.297 432.499,248.849 436.061,252.087C431.094,261.261 442.925,247.551 451.429,253.806C449.058,255.23 438.599,256.835 425.661,252.453C427.381,250.915 427.165,250.365 429.498,250.828Z" style="fill:rgb(214,199,195);"/>
            <path d="M430.501,383.427C424.269,389.614 423.136,386.665 414.417,385.89C377.548,382.614 428.018,383.118 430.501,383.427Z" style="fill:rgb(220,199,188);"/>
            <path d="M571.549,255.316C571.395,259.423 569.865,258.451 565.701,259.105C564.606,258.992 552.876,257.784 552.645,254.741C552.563,253.664 570.041,255.184 571.549,255.316Z" style="fill:rgb(218,206,203);"/>
            <path d="M412.442,284.423C434.847,283.57 434.775,285.865 435.358,287.271C433.046,287.202 416.034,286.691 406.46,286.237C408.806,283.721 409.119,284.436 412.442,284.423Z" style="fill:rgb(225,216,213);"/>
            <path d="M534.347,294.312C540.877,294.778 555.693,294.476 557.548,294.438C572.191,296.274 541.388,298.62 535.567,296.3L534.347,294.312Z" style="fill:rgb(221,204,193);"/>
            <path d="M559.29,244.369C565.78,246.103 565.708,244.864 572.396,244.807L575.607,245.208L575.82,246.444C568.212,248.299 566.271,243.422 561.504,249.733C557.139,249.27 557.631,250.56 556.595,251.971C555.273,251.825 553.951,251.678 552.63,251.532C553.831,249.967 558.744,244.929 559.29,244.369Z" style="fill:rgb(184,149,125);"/>
            <path d="M582.675,274.856C581.774,274.867 581.806,275.061 571.439,275.625C562.85,275.477 563.046,275.508 554.496,275.527C554.903,273.882 554.521,273.703 555.494,273.473C559.757,272.466 559.182,271.656 559.533,271.596C563.458,270.921 562.941,273.069 565.522,273.408C574.213,274.549 574.399,272.136 582.675,274.856Z" style="fill:rgb(200,171,154);"/>
            <path d="M440.864,331.489L440.832,338.519C439.531,337.156 437.563,335.095 417.406,336.083C424.143,329.244 432.376,337.768 440.864,331.489Z" style="fill:rgb(192,156,129);"/>
            <path d="M401.553,460.937C424.998,459.395 425.37,463.23 425.557,465.171C424.188,465.396 422.253,465.715 408.371,462.84C404.18,461.972 402.053,465.061 401.553,460.937Z" style="fill:rgb(219,197,188);"/>
            <path d="M600.583,263.713C602.22,260.307 603.194,262.206 605.818,264.221C610.278,266.838 625.065,264.719 615.473,267.446C606.717,269.934 606.322,269.813 598.492,265.369C598.651,265.227 598.63,265.321 600.583,263.713Z" style="fill:rgb(219,210,210);"/>
            <path d="M413.588,320.288C419.76,325.476 420.728,322.318 428.582,323.422C427.139,325.617 426.564,324.408 424.225,325.259C422.477,328.273 421.844,324.249 418.438,324.403C414.436,324.583 414.602,324.721 414.267,324.729C413.528,324.459 412.584,324.114 404.521,323.446C405.877,318.126 408.852,322.79 413.588,320.288Z" style="fill:rgb(217,206,204);"/>
            <path d="M461.517,250.44C463.845,250.856 466.173,251.272 468.501,251.687L469.586,252.282C469.279,254.373 471.24,255.648 471.51,255.824C469.295,256.875 469.459,257.627 467.438,256.765C463.337,255.015 463.312,254.887 463.238,254.513C462.707,251.799 461.057,255.746 453.112,253.838C454.287,248.853 457.414,253.382 461.517,250.44Z" style="fill:rgb(209,189,176);"/>
            <path d="M627.8,350.483C627.781,351.044 628.029,350.873 627.799,357.506C623.554,356.734 623.75,356.805 619.536,356.526C619.533,356.424 621.385,354.711 619.39,352.54C617.065,350.008 624.062,347.68 627.8,350.483Z" style="fill:rgb(202,162,127);"/>
            <path d="M424.49,214.129C434.812,218.891 416.243,214.876 411.498,215.106C410.782,215.14 393.992,215.953 402.797,212.955C404.113,212.507 418.857,213.363 424.49,214.129Z" style="fill:rgb(212,203,203);"/>
            <path d="M402.061,433.928C400.309,431.238 400.084,431.362 400.309,431.238C400.521,431.121 400.85,430.94 403.338,431.135C421.939,432.592 421.923,432.086 423.418,432.687C433.862,436.883 403.766,434.087 402.061,433.928Z" style="fill:rgb(219,202,194);"/>
            <path d="M543.735,300.909C553.513,299.326 553.397,300.146 563.47,300.448C563.109,301.452 562.748,302.456 562.387,303.461C555.335,302.805 555.52,302.595 551.494,302.736C544.821,302.969 542.985,305.361 542.361,301.239C542.819,301.129 543.277,301.019 543.735,300.909Z" style="fill:rgb(170,119,83);"/>
            <path d="M402.615,364.359C402.021,364.073 401.427,363.786 400.833,363.5C401.197,361.964 401.019,361.613 402.533,361.56C413.999,361.158 417.184,358.925 417.568,365.85C410.079,364.691 410.251,364.613 402.615,364.359Z" style="fill:rgb(212,190,178);"/>
            <path d="M522.819,344.828C518.168,353.373 510.632,349.817 509.623,349.341C509.196,348.515 508.769,347.689 508.342,346.863C514.989,343.254 515.735,347.258 522.819,344.828Z" style="fill:rgb(175,120,76);"/>
            <path d="M533.524,296.667C535.76,302.023 539.18,298.461 542.512,299.38C543.141,299.553 543.106,300.735 543.735,300.909C543.277,301.019 542.819,301.129 542.361,301.239C533.891,301.367 533.094,301.124 532.325,300.89C524.366,298.467 519.373,302.502 521.528,297.23C522.487,297.296 531.047,297.884 533.524,296.667Z" style="fill:rgb(217,181,152);"/>
            <path d="M598.504,239.488C598.283,239.968 599.739,241.363 596.49,241.628C584.236,242.625 576.165,241.153 574.427,240.836C579.554,237.579 595.987,239.435 598.504,239.488Z" style="fill:rgb(203,180,165);"/>
            <path d="M398.732,436.567L398.685,437.514C398.712,440.178 398.74,442.841 398.767,445.505C398.718,450.845 398.67,456.185 398.621,461.525L398.568,462.5C397.762,461.5 396.955,460.5 396.149,459.499C396.148,454.164 396.148,448.829 396.148,443.494C397.497,439.843 397.14,439.93 398.732,436.567Z" style="fill:rgb(97,56,25);"/>
            <path d="M625.828,221.127C628.935,221.46 628.546,222.235 629.17,222.528L629.184,226.454C622.739,225.058 623.159,228.793 622.7,229.333C622.595,229.304 620.504,230.855 619.333,225.525C619.724,221.86 622.079,224.018 624.5,221.334L625.828,221.127Z" style="fill:rgb(201,172,152);"/>
            <path d="M607.565,429.343C607.752,435.322 601.72,428.494 598.591,431.807C595.723,434.843 588.984,431.33 588.248,430.947C588.615,429.44 589,427.859 607.565,429.343Z" style="fill:rgb(223,216,214);"/>
            <path d="M604.774,320.929C612.387,323.95 601.755,323.319 601.51,323.391C601.108,323.509 601.395,323.8 597.445,326.682C596.805,326.702 584.298,327.077 590.322,323.056C591.025,322.587 591.275,324.151 600.812,321.846C602.133,321.541 603.454,321.235 604.774,320.929Z" style="fill:rgb(216,207,206);"/>
            <path d="M575.607,245.208C591.642,245.408 591.621,244.983 596.341,245.949C597.678,247.075 597.588,246.891 598.64,248.186C598.003,248.668 597.367,249.149 596.73,249.631C591.022,244.773 577.878,248.198 576.668,247.794C576.164,247.625 576.324,246.613 575.82,246.444L575.607,245.208Z" style="fill:rgb(194,169,155);"/>
            <path d="M606.391,411.714C607.691,412.768 609.686,412.09 608.265,413.233C608.095,413.369 607.744,413.652 605.617,413.859C604.177,413.999 594.467,414.944 587.538,413.453C568.044,409.258 604.88,411.618 606.391,411.714Z" style="fill:rgb(234,233,235);"/>
            <path d="M552.504,286.524C551.056,286.496 466.381,284.874 534.55,284.216C551.074,284.057 551.777,285.271 552.504,286.524Z" style="fill:rgb(174,135,107);"/>
            <path d="M430.512,271.469C431.589,271.682 431.511,271.708 441.378,274.76C440.507,276.332 440.111,275.633 431.501,275.516C424.994,275.428 425.446,273.988 425.729,273.591C427.841,270.629 428.513,271.525 430.512,271.469Z" style="fill:rgb(190,150,123);"/>
            <path d="M470.077,245.989L471.176,246.842C466.218,249.348 466.133,248.247 460.53,248.543C453.057,248.53 452.784,247.908 452.583,248.511C451.353,252.201 450.005,250.615 447.586,248.216C450.503,248.312 450.489,248.3 452.508,246.129C453.906,245.978 453.898,247.082 470.077,245.989Z" style="fill:rgb(219,202,192);"/>
            <path d="M611.5,296.133C614.527,295.937 614.982,291.728 625.195,295.5C624.626,297.601 624.797,297.566 624.626,297.601C623.666,297.797 617.174,299.12 612.368,297.692C611.798,297.523 612.07,296.303 611.5,296.133Z" style="fill:rgb(213,194,183);"/>
            <path d="M411.468,425.535C412.362,425.004 416.447,422.579 424.414,426.665C417.391,431.513 412.224,428.492 411.468,425.535Z" style="fill:rgb(211,192,183);"/>
            <path d="M582.675,274.856C585.26,275.014 587.846,275.172 590.431,275.33C590.468,276.046 590.505,276.761 590.542,277.476C580.417,277.447 577.842,276.351 572.581,277.549C571.442,275.623 571.455,275.643 571.439,275.625C581.806,275.061 581.774,274.867 582.675,274.856Z" style="fill:rgb(221,207,197);"/>
            <path d="M492.171,284.012C497.82,287.861 500.514,283.21 504.413,287.887C503.206,287.931 422.932,290.456 489.499,285.482C491.684,285.319 491.192,284.551 492.171,284.012Z" style="fill:rgb(179,138,106);"/>
            <path d="M525.609,321.19C526.336,321.481 527.063,321.773 527.79,322.065C528.645,322.939 528.838,322.773 529.494,321.581C531.974,322.22 533.157,320.888 536.556,324.564C536.295,324.713 536.308,324.61 533.094,326.015C527.345,325.194 523.849,326.891 525.609,321.19Z" style="fill:rgb(203,162,130);"/>
            <path d="M447.488,271.528C452.188,271.713 451.942,271.844 456.55,272.005C453.037,274.818 452.784,276.554 447.551,273.5C443.198,270.959 442.849,272.179 442.514,271.921C438.59,268.904 443.833,268.564 447.488,271.528Z" style="fill:rgb(205,176,155);"/>
            <path d="M625.453,321.629C625.738,323.176 627.511,323.549 625.876,323.93C625.611,323.992 614.473,323.737 613.482,323.714C606.076,323.545 614.802,319.934 625.453,321.629Z" style="fill:rgb(220,207,203);"/>
            <path d="M424.463,342.963C424.501,343.73 424.54,344.497 424.578,345.264C422.622,346.364 422.5,345.743 410.702,344.208C390.769,341.614 423.358,342.919 424.463,342.963Z" style="fill:rgb(220,204,196);"/>
            <path d="M421.108,300.866C421.183,300.793 420.949,298.922 439.5,299.551C437.185,301.925 436.962,301.611 428.387,301.761C424.561,301.638 424.665,301.975 421.108,300.866Z" style="fill:rgb(148,104,82);"/>
            <path d="M579.324,223.27C584.948,225.042 584.96,224.327 590.904,225.311C591.305,227.243 585.966,227.136 584.488,227.537C576.697,227 577.436,225.338 577.179,225.246L579.324,223.27Z" style="fill:rgb(216,197,182);"/>
            <path d="M543.684,271.244C546.482,273.66 548.73,272.05 548.504,275.65C547.796,275.692 543.537,275.946 539.641,275.803C527.159,275.412 541.345,273.354 541.596,273.325C541.83,273.297 541.596,273.325 543.684,271.244Z" style="fill:rgb(208,178,152);"/>
            <path d="M407.469,234.225C408.682,229.521 418.714,230.021 419.582,234.321C413.414,234.73 413.617,234.607 407.469,234.225Z" style="fill:rgb(206,189,183);"/>
            <path d="M417.626,380.045C412.928,382.698 412.751,382.561 407.562,381.259C389.756,376.794 416.82,379.951 417.626,380.045Z" style="fill:rgb(181,144,118);"/>
            <path d="M424.463,342.963C431.918,343.491 431.73,343.899 439.166,344.5C436.36,346.824 435.996,345.718 426.489,345.62L424.578,345.264C424.54,344.497 424.501,343.73 424.463,342.963Z" style="fill:rgb(219,204,195);"/>
            <path d="M629.184,226.454L629.358,233.492C626.365,230.773 625.845,231.809 622.7,229.333C623.159,228.793 622.739,225.058 629.184,226.454Z" style="fill:rgb(193,150,108);"/>
            <path d="M562.415,241.412C563.004,241.662 562.911,242.744 563.5,242.994C565.004,243.633 569.95,241.712 570.483,241.505C571.12,242.606 571.758,243.706 572.396,244.807C565.708,244.864 565.78,246.103 559.29,244.369L562.415,241.412Z" style="fill:rgb(212,188,166);"/>
            <path d="M554.503,288.505C558.851,288.407 563.199,288.309 567.546,288.21C569.685,292.175 556.55,291.547 554.503,288.505Z" style="fill:rgb(181,135,101);"/>
            <path d="M402.523,401.24L401.5,400.19C401.5,399.703 400.5,399.611 400.5,399.123C400.5,398.761 413.048,395.791 411.451,402.079C406.999,401.174 407.131,401.284 402.523,401.24Z" style="fill:rgb(222,203,191);"/>
            <path d="M628.283,326.48C628.175,327.437 628.067,328.394 627.959,329.352C627.197,329.293 626.435,329.235 625.673,329.177C622.612,328.974 619.55,328.772 616.489,328.57C616.273,328.087 614.002,326.033 617.468,326.198C623.001,326.46 622.765,326.612 628.283,326.48Z" style="fill:rgb(162,117,89);"/>
            <path d="M433.473,361.639L434.519,361.871C437.741,362.879 437.569,363.263 440.888,362.506L440.864,365.508C438.499,365.338 438.723,365.152 436.484,364.991C435.988,364.955 436.024,364.972 430.274,364.741L429.428,364.578C429.894,363.466 429.685,363.575 430.563,362.725C432.183,362.361 431.989,362.39 433.473,361.639Z" style="fill:rgb(173,128,93);"/>
            <path d="M582.007,220.149C583.981,223.611 584.943,222.064 591.468,223.144L590.904,225.311C584.96,224.327 584.948,225.042 579.324,223.27L582.007,220.149Z" style="fill:rgb(188,158,139);"/>
            <path d="M558.473,280.237C563.793,280.548 563.558,280.309 568.695,279.733C577.044,278.795 559.97,287.557 558.473,280.237Z" style="fill:rgb(216,201,197);"/>
            <path d="M398.722,408.493C402.394,410.878 406.326,409.844 403.384,413.334C403.208,413.544 402.751,414.086 400.5,415.185C399.869,415.624 399.237,416.063 398.606,416.502C398.645,413.832 398.684,411.163 398.722,408.493Z" style="fill:rgb(195,156,126);"/>
            <path d="M620.564,219.366C620.209,219.698 621.29,220.443 620.935,220.775C619.803,221.835 594.685,221.03 613.306,219.219C617.075,218.852 616.866,218.944 620.564,219.366Z" style="fill:rgb(180,153,148);"/>
            <path d="M478.571,310.387C478.685,309.864 478.185,307.945 486.456,308.721C522.678,312.122 479.213,310.447 478.571,310.387Z" style="fill:rgb(219,206,204);"/>
            <path d="M405.886,405.221C407.219,406.093 417.439,409.066 413.521,409.532C407.113,410.294 403.264,410.959 405.886,405.221Z" style="fill:rgb(192,159,138);"/>
            <path d="M404.511,245.555C402.556,245.523 402.828,245.082 401.953,243.346C401.551,242.549 409.484,240.322 410.529,245.366C406.764,245.337 406.788,245.328 406.463,245.335C405.481,245.356 405.679,245.53 404.511,245.555Z" style="fill:rgb(197,181,180);"/>
            <path d="M623.817,439.997C624.893,440.203 624.759,440.002 625.792,439.697L626.234,439.418C626.059,440.107 625.885,440.797 625.71,441.487C625.673,442.152 625.635,442.817 625.597,443.482C621.133,441.445 621.138,441.955 616.273,441.682C615.085,441.615 615.237,439.504 615.489,439.462C616.576,439.278 623.153,439.931 623.817,439.997Z" style="fill:rgb(181,133,94);"/>
            <path d="M410.567,199.006C410.346,199.62 408.463,204.85 402.759,201.372C402.243,201.057 402.31,199.818 402.634,199.644C403.083,199.403 409.931,199.04 410.567,199.006Z" style="fill:rgb(205,192,188);"/>
            <path d="M620.462,242.262C628.644,242.494 628.439,242.351 629.131,242.396L629.115,244.609C623.907,244.066 624.112,243.892 618.676,244.044C618.698,242.44 619.016,242.554 620.462,242.262Z" style="fill:rgb(174,134,110);"/>
            <path d="M509.59,296.692C513.585,295.521 513.505,296.25 517.517,296.474C517.397,297.083 518.466,297.532 518.346,298.141C518.332,298.214 511.587,298.751 508.865,298.706C509.73,297.864 509.619,297.921 509.59,296.692Z" style="fill:rgb(217,182,149);"/>
            <path d="M424.773,348.579C426.35,348.318 433.305,345.305 434.745,349.878C429.591,349.785 429.609,350.327 424.773,348.579Z" style="fill:rgb(217,198,185);"/>
            <path d="M606.278,426.904C610.597,423.594 611.02,423.458 616.049,425.714C620.739,427.818 607.064,426.954 606.278,426.904Z" style="fill:rgb(234,225,214);"/>
            <path d="M617.791,449.893C618.598,447.245 618.008,447.288 618.188,444.412C618.482,439.703 625.733,449.201 619.64,449.942C619.493,449.959 619.64,449.942 617.791,449.893Z" style="fill:rgb(208,175,153);"/>
            <path d="M615.44,337.898C616.245,337.917 625.5,338.13 625.5,338.13C626.385,340.157 624.455,338.637 622.549,339.562C620.242,339.52 617.934,339.477 615.627,339.435C615.565,338.923 615.503,338.411 615.44,337.898Z" style="fill:rgb(222,204,194);"/>
            <path d="M428.895,330.053C425.658,331.098 425.946,331.587 422.451,331.699C418.515,327.061 426.201,328.588 428.895,330.053Z" style="fill:rgb(203,170,139);"/>
            <path d="M626.222,425.544L625.924,426.569C625.431,426.864 620.802,429.633 618.772,427.189C618.382,426.72 617.629,423.235 626.222,425.544Z" style="fill:rgb(221,197,178);"/>
            <path d="M605.014,317.557C607.589,317.199 609.236,314.248 614.448,318.448C609.43,318.699 609.214,320.297 605.014,317.557Z" style="fill:rgb(222,212,215);"/>
            <path d="M398.998,296.336C399.46,296.546 399.446,296.187 405.326,296.749C405.401,297.481 407.295,296.854 407.37,297.586C407.439,298.258 406.822,297.422 399.117,299.38C399.078,298.365 399.038,297.351 398.998,296.336Z" style="fill:rgb(178,137,106);"/>
            <path d="M511.477,306.34C518.645,306.188 518.685,306.196 519.299,306.318L519.279,307.87C514.161,308.855 511.79,311.439 511.477,306.34Z" style="fill:rgb(200,159,126);"/>
            <path d="M629.212,241.471L629.131,242.396C628.439,242.351 628.644,242.494 620.462,242.262C620.826,241.661 623.313,237.563 629.212,241.471Z" style="fill:rgb(210,182,164);"/>
            <path d="M425.542,395.66C431.916,395.642 432.029,395.247 432.413,395.641C433.141,396.388 431.559,396.557 432.301,397.319C427.762,398.208 425.263,400.409 425.542,395.66Z" style="fill:rgb(226,213,204);"/>
            <path d="M444.48,246.58C447.421,244.965 447.462,245.319 450.592,246.307L452.508,246.129C450.489,248.3 450.503,248.312 447.586,248.216C445.854,247.493 446,247.517 444.48,246.58Z" style="fill:rgb(212,198,194);"/>
            <path d="M432.395,430.169C433.449,430.536 434.503,430.903 435.557,431.269C435.68,433.671 435.791,434.034 433.509,434.478C431.589,432.825 432.398,430.196 432.395,430.169Z" style="fill:rgb(165,115,88);"/>
            <path d="M622.243,211.206C623.919,207.009 627.096,205.867 626.807,209.5C626.563,212.559 625.171,211.057 622.243,211.206Z" style="fill:rgb(204,179,167);"/>
            <path d="M620.454,414.124C616.424,415.76 614.905,413.868 615.72,412.567C617.924,409.051 618.867,412.276 620.454,414.124Z" style="fill:rgb(201,175,160);"/>
            <path d="M405.555,276.2C405.166,276.174 398.788,275.745 401.5,273.488C402.027,273.05 408.297,273.553 405.555,276.2Z" style="fill:rgb(206,186,182);"/>
            <path d="M609.773,279.135C607.532,274.69 612.884,277.748 613.132,277.891C626.461,285.508 610.04,279.24 609.773,279.135Z" style="fill:rgb(199,180,171);"/>
            <path d="M428.306,316.846C429.314,316.603 428.397,315.727 429.5,315.461C429.5,315.461 432.917,316.495 433.215,316.585C433.077,316.932 432.481,318.432 429.621,319.559C429.183,318.655 428.744,317.751 428.306,316.846Z" style="fill:rgb(202,171,150);"/>
            <path d="M440.733,286.654C440.738,286.697 440.736,286.655 440.653,290.463C439.984,290.095 439.315,289.727 438.646,289.359C437.857,289.072 437.068,288.786 436.279,288.499L436.196,287.1C438.464,286.598 438.243,286.575 440.733,286.654Z" style="fill:rgb(154,98,48);"/>
            <path d="M629.32,248.495L629.248,252.524C620.11,250.816 629.007,248.573 629.32,248.495Z" style="fill:rgb(196,160,118);"/>
            <path d="M430.563,362.725C429.685,363.575 429.894,363.466 429.428,364.578C429.106,364.54 412.583,362.589 426.518,361.771C426.85,361.751 426.818,361.841 430.563,362.725Z" style="fill:rgb(186,150,129);"/>
            <path d="M598.442,388.647C598.849,386.242 599.15,386.079 601.46,386.27C618.326,387.663 598.749,388.655 598.442,388.647Z" style="fill:rgb(204,188,178);"/>
            <path d="M517.568,330.34C517.047,333.728 515.68,332.391 512.505,331.472C511.225,329.488 514.017,329.818 517.568,330.34Z" style="fill:rgb(220,197,181);"/>
            <path d="M484.521,274.491C489.984,271.29 489.89,274.079 489.832,274.5C489.332,278.1 487.802,276.208 484.521,274.491Z" style="fill:rgb(206,184,180);"/>
            <path d="M421.544,399.531C419.539,401.033 418.728,400.598 418.503,400.478C418.414,400.43 416.902,395.075 421.544,399.531Z" style="fill:rgb(221,201,194);"/>
            <path d="M433.308,269.781C435.751,268.299 435.689,267.565 438.424,268.55C438.82,268.693 439.265,271.038 433.308,269.781Z" style="fill:rgb(198,164,137);"/>
            <path d="M456.777,293.047C458.799,293.009 458.669,293.052 460.642,293.269C460.268,294.909 460.033,294.703 459.702,296.334C459.381,296.189 457.614,295.39 456.777,293.047Z" style="fill:rgb(165,109,45);"/>
            <path d="M444.569,229.575C443.582,229.592 442.588,231.07 441.808,228.461C441.384,227.045 444.083,225.579 444.569,229.575Z" style="fill:rgb(176,137,117);"/>
            <path d="M627.449,364.497C629.653,370.378 627.538,372.594 627.319,373.474L627.449,364.497Z" style="fill:rgb(138,91,46);"/>
            <path d="M625.373,455.517C626.988,458.398 626.954,458.571 625.399,461.482L625.373,455.517Z" style="fill:rgb(131,81,48);"/>
            <path d="M609.519,350.747C609.667,350.648 609.713,349.297 611.596,349.37C622.64,349.795 609.718,350.747 609.519,350.747Z" style="fill:rgb(219,203,194);"/>
            <path d="M628.8,219.695L629.17,222.528C628.546,222.235 628.935,221.46 625.828,221.127C625.872,221.041 624.734,219.532 628.8,219.695Z" style="fill:rgb(161,110,68);"/>
            <path d="M425.281,437.213C427.493,436.513 428.493,439.343 426.285,438.925C426.129,438.896 426.285,438.925 425.281,437.213Z" style="fill:rgb(214,193,188);"/>
            <path d="M414.148,238.926C417.612,235.104 417.81,238.222 417.829,238.518C417.897,239.584 414.44,238.978 414.148,238.926Z" style="fill:rgb(212,206,214);"/>
            <path d="M425.661,252.453C423.395,253.587 421.799,254.988 422.313,252.442C422.548,251.279 422.995,251.911 425.661,252.453Z" style="fill:rgb(201,177,167);"/>
            <path d="M525.393,285.496C526.724,286.386 526.688,286.151 527.592,287.323C527.346,287.397 524.515,288.242 524.515,288.242C524.133,288.143 525.294,285.704 525.393,285.496Z" style="fill:rgb(197,142,102);"/>
            <path d="M597.525,211.456C596.296,213.427 595.967,212.741 593.598,212.766C594.907,212.329 596.216,211.893 597.525,211.456Z" style="fill:rgb(194,167,153);"/>
            <path d="M404.268,207.18C406.535,206.489 407.867,208.26 405.539,209.106C405.115,208.464 404.692,207.822 404.268,207.18Z" style="fill:rgb(201,171,124);"/>
            <path d="M625.578,450.514C625.691,450.83 626.99,454.471 626.99,454.471C626.882,455.104 625.48,454.884 625.373,455.517L625.578,450.514Z" style="fill:rgb(123,72,31);"/>
            <path d="M629.453,218.494C630.711,220.52 630.488,220.668 629.17,222.528L628.8,219.695C629.017,219.295 629.235,218.894 629.453,218.494Z" style="fill:rgb(139,83,28);"/>
            <path d="M442.827,224.07C447.225,223.177 445.798,225.521 445.581,225.654C445.364,225.787 445.377,225.537 442.827,224.07Z" style="fill:rgb(207,180,160);"/>
            <path d="M406.544,489.359C409.2,489.617 411.857,489.875 414.513,490.132C410.318,490.078 410.505,490.069 406.544,489.359Z" style="fill:rgb(134,83,36);"/>
            <path d="M432.735,376.107C434.774,377.173 436.541,377.666 434.413,378.391C434.198,378.464 434.413,378.391 432.735,376.107Z" style="fill:rgb(210,174,146);"/>
            <path d="M433.023,247.771C434.754,247.716 434.88,247.238 435.937,248.528C434.336,248.478 434.399,248.834 433.023,247.771Z" style="fill:rgb(206,184,173);"/>
            <path d="M558.531,285.324C561.482,283.458 561.735,284.136 561.734,284.403C561.734,284.403 558.787,285.25 558.531,285.324Z" style="fill:rgb(215,193,182);"/>
            <path d="M590.532,490.351L596.448,490.733C593.345,491.038 593.425,491.417 590.532,490.351Z" style="fill:rgb(162,105,49);"/>
            <path d="M626.656,402.512C627.222,405.102 627.086,404.885 627.081,407.579L626.441,406.51L626.656,402.512Z" style="fill:rgb(133,80,35);"/>
            <path d="M420.607,203.234C417.86,203.581 418.408,202.653 418.498,202.499C419.351,201.056 419.732,201.852 420.607,203.234Z" style="fill:rgb(196,170,151);"/>
            <path d="M626.441,406.51L627.081,407.579C626.898,408.883 626.716,410.187 626.533,411.49C626.502,409.83 626.471,408.17 626.441,406.51Z" style="fill:rgb(144,93,48);"/>
            <path d="M620.744,367.962C620.867,367.863 625.518,364.134 622.708,367.735C622.611,367.859 622.708,367.735 620.744,367.962Z" style="fill:rgb(214,180,145);"/>
            <path d="M596.518,265.18C593.859,266.508 594.002,266.698 593.859,266.508C593.716,266.318 593.534,265.696 596.518,265.18Z" style="fill:rgb(201,187,191);"/>
            <path d="M625.383,462.505L625.18,468.439C624.888,465.369 624.515,465.498 625.383,462.505Z" style="fill:rgb(166,108,47);"/>
            <path d="M576.446,234.77C575.879,235.287 575.312,235.804 574.745,236.321C574.902,235.871 573.831,235.56 573.988,235.111C574.366,234.027 575.444,233.877 575.606,233.854C576.435,233.739 575.588,234.889 576.446,234.77Z" style="fill:rgb(197,167,151);"/>
            <path d="M529.494,321.581C528.838,322.773 528.645,322.939 527.79,322.065C528.358,321.904 528.926,321.743 529.494,321.581Z" style="fill:rgb(206,164,124);"/>
            <path d="M527.792,309.068C529.001,309.567 528.657,309.684 529.482,310.63C528.919,310.109 528.356,309.588 527.792,309.068Z" style="fill:rgb(195,147,108);"/>
            <path d="M402.183,270.977C401.302,270.483 401.377,270.789 400.5,270.033C396.842,266.877 401.409,268.997 401.5,269.061C402.056,269.449 401.628,270.588 402.183,270.977Z" style="fill:rgb(206,187,177);"/>
            <path d="M606.39,470.174C605.735,470.568 605.08,470.962 604.426,471.356C605.203,470.339 605.017,469.905 606.39,470.174Z" style="fill:rgb(217,196,183);"/>
            <path d="M627.138,383.482C627.106,384.846 627.075,386.211 627.043,387.575C626.616,385.433 626.64,385.54 627.138,383.482Z" style="fill:rgb(149,88,25);"/>
            <path d="M508.342,346.863C508.769,347.689 509.196,348.515 509.623,349.341C508.996,348.582 508.368,347.823 507.74,347.063L508.342,346.863Z" style="fill:rgb(155,97,48);"/>
            <path d="M436.378,381.008C436.492,380.881 439.499,377.528 438.5,380.758C438.45,380.922 438.5,380.758 436.378,381.008Z" style="fill:rgb(189,145,114);"/>
            <path d="M415.516,490.147C417.613,489.858 417.43,489.858 419.48,490.154L415.516,490.147Z" style="fill:rgb(147,97,52);"/>
            <path d="M613.456,418.566C614.02,419.625 614.256,419.64 613.485,420.451C613.475,419.823 613.466,419.194 613.456,418.566Z" style="fill:rgb(206,187,177);"/>
            <path d="M627.551,360.51C627.911,362.068 627.874,361.976 627.399,363.514L627.443,361.495L627.551,360.51Z" style="fill:rgb(144,90,35);"/>
            <path d="M616.657,490.843L616.445,491.363L613.477,491.218C614.537,491.093 615.597,490.968 616.657,490.843Z" style="fill:rgb(160,105,45);"/>
            <path d="M625.71,441.487C625.98,443.035 626.051,442.905 625.681,444.479L625.597,443.482C625.635,442.817 625.673,442.152 625.71,441.487Z" style="fill:rgb(166,102,39);"/>
            <path d="M436.279,288.499C437.068,288.786 437.857,289.072 438.646,289.359L437.414,289.68L436.279,288.499Z" style="fill:rgb(177,125,81);"/>
            <path d="M403.335,318.656C402.594,318.014 402.966,317.973 403.5,317.234L403.335,318.656Z" style="fill:rgb(198,166,143);"/>
            <path d="M624.921,257.443C625.16,257.914 625.399,258.385 625.638,258.855L624.921,257.443Z" style="fill:rgb(213,194,184);"/>
            <path d="M616.657,490.843C617.308,490.786 617.958,490.73 618.609,490.674C617.887,490.904 617.166,491.133 616.445,491.363L616.657,490.843Z" style="fill:rgb(131,81,35);"/>
            <path d="M428.533,489.826L431.567,489.782C429.921,490.103 430.09,490.112 428.533,489.826Z" style="fill:rgb(151,104,62);"/>
            <path d="M597.533,486.688C598.439,484.601 598.298,484.717 598.439,484.601C601.192,482.333 597.65,486.549 597.533,486.688Z" style="fill:rgb(219,196,169);"/>
            <path d="M623.817,439.997L625.792,439.697C624.759,440.002 624.893,440.203 623.817,439.997Z" style="fill:rgb(185,128,70);"/>
            <path d="M505.858,347.005C506.485,347.024 507.113,347.044 507.74,347.063C507.113,347.044 506.485,347.024 505.858,347.005Z" style="fill:rgb(157,101,51);"/>
            <path d="M454.661,291.403L455.118,291.713L455.63,292.323C455.307,292.016 454.984,291.71 454.661,291.403Z" style="fill:rgb(158,109,63);"/>
        </g>
        <g>
            <path d="M583.251,286.592C582.518,379.597 580.267,448.677 581.467,485.494L580.483,486.471C569.019,488.751 560.689,480.681 542.513,485.15C540.584,485.624 537.694,483.938 532.458,484.781C531.592,484.19 528.064,481.78 519.471,482.969C510.576,481.956 510.201,486.442 502.475,482.558C502.291,479.355 500.66,479.685 498.478,481.987C497.804,481.833 498.175,480.31 497.5,480.156C496.488,479.924 489.214,481.372 488.5,481.514C486.604,481.819 486.598,480.938 464.511,482.265C462.816,482.367 444.918,481.059 442.435,481.49C444.666,466.127 445.266,461.997 445.178,287.453C449.258,286.048 450.15,290.704 477.244,319.709C503.931,348.279 508.068,364.978 528.412,343.414C580.918,287.76 580.621,286.933 583.251,286.592Z" style="fill:rgb(237,204,186);"/>
            <path d="M442.435,481.49C444.918,481.059 462.816,482.367 464.511,482.265C486.598,480.938 486.604,481.819 488.5,481.514C489.137,482.004 492.744,484.779 498.522,482.087L502.475,482.558C510.201,486.442 510.576,481.956 519.471,482.969C524.212,488.257 525.268,484.898 532.458,484.781C537.694,483.938 540.584,485.624 542.513,485.15C560.689,480.681 569.019,488.751 580.483,486.471C580.811,486.146 581.139,485.82 581.467,485.494C582.665,489.381 582.014,489.258 580.449,492.764C522.849,491.053 503.9,487.486 476.513,489.131C464.249,489.868 444.968,487.912 441.91,490.5C441.737,490.646 441.91,490.5 439.341,489.335C440.372,486.72 441.404,484.105 442.435,481.49Z" style="fill:rgb(192,137,104);"/>
            <path d="M320.487,479.702C322.634,481.118 322.767,482.158 325.492,480.39C332.748,482.93 333.068,480.088 340.473,481.822C342.94,482.399 346.711,480.409 347.471,480.826C347.75,480.979 347.244,481.475 350.509,483.397L351.475,484.557C344.291,488.495 335.93,481.743 339.655,489.071C330.571,489.311 308.214,485.373 297.508,486.516C298.991,483.459 298.815,483.25 296.489,480.56C297.746,479.877 316.614,480.206 320.487,479.702Z" style="fill:rgb(197,144,112);"/>
            <path d="M296.489,480.56C298.815,483.25 298.991,483.459 297.508,486.516C296.717,487.884 296.655,487.655 296.029,489.073C292.583,496.888 290.771,490.932 290.804,490.5C290.945,488.668 290.686,488.783 290.905,487.044C280.464,481.293 265.374,487.09 256.526,484.471C258.65,476.401 290.458,479.521 296.489,480.56Z" style="fill:rgb(196,150,125);"/>
            <path d="M351.475,484.557C355.041,486.81 356.285,489.285 356.547,489.807C354.867,489.909 353.186,490.012 351.506,490.114C350.56,490.005 346.509,489.539 339.655,489.071C335.93,481.743 344.291,488.495 351.475,484.557Z" style="fill:rgb(171,116,88);"/>
        </g>
        <g>
            <path d="M622.506,185.459C614.904,182.905 615.335,185.93 609.128,191.162C602.556,198.214 602.743,198.156 596.113,205.212C589.363,212.357 587.026,215.247 586.286,216.162C584.86,217.491 583.433,218.82 582.007,220.149L579.324,223.27L577.179,225.246C576.069,226.6 576.077,226.515 562.415,241.412L559.29,244.369C558.744,244.929 553.831,249.967 552.63,251.532C543.067,262.966 542.099,261.853 526.138,280.101L524.141,282.309C519.359,287.013 520.229,287.855 514.477,291.074C514.311,291.061 513.247,292.443 507.517,287.473C502.244,281.636 492.734,270.985 491.451,269.549L489.645,268.275C489.134,266.443 489.162,266.657 487.891,265.176C486.537,263.832 485.184,262.487 483.83,261.143C482.913,259.921 482.587,260.283 471.176,246.842L470.077,245.989C468.979,244.765 458.384,232.952 456.131,230.882C439.896,212.456 439.985,212.404 438.694,211.291C436.559,209.641 424.12,194.635 422.891,193.153L421.965,192.193C420.577,190.835 419.189,189.477 417.801,188.119C413.024,183.128 412.409,184.217 405.479,184.397C402.028,184.486 399.557,190.757 399.281,191.457L399.162,203.397C399.194,204.537 398.548,280.541 396.747,217.451C396.39,204.919 392.513,179.642 411.509,180.129C424.973,180.474 509.062,289.585 515.49,286.485C519.735,284.437 609.218,182.776 617.492,181.394C636.695,178.186 632.211,207.938 631.73,239.504C631.657,244.307 631.492,269.86 631.475,272.499C631.396,284.901 631.199,315.398 628.916,427.499C624.802,421.758 628.803,420.892 626.623,412.485L626.533,411.49C626.716,410.187 626.898,408.883 627.081,407.579C627.086,404.885 627.222,405.102 626.656,402.512L626.599,400.576C626.686,399.87 626.772,399.164 626.859,398.457C626.876,397.654 626.69,397.674 626.727,388.414L627.043,387.575C627.075,386.211 627.106,384.846 627.138,383.482C626.932,379.654 627.269,374.273 627.319,373.474C627.538,372.594 629.653,370.378 627.449,364.497L627.399,363.514C627.874,361.976 627.911,362.068 627.551,360.51L627.799,357.506C628.029,350.873 627.781,351.044 627.8,350.483C628.269,340.969 627.745,331.768 627.959,329.352C628.067,328.394 628.175,327.437 628.283,326.48C628.557,312.499 628.52,302.576 628.512,300.497C629.082,272.885 628.986,272.913 629.076,270.516L629.187,263.431C629.153,262.559 628.999,258.629 629.248,252.524L629.32,248.495L629.115,244.609L629.131,242.396L629.212,241.471C629.266,240.138 629.319,238.804 629.373,237.47L629.358,233.492L629.184,226.454L629.17,222.528C630.488,220.668 630.711,220.52 629.453,218.494L629.477,215.499C629.526,207.166 629.522,207.219 629.53,206.5C629.574,202.485 629.77,202.669 629.815,198.62C630,189.841 629.733,187.936 622.506,185.459Z" style="fill:rgb(56,37,42);"/>
            <path d="M442.454,283.452C444.19,283.047 443.961,282.849 445.904,283.004C445.009,285.227 445.094,285.04 445.178,287.453C445.266,461.997 444.666,466.127 442.435,481.49C441.404,484.105 440.372,486.72 439.341,489.335C434.866,494.219 433.967,495.2 356.547,489.807C356.285,489.285 355.041,486.81 351.475,484.557L350.509,483.397C355.846,477.817 387.74,483.733 395.74,481.631C396.139,474.405 396.133,474.568 396.149,459.499C396.955,460.5 397.762,461.5 398.568,462.5C398.562,481.648 396.596,486.11 406.544,489.359C410.505,490.069 410.318,490.078 414.513,490.132L415.516,490.147L419.48,490.154C422.498,490.045 425.516,489.936 428.533,489.826C430.09,490.112 429.921,490.103 431.567,489.782C442.726,491.6 440.376,460.687 440.345,453.511C440.262,449.03 440.382,449.064 440.462,397.494L440.48,385.5C440.44,381.552 440.495,381.639 440.864,365.508L440.888,362.506C440.633,353.995 440.768,354.185 440.724,345.522C440.688,343.855 440.651,342.189 440.615,340.523L440.832,338.519L440.864,331.489L440.794,328.477C440.802,326.959 440.856,315.517 440.497,309.5C440.499,308.701 440.606,308.735 440.717,299.521C440.814,294.829 440.837,295.006 440.653,290.463C440.736,286.655 440.738,286.697 440.733,286.654C441.506,285.008 441.575,285.262 442.454,283.452Z" style="fill:rgb(89,59,46);"/>
            <path d="M584.668,284.129C587.474,287.316 586.123,287.822 586.455,297.5C586.35,299.81 586.246,302.12 586.142,304.429C586.22,307.156 585.998,307.057 587.032,309.507C586.719,312.168 586.407,314.83 586.094,317.492C585.955,320.827 585.816,324.163 585.677,327.498C585.525,337.014 585.804,336.851 585.606,346.496C585.544,357.635 585.488,357.478 585.257,368.483L585.147,381.455C585.081,385.471 585.015,389.486 584.95,393.501L584.95,398.476C584.737,405.725 584.836,415.323 584.342,426.49C584.313,427.16 584.392,427.831 584.363,428.501L584.305,438.531C584.219,444.84 584.133,451.149 584.047,457.457C583.812,480.524 581.613,487.874 590.532,490.351C593.425,491.417 593.345,491.038 596.448,490.733C605.005,491.069 604.786,490.722 613.477,491.218L616.445,491.363C617.166,491.133 617.887,490.904 618.609,490.674C620.077,488.142 621.33,487.897 621.657,487.833C623.304,487.51 624.271,483.872 624.789,482.665C625.245,481.199 625.033,481.406 624.985,479.265C625.05,475.657 625.115,472.048 625.18,468.439L625.383,462.505L625.399,461.482C626.954,458.571 626.988,458.398 625.373,455.517C625.48,454.884 626.882,455.104 626.99,454.471C626.99,454.471 625.691,450.83 625.578,450.514L625.681,444.479C626.051,442.905 625.98,443.035 625.71,441.487C625.885,440.797 626.059,440.107 626.234,439.418C626.138,438.394 625.318,429.702 625.924,426.569L626.222,425.544L626.34,421.465C625.922,414.555 626.392,413.166 626.623,412.485C628.803,420.892 624.802,421.758 628.916,427.499C627.544,465.306 629.991,492.859 619.506,493.598C605.6,494.579 583.566,492.989 580.449,492.764C582.014,489.258 582.665,489.381 581.467,485.494C580.267,448.677 582.518,379.597 583.251,286.592C583.723,285.771 584.196,284.95 584.668,284.129Z" style="fill:rgb(58,40,31);"/>
            <path d="M398.602,219.423C399.509,223.057 399.14,222.928 399.342,227.459L399.237,228.508L399.101,234.296C398.947,235.653 398.79,237.036 399.014,251.367C398.992,252.71 398.969,254.053 398.947,255.396C398.967,256.703 398.987,258.011 399.007,259.318C398.968,262.396 398.93,265.474 398.891,268.552C398.928,269.901 399.163,278.383 398.931,285.426L399.019,291.402C399.012,293.047 399.005,294.692 398.998,296.336C399.038,297.351 399.078,298.365 399.117,299.38C398.858,303.926 398.967,303.762 399.074,308.336C398.985,310.194 398.631,310.05 399.362,311.617C399.065,319.224 396.822,348.439 400.501,348.499C407.005,348.604 406.806,348.59 413.496,348.609C417.995,348.622 420.983,347.106 419.473,351.37C417.97,351.348 401.858,351.114 400.684,350.872C396.697,350.05 398.843,352.73 398.751,362.53L398.809,373.581C399.751,383.011 398.09,382.938 398.923,392.32L398.814,396.581C398.783,400.551 398.753,404.522 398.722,408.493C398.684,411.163 398.645,413.832 398.606,416.502C398.648,423.19 398.69,429.879 398.732,436.567C397.14,439.93 397.497,439.843 396.148,443.494C396.116,425.546 395.75,219.227 397.071,219.143C397.589,219.11 398.085,219.456 398.602,219.423Z" style="fill:rgb(80,50,36);"/>
            <path d="M445.904,283.004C448.139,284.293 448.023,284.101 450.151,285.891C451.544,286.475 451.329,286.549 452.753,287.11C452.993,289.519 453.3,289.268 454.661,291.403C454.984,291.71 455.307,292.016 455.63,292.323L456.777,293.047C457.614,295.39 459.381,296.189 459.702,296.334C461.482,298.273 461.361,298.22 463.359,299.787L464.783,300.057C464.894,301.667 465.059,304.052 477.199,315.956L477.624,316.255C479.745,318.288 481.005,320.093 481.259,320.457C484.313,324.191 484.187,324.142 485.042,324.935C486.504,326.486 487.966,328.038 489.427,329.589C493.038,333.699 492.805,333.595 496.5,337.5C497.104,338.217 497.709,338.934 498.314,339.651C498.904,340.253 503.753,345.191 505.858,347.005C506.485,347.024 507.113,347.044 507.74,347.063C508.368,347.823 508.996,348.582 509.623,349.341C510.632,349.817 518.168,353.373 522.819,344.828C524.996,343.228 524.926,343.397 526.145,341.214C529.865,338.898 530.307,336.299 530.496,335.484C535.118,334.582 542.361,324.218 544.509,321.515C545.61,320.713 550.638,317.052 556.426,309.364C559.702,306.628 559.434,306.526 562.387,303.461C562.748,302.456 563.109,301.452 563.47,300.448C567.979,298.548 570.854,293.968 571.306,293.247C577.749,289.055 576.976,284.093 584.299,283.918L584.668,284.129C584.196,284.95 583.723,285.771 583.251,286.592C580.621,286.933 580.918,287.76 528.412,343.414C508.068,364.978 503.931,348.279 477.244,319.709C450.15,290.704 449.258,286.048 445.178,287.453C445.094,285.04 445.009,285.227 445.904,283.004Z" style="fill:rgb(65,38,27);"/>
        </g>
    </g>
</svg>
