<svg clip-rule="evenodd" fill-rule="evenodd" stroke-linejoin="round" stroke-miterlimit="2" viewBox="0 0 1536 864" xmlns="http://www.w3.org/2000/svg"><g transform="scale(1.5)"><path d="m1023.999 52.5v523.499c-4.434 2.792-4.967 0-65.499 0h-958.5c-2.59-3.68 0-8.999 0-13.499v-29c.355-.158 2.546-1.132 4.537-1.717 2.122-.624 2.602-2.801 4.042-.283.16.279 4.238 1.336 9.903-.084 3.56-.892 5.008 1.752 5.791-1.191.986-3.707 2.658-4.587-.852-6.362-.162-.082-2.704-4.577-4.919-4.05-4.605 1.096-4.435 1.005-9.002 1.042-.227.001 0 0-2.043 1.967-3.126-1.265-3.322-2.683-5.917-.462l-1.54.14v-522.5c11.288-2.09 11.355 0 143.5 0h880.499c2.417 3.435 0 3.945 0 52.5z" fill="#e8b697"/><path d="m425.542 395.66c-.279 4.749 2.22 2.548 6.759 1.659 4.544 2.682 7.624.547 8.161.175-.08 51.57-.2 51.536-.117 56.017.031 7.176 2.381 38.089-8.778 36.271l-3.034.044c-3.017.11-6.035.219-9.053.328-2.05-.296-1.867-.296-3.964-.007l-1.003-.015c-2.656-.257-5.313-.515-7.969-.773-9.948-3.249-7.982-7.711-7.976-26.859l.053-.975c.049-5.34.097-10.68.146-16.02-.027-2.664-.055-5.327-.082-7.991l.047-.947c-.042-6.688-.084-13.377-.126-20.065.631-.439 1.263-.878 1.894-1.317 2.251-1.099 2.708-1.641 2.884-1.851 2.942-3.49-.99-2.456-4.662-4.841.031-3.971.061-7.942.092-11.912 2.122-.274 8.381-1.082 26.728-.921z" fill="#ccac95"/><path d="m584.95 398.476.051.043c1.945.629 3.564 1.153 25.536 1.105.862 8.882 17.257-1.055 11.662 5.793-1.809 2.215-2.725-1.875-4.999.06-.47.399.899 1.4.429 1.8 4.2.543 6.201-1.944 6.581 2.223.337 3.699-.043 4.255-3.756 4.624-1.965 5.1 2.297 3.238 5.886 7.341l-.118 4.079c-8.593-2.309-7.84 1.176-7.45 1.645 2.03 2.444 6.659-.325 7.152-.62-.606 3.133.214 11.825.31 12.849l-.442.279-1.975.3c-.664-.066-7.241-.719-8.328-.535-.252.042-.404 2.153.784 2.22 4.865.273 4.86-.237 9.324 1.8l.084.997-.103 6.035-.205 5.003.026 5.965-.016 1.023c-.868 2.993-.495 2.864-.203 5.934-.065 3.609-.13 7.218-.195 10.826-2.493.248-7.895.446-8.582.472l-.996-.053c-1.91-.144-14.955-1.121-23.822-2.456.924-3.89 15.294-1.127 23.981-1.578.334-.017 2.945-2.94-3.085-2.806-4.538.101-4.43.184-4.815.174-.496-1.554-.737-1.852.855-2.456.769-.021 51.763-4.873 8.86-3.761-.475-2.894-.919-3.03-1.173-3.107-.282-.087-6.671-2.041-2.351-2.839 2.27-.419 6.199-3.754 1.744-3.633-2.841.077-11.314-6.058-17.444 2.236-.351-.341-1.947-4.824-14.11-2.001.086-6.308.172-12.617.258-18.926 1.378-1.347 5.903-5.769 23.944-2.646 2.719-5.874 11.434-2.354 8.057-5.166-.544-.453-.64-.101-8.741-1.376-18.565-1.484-18.95.097-19.317 1.604-.367.01-1.748.047-3.885-2.446.029-.67-.05-1.341-.021-2.011.494-11.167.395-20.765.608-28.014z" fill="#d3bcae"/><path d="m440.497 309.5c.359 6.017.305 17.459.297 18.977l.07 3.012c-8.488 6.279-16.721-2.245-23.458 4.594-11.929-.423.908 3.033 1.166 3.094 11.019 2.625 10.907 2.349 22.043 1.346.036 1.666.073 3.332.109 4.999.044 8.663-.091 8.473.164 16.984-3.319.757-3.147.373-6.369-.635 7.954-5.931-16.346-3.956-15.003-6.362 1.461-2.618 16.809.353 17.924-.057 13.36-4.913-4.121-1.125-17.967-4.082 1.51-4.264-1.478-2.748-5.977-2.761-6.69-.019-6.491-.005-12.995-.11-3.679-.06-1.436-29.275-1.139-36.882 2.789.341 22.113 2.704 35.112.864.169-.024.71-.101.091-2.131 3.139-.151 3.327.964 5.932-.85z" fill="#c2a086"/><path d="m471.176 246.842c11.411 13.441 11.737 13.079 12.654 14.301-6.56 2.828-16.428.457-22.417 1.074.491 1.076-1.117.803-.629 1.87.059.128.174.38 1.697.467 11.324.644 18.535 3.947 25.41.622 1.271 1.481 1.243 1.267 1.754 3.099-2.973.684-3.027-.385-38.102 1.436-2.758.143-4.072-1.147-4.055 1.817-3.655-2.964-8.898-2.624-4.974.393.335.258.684-.962 5.037 1.579 5.233 3.054 5.486 1.318 8.999-1.495 17.718-.33 17.662-1.046 19.201-1.05 8.55.023 9.869 4.837 15.7-1.406 1.283 1.436 10.793 12.087 16.066 17.924-1.722-.136-1.56-.061-3.104.414-3.899-4.677-6.593-.026-12.242-3.875.147-8.61-18.27-3.379-21.677-6.298-.854-.732-.983-.052-13.975-1.447-3.596-.387-3.071 1.069-3.372 2.545-3.398-.02-3.365 5.89-4.391 2.582-1.236-3.988-2.162-3.15-6.193-3.976-8.022 2.295-26.862-.214-29.176-.523-2.958-2.134-3.025-.08-6.676.672-1.85 2.274-3.29-.482-5.211 1.857-4.696 5.719 7.469-.423 10.942 4.999-3.323.013-3.636-.702-5.982 1.814-6.523.462-7.148-.699-7.529-.811.232-7.043-.003-15.525-.04-16.874 8.495-4.783 10.494-.644 33.595-1.907.904-.05.864-.157 11.295-.84-1.993-3.38-4.826-2.033-9.224-1.968-2.259-2.165-5.084-1.891-18.228-2.001 1.233-1.846 1.084-2.494 7.161-2.542 20.244-.159 38.655.177 42.015.238 8.713-.38 14.076 2.585 10.996-3.032-1.514-2.763-2.135-1.858-4.991-.676-.27-.176-2.231-1.451-1.924-3.542-.362-.199-.723-.397-1.085-.595-2.328-.415-4.656-.831-6.984-1.247l-.987-1.897c5.603-.296 5.688.805 10.646-1.701z" fill="#c8aa98"/><path d="m552.63 251.532c1.321.146 2.643.293 3.965.439 1.111.062 13.892.775 13.892.775 2.411.13 2.005.771 4.267 1.641-1.564.751-1.423.887-3.205.929-1.508-.132-18.986-1.652-18.904-.575.231 3.043 11.961 4.251 13.056 4.364-.74 1.078-1.48 2.157-2.22 3.235-8.117.88-7.945.688-16.013 1.119-.105.337-.21.674-.315 1.011 2.435.89 2.474.905 32.38 1.332-5.215 3.558-5.616 1.407-16.059 1.332-3.435 5.721-44.729-.905-19.79 4.11-2.088 2.081-1.854 2.053-2.088 2.081-.251.029-14.437 2.087-1.955 2.478.008.025-1.432 1.398.588 1.976 3.703 1.06 29.766-.114 32.352-.23 5.261-1.198 7.836-.102 17.961-.073-.037-.715-.074-1.43-.111-2.146 11.055-.024 18.065 1.41 20.115-2.07l4.909-.135c-.011.646-.061 3.595 1.355 7.958.027.082 19.241 4.203 6.683 3.496-11.227-.632-11.057-.258-22.332.48-.54.443-1.081.887-1.621 1.331-6.973-2.515-7.948.073-13.708-4.508 3.483-3.142-6.677-6.277-7.288.601-.281 3.171-8.49 1.173-10.998 5.727-4.347.099-8.695.197-13.043.295-1.982.054-19.567 1.09-25.607-.435l-1.304-.747c-.904-1.172-.868-.937-2.199-1.827-.032-.622-.113-.579-1.252-3.187l1.997-2.208c15.961-18.248 16.929-17.135 26.492-28.569z" fill="#d0b9a9"/><path d="m398.751 362.53c.694.324 1.388.647 2.082.97.594.286 1.188.573 1.782.859-5.02 10.257 4.122 5.607 22.222 7.749 1.023.121 16.288 1.928 12.714-2.039-.893-.992-9.646 3.929-8.401-3.813.375-.505.749-1.01 1.124-1.515 5.75.231 5.714.214 6.21.25 2.239.161 2.015.347 4.38.517-.369 16.131-.424 16.044-.384 19.992l-.018 11.994c-.537.372-3.617 2.507-8.161-.175-.742-.762.84-.931.112-1.678-.384-.394-.497.001-6.871.019-18.347-.161-24.606.647-26.728.921l.109-4.261c-.833-9.382.828-9.309-.114-18.739z" fill="#c8a68d"/><path d="m517.517 296.474c2.202.332 2.019.298 4.011.756-2.155 5.272 2.838 1.237 10.797 3.66.769.234 1.566.477 10.036.349.624 4.122 2.46 1.73 9.133 1.497 4.026-.141 3.841.069 10.893.725-2.953 3.065-2.685 3.167-5.961 5.903-13.843-1.371-13.758-.718-32.608-3.45-.166.014-.278.214-.444.228-.325.027-.302.013-4.075.176-.614-.122-.654-.13-7.822.022-2.434 2.254-2.741 3.367.251 4.507 2.831 1.078 8.183-4.486 9.037 2.069-2.203.393-8.643-.102-9.393-.16-.946-.072-6.164-.473-11.858-.069-7.504.533-7.386.01-14.806.291-5.977.227-5.2 2.062-7.509 2.978-12.14-11.904-12.305-14.289-12.416-15.899 2.649.307 2.795 1.16 4.709-.574 0 0 6.458-.533 7.019-.579 29.29.882 29.598 1.868 32.354-.198 2.722.045 9.467-.492 9.481-.565.12-.609-.949-1.058-.829-1.667z" fill="#c9a78e"/><path d="m585.677 327.498c4.026.747 3.828 1.04 7.054 3.696 1.715 1.413 1.934.37 27.771.337 1.723-.785 3.447-1.569 5.171-2.354.762.058 1.524.116 2.286.175-.214 2.416.31 11.617-.159 21.131-3.738-2.803-10.735-.475-8.41 2.057 1.995 2.171.143 3.884.146 3.986.007.628.013 1.255.019 1.883-13.03-.293-13.109.63-13.992-.057-5.609-4.369 2.599-.317 9.347-2.412 12.131-3.764-15.996-2.437-17.4-2.37l-.002-1.07c-7.047-1.436-8.22.122-11.902-6.004.198-9.645-.081-9.482.071-18.998z" fill="#ccb7ab"/><path d="m629.076 270.516c-.09 2.397.006 2.369-.564 29.981-5.318 5.096-31.432 1.452-34.138 1.075-.663 1.608-.602 1.585-.869 1.941-3.822-.23-3.885-.879-7.363.916.104-2.309.208-4.619.313-6.929-.332-9.678 1.019-10.184-1.787-13.371l-.369-.211c.511-.679 1.022-1.357 1.533-2.036 5.76 4.581 6.735 1.993 13.708 4.508.54-.444 1.081-.888 1.621-1.331 11.275-.738 11.105-1.112 22.332-.48 12.558.707-6.656-3.414-6.683-3.496-1.416-4.363-1.366-7.312-1.355-7.958 10.894.688 11.016-.084 12.045-1.46.525-.383 1.051-.766 1.576-1.149z" fill="#cdb9ac"/><path d="m456.131 230.882c2.253 2.07 12.848 13.883 13.946 15.107-16.179 1.093-16.171-.011-17.569.14l-1.916.178c-3.13-.988-3.171-1.342-6.112.273-6.918-2.688-7.129-2.441-14.115.354-6.074-1.347-5.893-1.999-11.928-.919-4.121.232-3.92-.347-7.908-.649-1.045-5.044-8.978-2.817-8.576-2.02.875 1.736.603 2.177 2.558 2.209.07 3.992 8.514 2.779 17.963 3.308-8.588 5.847-15.192-.551-23.46 2.504-.224-14.331-.067-15.714.087-17.071 4.285.635 4.113.247 8.368-.071 6.148.382 5.945.505 12.113.096 6.225-.17 6.482.509 7.865-.878 1.634-1.641.852-2.046 1.033-2.092 4.532-1.153 4.538 1.356 18.735.511 5.16 1.238 8.056-.831 8.916-.98z" fill="#ccb8af"/><path d="m628.512 300.497c.008 2.079.045 12.002-.229 25.983-5.518.132-5.282-.02-10.815-.282-3.466-.165-1.195 1.889-.979 2.372-13.541-2.019-17.514-1.924-19.044-1.888 3.95-2.882 3.663-3.173 4.065-3.291.245-.072 10.877.559 3.264-2.462-1.32.306-2.641.612-3.962.917-5.19-6.327-8.273.497-14.718-4.354.313-2.662.625-5.324.938-7.985 14.338 1.207 14.878 3.201 24.457-2.238 54.919 1.476-15.907-3.034-17.984-3.756.267-.356.206-.333.869-1.941 2.706.377 28.82 4.021 34.138-1.075z" fill="#cfb9ab"/><path d="m453.147 278.812c.301-1.476-.224-2.932 3.372-2.545 12.992 1.395 13.121.715 13.975 1.447 3.407 2.919 21.824-2.312 21.677 6.298-.979.539-.487 1.307-2.672 1.47-66.567 4.974 13.707 2.449 14.914 2.405 1.544-.475 1.382-.55 3.104-.414 5.73 4.97 6.794 3.588 6.96 3.601-.866 1.305-.628 1.215-1.611 2.426-1.524 1.88 3.457-.502 21.481.812l1.22 1.988-2.043.367c-2.477 1.217-11.037.629-11.996.563-1.992-.458-1.809-.424-4.011-.756-4.012-.224-3.932-.953-7.927.218-2.065-.213-24.951-2.568-25.879-1.87-3.417 2.571-4.02 1.196-7.2 4.082-.561.046-7.019.579-7.019.579-1.914 1.734-2.06.881-4.709.574l-1.424-.27c-1.998-1.567-1.877-1.514-3.657-3.453.331-1.631.566-1.425.94-3.065 2.663-.568 50.111.032 37.625-2.404-2.238-.436-35.8-1.483-43.149.848l-.457-.31c-1.361-2.135-1.668-1.884-1.908-4.293 15.19 3.216 38.14.117 25.764-1.699-.865-.127-7.573 3.612-7.571-.04.001-1.362-.509-.71-3.441-.869-2.51-3.794-3.983-.871-8.06-2.797-.541.131-1.082.261-1.622.392-3.059-.598-3.225-.488-4.676-3.285z" fill="#cbac96"/><path d="m584.047 457.457c12.163-2.823 13.759 1.66 14.11 2.001-3.91 2.773-3.83 2.795-5.716 7.255-.665.083-1.306.316-1.971.4-8.062 1.012 8.878 4.034 13.956 4.243.654-.394 1.309-.788 1.964-1.182.71.129 1.42.258 2.131.388-1.592.604-1.351.902-.855 2.456.385.01.277-.073 4.815-.174 6.03-.134 3.419 2.789 3.085 2.806-8.687.451-23.057-2.312-23.981 1.578-3.895.559-3.337 1.572-3.085 1.698.338.169 1.376.688 3.011 3.642.957.117 1.914.233 2.871.35.574-.304 5.047-2.668 8.07-.878 6.164 3.65 9.96-.453 22.337.625-.518 1.207-1.485 4.845-3.132 5.168-.327.064-1.58.309-3.048 2.841-.651.056-1.301.112-1.952.169-1.06.125-2.12.25-3.18.375-8.691-.496-8.472-.149-17.029-.485l-5.916-.382c-8.919-2.477-6.72-9.827-6.485-32.894z" fill="#d3baab"/><path d="m585.606 346.496c3.682 6.126 4.855 4.568 11.902 6.004l.002 1.07c-7.442.933-12.079-1.354-9.95 5.93.862 2.948-.213 4.325 2.921 4.319 30.461-.061 31.41 2.679 36.962-2.324l-.044 2.019.05.983-.13 8.977c-.05.799-.387 6.18-.181 10.008-.498 2.058-.522 1.951-.095 4.093l-.316.839c-2.224-1.773-14.137 2.346-18.12-.071-2.858-1.735 6.324-1.799 6.895-1.804.298-.002 13.999-.098 2.008-3.137l-1.864.733c-5.226-2.839-5.088-2.828-11.23-3.378 2.089-1.902 1.863-1.901 2.089-1.902 6.89-.031 6.788-.109 9.713-1.603 2.671-1.364 4.16-.553 3.598-3.562 4.551-1.745 5.661-.587 5.45-2.19-.293-2.217-1.422-.897-27.803-2.85-.809-.548-5.045-3.417-12.206-.167.231-11.005.287-10.848.349-21.987z" fill="#c7a78e"/><path d="m417.801 188.119c1.388 1.358 2.776 2.716 4.164 4.074l.926.96c1.229 1.482 13.668 16.488 15.803 18.138-10.34-1.502-23.241 1.284-13.231-2.04 2.595-.862 5.487-.422 3.04-1.752-1.515-.823-1.576-.306-3.058-1.123-4.15.081-4.307 1.303-7.914-.897-5.807-3.542-9.003.363-18.369-2.082l.119-11.94c3.97-1.022 11.281-.352 18.52-3.338z" fill="#c2a89b"/><path d="m597.525 211.456c3.046.094 2.82-.007 5.981-.168 7.334 7.691 20.963-2.948 24.415 4.212 0 0 1.432-.001 1.556-.001l-.024 2.995c-.218.4-.436.801-.653 1.201-4.066-.163-2.928 1.346-2.972 1.432l-1.328.207c-2.421 2.684-4.776.526-5.167 4.191-2.761 2.18-2.988.989-6.451.559-.447-.091-5.589-1.148-5.589-1.148-.741-.488-.184-3.184-13.687-1.908-.713.038-1.426.077-2.138.116-6.525-1.08-7.487.467-9.461-2.995 1.426-1.329 2.853-2.658 4.279-3.987 1.691.309 1.525.784 3.266.597 1.017-.11.848.423 1.907.309.065-2.746-.783-2.36-.734-2.568.718-3.114 2.544-1.536 2.873-1.734 2.369-.025 2.698.661 3.927-1.31z" fill="#d2c2bc"/><path d="m591.468 223.144c.712-.039 1.425-.078 2.138-.116 13.503-1.276 12.946 1.42 13.687 1.908 0 0 5.142 1.057 5.589 1.148-.412.803.099 1.887-.312 2.69-.237.461-5.127-2.208-7.145.582l-.986.855c-18.611.111-18.567.694-26.866-.384-2.497-.325-.491.867.106 1.673 1.17 1.582 2.574 2.773 2.825 2.986-2.673.597-3.74.355-4.058.284-.858.119-.011-1.031-.84-.916-.162.023-1.24.173-1.618 1.257-.157.449.914.76.757 1.21 7.73 2.261 69.098-.336 48.258-2.273-.68-2.249-.36-4.342-.303-4.715 3.145 2.476 3.665 1.44 6.658 4.159l.015 3.978c-9.525 2.201-24.504 1.35-30.869 2.018-2.517-.053-18.95-1.909-24.077 1.348-2.165-.085-2.046-.14-3.944.669-.533.207-5.479 2.128-6.983 1.489-.589-.25-.496-1.332-1.085-1.582 13.662-14.897 13.654-14.812 14.764-16.166.257.092-.482 1.754 7.309 2.291 1.478-.401 6.817-.294 6.416-2.226z" fill="#cdb5a6"/><path d="m601.588 242.215c8.697.658 8.468 1.473 17.088 1.829 5.436-.152 5.231.022 10.439.565l.205 3.886c-.313.078-9.21 2.321-.072 4.029-.249 6.105-.095 10.035-.061 10.907l-.687-.99c-8.942-2.109-8.996-.968-9.753-1.179-10.958-3.047 6.307-2.428 6.891-2.407-.239-.47-.478-.941-.717-1.412-2.469-1.487-2.566-.964-8.419-1.884-4.937-4.355-5.513-2.55-11.983-3.114-3.295-.287-13.822.034-15.024.071-9.071.277-10.525 2.63-11.009 3.414-2.098-.45-1.997-.207-3.732-1.543-2.262-.87-1.856-1.511-4.267-1.641 0 0-12.781-.713-13.892-.775 1.036-1.411.544-2.701 4.909-2.238 8.303.603 8.248.666 8.967.652 12.935-.258 12.903.224 13.946-.17 5.954-2.247 6.152.92 12.313-.584.637-.482 1.273-.963 1.91-1.445 3.074 2.514 23.307 2.549 25.86.557.008-.46.015-.92.023-1.38-1.843.025-15.75.208-23.039-.177-3.118-.164 1.264-2.06.104-4.971z" fill="#cebcb3"/><path d="m438.694 211.291c1.291 1.113 1.202 1.165 17.437 19.591-.86.149-3.756 2.218-8.916.98-14.197.845-14.203-1.664-18.735-.511-.181.046.601.451-1.033 2.092-1.383 1.387-1.64.708-7.865.878-.868-4.3-10.9-4.8-12.113-.096-4.255.318-4.083.706-8.368.071l.136-5.788c2.071.393 28.52 3.011 38.239-2.354 2.766-.291 3.055-.062 3.984-2.514-5.514-1.523-4.543-3.424-10.071-4.89-.09-7.551 5.306-5.169 5.894-5.413.765-.317.646-1.728 1.411-2.046z" fill="#bf9f8b"/><path d="m585.257 368.483c7.161-3.25 11.397-.381 12.206.167 26.381 1.953 27.51.633 27.803 2.85.211 1.603-.899.445-5.45 2.19.562 3.009-.927 2.198-3.598 3.562-2.925 1.494-2.823 1.572-9.713 1.603-.226.001 0 0-2.089 1.902-9.614.928-9.47.078-19.269.698z" fill="#dad0cd"/><path d="m419.473 351.37c13.846 2.957 31.327-.831 17.967 4.082-1.115.41-16.463-2.561-17.924.057-1.343 2.406 22.957.431 15.003 6.362l-1.046-.232c-1.484.751-1.29.722-2.91 1.086-3.745-.884-3.713-.974-4.045-.954-13.935.818 2.588 2.769 2.91 2.807l.846.163c-.375.505-.749 1.01-1.124 1.515-5.969-.096-5.749-.578-11.582-.406-.384-6.925-3.569-4.692-15.035-4.29-1.514.053-1.336.404-1.7 1.94-.694-.323-1.388-.646-2.082-.97.092-9.8-2.054-12.48 1.933-11.658 1.174.242 17.286.476 18.789.498z" fill="#cfb6a6"/><path d="m539.507 320.52c4.634.927 4.616.864 5.002.995-2.148 2.703-9.391 13.067-14.013 13.969-14.692-.132-14.503 2.228-28.997.965-2.645-.23-2.465.128-4.999 1.051-3.695-3.905-3.462-3.801-7.073-7.911 9.735-3.156 9.882-.784 20.133-1.3l10.928.095c9.459-.139 11.21 2.35 12.606-2.369 3.214-1.405 3.201-1.302 3.462-1.451 2.706-1.2 3.438-1.079 2.951-4.044z" fill="#c0946e"/><path d="m437.414 289.68 1.232-.321 2.007 1.104c.184 4.543.161 4.366.064 9.058l-1.217.03c-18.551-.629-18.317 1.242-18.392 1.315-.276-.01-9.092-.328-1.661-3.028-1.997-1.634-2.69-1.384-2.931-1.296-1.791.647-8.619-1.192-10.018-1.133-.593.025-.579 1.315-1.172 1.34-5.88-.562-5.866-.203-6.328-.413.007-1.644.014-3.289.021-4.934 1.946-1.902 1.939-1.684 1.946-1.902.123-3.547 30.43 2.432 36.449.18z" fill="#ccb19f"/><path d="m604.416 380.757c6.142.55 6.004.539 11.23 3.378.621-.244 1.243-.488 1.864-.733 11.991 3.039-1.71 3.135-2.008 3.137-.571.005-9.753.069-6.895 1.804 3.983 2.417 15.896-1.702 18.12.071-4.732 5.992-10.044.315-18.225 4.355-.326.161-18.324-.426-19.917-.478-2.076-.567-2.176-.466-3.635 1.21.065-4.015.131-8.03.197-12.046 9.799-.62 9.655.23 19.269-.698z" fill="#dacec9"/><path d="m597.51 353.57c1.404-.067 29.531-1.394 17.4 2.37-6.748 2.095-14.956-1.957-9.347 2.412.883.687.962-.236 13.992.057-.006-.628-.012-1.255-.019-1.883 4.214.279 4.018.208 8.263.98l-.248 3.004-.108.985c-5.552 5.003-6.501 2.263-36.962 2.324-3.134.006-2.059-1.371-2.921-4.319-2.129-7.284 2.508-4.997 9.95-5.93z" fill="#d9cdc9"/><path d="m405.326 296.749c.593-.025.579-1.315 1.172-1.34 1.399-.059 8.227 1.78 10.018 1.133.241-.088.934-.338 2.931 1.296-7.431 2.7 1.385 3.018 1.661 3.028 3.557 1.109 3.453.772 7.279.895 2.394 1.411 1.609 2.837 5.047 2.975 3.839.155 3.882-.516 4.103-.273 4.249 4.658-1.802 2.025-8.041 2.032-.331.001-.223.265-.079 4.142-28.067-2.055-27.967-1.772-30.343-2.301-.107-4.574-.216-4.41.043-8.956 7.705-1.958 8.322-1.122 8.253-1.794-.075-.732-1.969-.105-2.044-.837z" fill="#c9afa0"/><path d="m523.818 305.914c18.85 2.732 18.765 2.079 32.608 3.45-5.788 7.688-10.816 11.349-11.917 12.151-.386-.131-.368-.068-5.002-.995-26.213-3.461-28.346 1.212-31.01-3.964 19.457-1.525 19.757-.782 22.164-2.664 7.291 1.029 28.818-.753 13.717-2.157-7.54-.701-7.37-.8-14.896-1.105-.825-.946-.481-1.063-1.69-1.562-7.991-.995-7.826-1.173-8.513-1.198l.02-1.552c3.773-.163 3.75-.149 4.075-.176.166-.014.278-.214.444-.228z" fill="#b8865b"/><path d="m579.533 265.802c6.235 1.301 12.838-1.367 11.633.745-.892 1.563-1.649.609-2.719 2.119-4.583-.283-4.553-.295-4.95-.305-.305-.008-12.092.865-1.213 3.615 3.766.952 3.475-1.718 7.275-1.267-.928 1.714-1.737 2.389.135 2.624 1.056.132 19.184-.055 20.852-.073-2.05 3.48-9.06 2.046-20.115 2.07-2.585-.158-5.171-.316-7.756-.474-8.276-2.72-8.462-.307-17.153-1.448-2.581-.339-2.064-2.487-5.989-1.812-.351.06.224.87-4.039 1.877-.973.23-.591.409-.998 2.054-3.179.107-2.964.079-5.992.123.226-3.6-2.022-1.99-4.82-4.406-24.939-5.015 16.355 1.611 19.79-4.11 10.443.075 10.844 2.226 16.059-1.332z" fill="#d4c1b7"/><path d="m422.474 248.863c3.998-.128 4.301-.844 7.024 1.965-2.333-.463-2.117.087-3.837 1.625 12.938 4.382 23.397 2.777 25.768 1.353.561.011 1.122.022 1.683.032 7.945 1.908 9.595-2.039 10.126.675.074.374.099.502 4.2 2.252 2.021.862 1.857.11 4.072-.941 2.856-1.182 3.477-2.087 4.991.676 3.08 5.617-2.283 2.652-10.996 3.032-4.121-3.434-5.109-2.049-33.023-2.18-8.31-6.192-22.961.923-33.535-1.956.022-1.343.045-2.686.067-4.029 8.268-3.055 14.872 3.343 23.46-2.504z" fill="#cdbab0"/><path d="m609.128 191.162c3.799 4.171 4.649-.117 10.42.459 22.99 2.298-10.841 4.344-11.048 4.678-1.978 3.19 7.27.1 16.78 2.898.784 2.618 3.537 3.066.974 4.209-2.117.944-2.35-1.707-7.744.103-1.954.656-1.417 1.193-3.156 2.101-2.547-1.207-2.746-1.025-4.517 1.061-1.425 1.677-11.506.154-12.495.005-.879-.133-1.35-1.331-2.229-1.464 6.63-7.056 6.443-6.998 13.015-14.05z" fill="#cbb6aa"/><path d="m619.333 225.525c1.171 5.33 3.262 3.779 3.367 3.808-.057.373-.377 2.466.303 4.715-14.509.758-14.435.422-42.499.438-.251-.213-1.655-1.404-2.825-2.986-.597-.806-2.603-1.998-.106-1.673 8.299 1.078 8.255.495 26.866.384.328-.285.657-.57.986-.855 2.018-2.79 6.908-.121 7.145-.582.411-.803-.1-1.887.312-2.69 3.463.43 3.69 1.621 6.451-.559z" fill="#d9ceca"/><path d="m629.187 263.431-.111 7.085c-.525.383-1.051.766-1.576 1.149-3.016-.35-8.412-.975-37.941-.956-3.8-.451-3.509 2.219-7.275 1.267-10.879-2.75.908-3.623 1.213-3.615.397.01.367.022 4.95.305 6.654.023 9.972 3.325 10.045-3.297 7.83 4.444 8.225 4.565 16.981 2.077 9.592-2.727-5.195-.608-9.655-3.225 1.48-1.586 1.562-1.306 3.684-1.204 1.205.057.52-4.599 3.024-2.6.604.482.469 1.504.935 2.119.488.646.687-.003 10.036 1.273 2.796.382 2.907.562 5.003-1.368z" fill="#c6a996"/><path d="m629.815 198.62c-.045 4.049-.241 3.865-.285 7.88-.008.719-.004.666-.053 8.999-.124 0-1.556.001-1.556.001-3.452-7.16-17.081 3.479-24.415-4.212-3.161.161-2.935.262-5.981.168-.334-.951-1.691-1.296-2.025-2.247-.575-1.639 20.49 4.129 19.854-3.599 1.739-.908 1.202-1.445 3.156-2.101 5.394-1.81 5.627.841 7.744-.103 2.563-1.143-.19-1.591-.974-4.209 2.455-.353 2.223-.325 4.535-.577z" fill="#c8b0a3"/><path d="m616.502 255.559c5.853.92 5.95.397 8.419 1.884l.717 1.412c-.584-.021-17.849-.64-6.891 2.407.757.211.811-.93 9.753 1.179-2.096 1.93-2.207 1.75-5.003 1.368-9.349-1.276-9.548-.627-10.036-1.273-.466-.615-.331-1.637-.935-2.119-2.504-1.999-1.819 2.657-3.024 2.6-2.122-.102-2.204-.382-3.684 1.204-2.624-2.015-3.598-3.914-5.235-.508-3.644-.957-12.404.492-16.82.217-.218-.379 1.347-1.405-1.113-1.936-1.122-.242-1.105-.133-1.226-.394-3.139-6.776 30.035-.343 25.965-4.828.733-.056 8.019-.61 9.113-1.213z" fill="#d6c9c6"/><path d="m598.157 459.458c6.13-8.294 14.603-2.159 17.444-2.236 4.455-.121.526 3.214-1.744 3.633-4.32.798 2.069 2.752 2.351 2.839.254.077.698.213 1.173 3.107-9.358 1.915-22.961.166-24.94-.088 1.886-4.46 1.806-4.482 5.716-7.255z" fill="#d5baab"/><path d="m522.626 321.202c.994-.004 1.988-.008 2.983-.012-1.76 5.701 1.736 4.004 7.485 4.825-1.396 4.719-3.147 2.23-12.606 2.369l-10.928-.095c-10.251.516-10.398-1.856-20.133 1.3-1.461-1.551-2.923-3.103-4.385-4.654 5.591-3.421 5.881-1.178 12.402-.933 24.361.915 24.908-.791 25.182-2.8z" fill="#ccab91"/><path d="m629.373 237.47c-.054 1.334-.107 2.668-.161 4.001-5.899-3.908-8.386.19-8.75.791-1.446.292-1.764.178-1.786 1.782-8.62-.356-8.391-1.171-17.088-1.829-.512.063-1.386.171-5.247 3.734-4.72-.966-4.699-.541-20.734-.741l-3.211-.401c-.638-1.101-1.276-2.201-1.913-3.302 1.898-.809 1.779-.754 3.944-.669 1.738.317 9.809 1.789 22.063.792 3.249-.265 1.793-1.66 2.014-2.14 6.365-.668 21.344.183 30.869-2.018z" fill="#d1c2ba"/><path d="m413.387 276.895c.417 8.103 26.111-2.662 29.067 6.557-.879 1.81-.948 1.556-1.721 3.202-2.49-.079-2.269-.056-4.537.446l-.838.171c-.583-1.406-.511-3.701-22.916-2.848-3.473-5.422-15.638.72-10.942-4.999 1.921-2.339 3.361.417 5.211-1.857 3.651-.752 3.718-2.806 6.676-.672z" fill="#ceb5a4"/><path d="m615.627 339.435c2.307.042 4.615.085 6.922.127 1.582 2.962 4.837 1.774 3.385 4.938-2.991 6.515-8.015.614-20.068 4-.439.123-3.075-.623-3.376-.952-.328-.361.767-2.818-7.079-2.599-3.983.11-5.929 1.687-5.88-2.412 9.005.267 8.547-2.7 17.76-2.449 2.018.055 1.82 1.481 3.059 1.805 4.712 1.237 4.427-.293 5.277-2.458z" fill="#d7c9c3"/><path d="m586.094 317.492c6.445 4.851 9.528-1.973 14.718 4.354-9.537 2.305-9.787.741-10.49 1.21-6.024 4.021 6.483 3.646 7.123 3.626 1.53-.036 5.503-.131 19.044 1.888 3.061.202 6.123.404 9.184.607-1.724.785-3.448 1.569-5.171 2.354-25.837.033-26.056 1.076-27.771-.337-3.226-2.656-3.028-2.949-7.054-3.696.139-3.335.278-6.671.417-10.006z" fill="#d8cfcd"/><path d="m585.832 281.882c-.511.679-1.022 1.357-1.533 2.036-7.323.175-6.55 5.137-12.993 9.329-4.831-.859-11.699-.543-12.716-.496-24.519-3.997-28.841 2.35-29.694-4.681 6.04 1.525 23.625.489 25.607.435 2.047 3.042 15.182 3.67 13.043-.295 2.508-4.554 10.717-2.556 10.998-5.727.611-6.878 10.771-3.743 7.288-.601z" fill="#caa688"/><path d="m477.624 316.255c.022.008 14.333.728 30.873.301 2.664 5.176 4.797.503 31.01 3.964.487 2.965-.245 2.844-2.951 4.044-3.399-3.676-4.582-2.344-7.062-2.983-.568.162-1.136.323-1.704.484-.727-.292-1.454-.584-2.181-.875-.995.004-1.989.008-2.983.012-38.095-.835-38.063-.548-41.367-.745-.254-.364-1.514-2.169-3.635-4.202z" fill="#bc9171"/><path d="m626.727 388.414c-.037 9.26.149 9.24.132 10.043-1.823-1.127-35.31-5.28-41.858.062l-.051-.043v-4.975c1.459-1.676 1.559-1.777 3.635-1.21 1.593.052 19.591.639 19.917.478 8.181-4.04 13.493 1.637 18.225-4.355z" fill="#c9ab97"/><path d="m622.506 185.459c7.227 2.477 7.494 4.382 7.309 13.161-2.312.252-2.08.224-4.535.577-9.51-2.798-18.758.292-16.78-2.898.207-.334 34.038-2.38 11.048-4.678-5.771-.576-6.621 3.712-10.42-.459 6.207-5.232 5.776-8.257 13.378-5.703z" fill="#cebbb0"/><path d="m402.615 364.359c7.636.254 7.464.332 14.953 1.491 5.833-.172 5.613.31 11.582.406-1.245 7.742 7.508 2.821 8.401 3.813 3.574 3.967-11.691 2.16-12.714 2.039-18.1-2.142-27.242 2.508-22.222-7.749z" fill="#ceb09d"/><path d="m524.141 282.309c1.139 2.608 1.22 2.565 1.252 3.187-.099.208-1.26 2.647-.878 2.746 0 0 2.831-.845 3.077-.919l1.304.747c.853 7.031 5.175.684 29.694 4.681-.347.563-.695 1.125-1.042 1.687-1.855.038-16.671.34-23.201-.126-18.024-1.314-23.005 1.068-21.481-.812.983-1.211.745-1.121 1.611-2.426 5.752-3.219 4.882-4.061 9.664-8.765z" fill="#c18d5c"/><path d="m574.754 254.387c1.735 1.336 1.634 1.093 3.732 1.543 2.309-.129 2.102.104 28.903.842 4.07 4.485-29.104-1.948-25.965 4.828.121.261.104.152 1.226.394 2.46.531.895 1.557 1.113 1.936-1.448.215-1.197-1.235-18.28-.77-1.276.034-.926-.38-2.002-.82.74-1.078 1.48-2.157 2.22-3.235 4.164-.654 5.694.318 5.848-3.789 1.782-.042 1.641-.178 3.205-.929z" fill="#cdbbb6"/><path d="m407.37 447.323c19.102 1.053 19.129 1.43 21.07.735.412-.148 1.456-3.17 1.744-.414.52 4.967-2.355 3.378-2.264 3.713.381 1.396 1.653.834 1.184 1.694-1.619 2.974-.258 5.088-3.567 4.387-4.27-.905-3.714 1.18-4.034 1.086-8.1-2.368-15.545 1.028-16.3-.572-3.087-6.537 13.181 1.558 10.662-5.784-1.754-5.113-5.908-.184-8.495-4.845z" fill="#d9c2b6"/><path d="m432.482 257.352c27.914.131 28.902-1.254 33.023 2.18-3.36-.061-21.771-.397-42.015-.238-6.077.048-5.928.696-7.161 2.542-2.779.035-10.959-1.197-15.083 2.004-.766-2.34-2.013-4.187-2.239-4.522 9.716-.745 9.699-.514 10.491-.797 6.539-2.332 6.626-.94 22.984-1.169z" fill="#d4c2b7"/><path d="m520.765 312.916c6.016-.062 6.258-1.287 9.896.976-2.407 1.882-2.707 1.139-22.164 2.664-16.54.427-30.851-.293-30.873-.301l-.425-.299c2.309-.916 1.532-2.751 7.509-2.978 7.42-.281 7.302.242 14.806-.291 5.694-.404 10.912-.003 11.858.069.75.058 7.19.553 9.393.16z" fill="#ddd1cb"/><path d="m498.314 339.651c1.615-.526 1.627-.403 21.186-1.364 6.353-.312 5.679 1.508 6.645 2.927-1.219 2.183-1.149 2.014-3.326 3.614-7.084 2.43-7.83-1.574-14.477 2.035l-.602.2c-.627-.019-1.255-.039-1.882-.058-2.105-1.814-6.954-6.752-7.544-7.354z" fill="#c69c78"/><path d="m413.387 276.895c2.314.309 21.154 2.818 29.176.523 4.031.826 4.957-.012 6.193 3.976 1.026 3.308.993-2.602 4.391-2.582 1.451 2.797 1.617 2.687 4.676 3.285.54-.131 1.081-.261 1.622-.392 4.077 1.926 5.55-.997 8.06 2.797-9.158 1.146-10.127-4.188-17.354 1.389-2.128-1.79-2.012-1.598-4.247-2.887-1.943-.155-1.714.043-3.45.448-2.956-9.219-28.65 1.546-29.067-6.557z" fill="#c09672"/><path d="m591.585 477.228c8.867 1.335 21.912 2.312 23.822 2.456.332.017.664.035.996.053.687-.026 6.089-.224 8.582-.472.048 2.141.26 1.934-.196 3.4-12.377-1.078-16.173 3.025-22.337-.625-3.023-1.79-7.496.574-8.07.878-.957-.117-1.914-.233-2.871-.35-1.635-2.954-2.673-3.473-3.011-3.642-.252-.126-.81-1.139 3.085-1.698z" fill="#ddcabf"/><path d="m558.59 292.751c1.017-.047 7.885-.363 12.716.496-.452.721-3.327 5.301-7.836 7.201-10.073-.302-9.957-1.122-19.735.461-.629-.174-.594-1.356-1.223-1.529-3.332-.919-6.752 2.643-8.988-2.713l2.043-.367c5.821 2.32 36.624-.026 21.981-1.862.347-.562.695-1.124 1.042-1.687z" fill="#c39d7d"/><path d="m431.389 218.75c5.528 1.466 4.557 3.367 10.071 4.89-.929 2.452-1.218 2.223-3.984 2.514-3.92-2.629-4.206-.324-8.792-.884-10.742-6.116-26.709 6.133-25.406-2.782.383-2.617 1.419-2.564 3.281-.833.049.045 1.505 4.575 3.979.099 5.787-.401 6.19 1.906 11.037-1.483.651-.455.73.112 9.814-1.521z" fill="#cdbab2"/><path d="m430.365 246.934c6.986-2.795 7.197-3.042 14.115-.354 1.52.937 1.374.913 3.106 1.636 2.419 2.399 3.767 3.985 4.997.295.201-.603.474.019 7.947.032l.987 1.897c-4.103 2.942-7.23-1.587-8.405 3.398-.561-.01-1.122-.021-1.683-.032-8.504-6.255-20.335 7.455-15.368-1.719-.042-1.186-.083-2.373-.124-3.559-1.057-1.29-1.183-.812-2.914-.757-.886-.279-1.772-.558-2.658-.837z" fill="#c6aa9d"/><path d="m563.481 262.34c1.076.44.726.854 2.002.82 17.083-.465 16.832.985 18.28.77 4.416.275 13.176-1.174 16.82-.217-1.953 1.608-1.932 1.514-2.091 1.656-.073 6.622-3.391 3.32-10.045 3.297 1.07-1.51 1.827-.556 2.719-2.119 1.205-2.112-5.398.556-11.633-.745-29.906-.427-29.945-.442-32.38-1.332l.315-1.011c8.068-.431 7.896-.239 16.013-1.119z" fill="#dfd8d6"/><path d="m414.267 324.729c.335-.008.169-.146 4.171-.326 3.406-.154 4.039 3.87 5.787.856.391.161-.126 1.081.265 1.242 7.101 2.925 16.754 3.366 8.999 3.939-3.25.24-3.149-.265-4.594-.387-2.694-1.465-10.38-2.992-6.444 1.646-1.376.164-2.751.329-4.126.493.32-4.168-22.329.021-16.825-5.586 1.525-1.554 10.433 1.468 12.767-1.877z" fill="#cfb8ad"/><path d="m584.363 428.501c2.137 2.493 3.518 2.456 3.885 2.446.736.383 7.475 3.896 10.343.86 3.129-3.313 9.161 3.515 8.974-2.464 8.101 1.275 8.197.923 8.741 1.376 3.377 2.812-5.338-.708-8.057 5.166-18.041-3.123-22.566 1.299-23.944 2.646z" fill="#d4c2ba"/><path d="m585.001 398.519c6.548-5.342 40.035-1.189 41.858-.062-.087.707-.173 1.413-.26 2.119-8.026-.797-7.845-.735-16.062-.952-21.972.048-23.591-.476-25.536-1.105z" fill="#e1d7d1"/><path d="m578.486 255.93c.484-.784 1.938-3.137 11.009-3.414 1.202-.037 11.729-.358 15.024-.071 6.47.564 7.046-1.241 11.983 3.114-1.094.603-8.38 1.157-9.113 1.213-26.801-.738-26.594-.971-28.903-.842z" fill="#dad5d7"/><path d="m509.59 296.692c.029 1.229.14 1.172-.725 2.014-2.756 2.066-3.064 1.08-32.354.198 3.18-2.886 3.783-1.511 7.2-4.082.928-.698 23.814 1.657 25.879 1.87z" fill="#d9c7be"/><path d="m610.537 399.624c8.217.217 8.036.155 16.062.952l.057 1.936-.215 3.998c.03 1.66.061 3.32.092 4.98l.09.995c-.231.681-.701 2.07-.283 8.98-3.589-4.103-7.851-2.241-5.886-7.341 3.713-.369 4.093-.925 3.756-4.624-.38-4.167-2.381-1.68-6.581-2.223.47-.4-.899-1.401-.429-1.8 2.274-1.935 3.19 2.155 4.999-.06 5.595-6.848-10.8 3.089-11.662-5.793z" fill="#bf9571"/><path d="m428.306 316.846c.438.905.877 1.809 1.315 2.713-1.661-.068-1.472.258-3.091-.126-6.464-1.537-6.577.031-12.948-2.1-.412-.138-5.479-1.833-5.297 1.193.027.446.684-.862 5.303 1.762-4.736 2.502-7.711-2.162-9.067 3.158-1.148-.198-2.31.698-3.458.5-3.695-.637 3.471-2.358 2.272-5.29l.165-1.422c5.962-6.834 13.083.493 19.068-2.256 1.083-.498 3.634 1.3 5.738 1.868z" fill="#d1bfb7"/><path d="m399.007 259.318c.226.335 1.473 2.182 2.239 4.522 16.723 1.175 16.552.424 33.311-.003 4.398-.065 7.231-1.412 9.224 1.968-10.431.683-10.391.79-11.295.84-23.101 1.263-25.1-2.876-33.595 1.907.039-3.078.077-6.156.116-9.234z" fill="#ae856d"/><path d="m489.645 268.275 1.806 1.274c-5.831 6.243-7.15 1.429-15.7 1.406-1.539.004-1.483.72-19.201 1.05-4.608-.161-4.362-.292-9.062-.477-.017-2.964 1.297-1.674 4.055-1.817 35.075-1.821 35.129-.752 38.102-1.436z" fill="#d8c8c2"/><path d="m398.602 219.423c4.495-3.216 10.872 1.72 11.936 2.331-2.474 4.476-3.93-.054-3.979-.099-1.862-1.731-2.898-1.784-3.281.833-1.303 8.915 14.664-3.334 25.406 2.782-3.404 3.758-4.595.06-9.317 1.749-1.568.561-15.328-.256-20.025.44-.202-4.531.167-4.402-.74-8.036z" fill="#c1a89c"/><path d="m511.477 306.34c.313 5.099 2.684 2.515 7.802 1.53.687.025.522.203 8.513 1.198.564.52 1.127 1.041 1.69 1.562 7.526.305 7.356.404 14.896 1.105 15.101 1.404-6.426 3.186-13.717 2.157-3.638-2.263-3.88-1.038-9.896-.976-.854-6.555-6.206-.991-9.037-2.069-2.992-1.14-2.685-2.253-.251-4.507z" fill="#d3b197"/><path d="m576.446 234.77c.318.071 1.385.313 4.058-.284 28.064-.016 27.99.32 42.499-.438 20.84 1.937-40.528 4.534-48.258 2.273.567-.517 1.134-1.034 1.701-1.551z" fill="#c6aea2"/><path d="m481.259 320.457c3.304.197 3.272-.09 41.367.745-.274 2.009-.821 3.715-25.182 2.8-6.521-.245-6.811-2.488-12.402.933-.855-.793-.729-.744-3.783-4.478z" fill="#dac9bf"/><path d="m417.406 336.083c20.157-.988 22.125 1.073 23.426 2.436l-.217 2.004c-11.136 1.003-11.024 1.279-22.043-1.346-.258-.061-13.095-3.517-1.166-3.094z" fill="#d8c5ba"/><path d="m593.505 303.513c2.077.722 72.903 5.232 17.984 3.756-.966-.009-9.213-.086-12.074-.504-6.535-.955-6.248.248-12.383 2.742-1.034-2.45-.812-2.351-.89-5.078 3.478-1.795 3.541-1.146 7.363-.916z" fill="#ddd6d6"/><path d="m435.65 415.966c-2.164 2.915-.41 2.922 1.86 5.533 1.985 2.285-1.928 5.953-2.321 6.322-.208-.001-11.907-1.396-1.577-2.077 5.761-.379 1.035-3.941-1.084-4.274-1.172-.184-1.517-2.723-5.023-1.952-1.156.253-20.796 4.568-14.789.127 2.959-2.188 21.081-3.541 22.934-3.679z" fill="#c6a48c"/><path d="m455.118 291.713c7.349-2.331 40.911-1.284 43.149-.848 12.486 2.436-34.962 1.836-37.625 2.404-1.973-.217-1.843-.26-3.865-.222l-1.147-.724z" fill="#dacac0"/><path d="m398.931 285.426c.381.112 1.006 1.273 7.529.811 9.574.454 26.586.965 28.898 1.034l.838-.171.083 1.399 1.135 1.181c-6.019 2.252-36.326-3.727-36.449-.18-.007.218 0 0-1.946 1.902z" fill="#ad8568"/><path d="m623.574 291.619c-8.801 2.045-24.047-1.316-32.613.881-.19-.182-3.88-3.729-.499-3.241 4.976.717 43.036-1.902 33.112 2.36z" fill="#ddd6d4"/><path d="m596.113 205.212c.879.133 1.35 1.331 2.229 1.464.989.149 11.07 1.672 12.495-.005 1.771-2.086 1.97-2.268 4.517-1.061.636 7.728-20.429 1.96-19.854 3.599.334.951 1.691 1.296 2.025 2.247-1.309.437-2.618.873-3.927 1.31-.329.198-2.155-1.38-2.873 1.734-.049.208.799-.178.734 2.568-1.059.114-.89-.419-1.907-.309-1.741.187-1.575-.288-3.266-.597.74-.915 3.077-3.805 9.827-10.95z" fill="#c6a896"/><path d="m592.441 466.713c1.979.254 15.582 2.003 24.94.088 42.903-1.112-8.091 3.74-8.86 3.761-.711-.13-1.421-.259-2.131-.388-1.373-.269-1.187.165-1.964 1.182-5.078-.209-22.018-3.231-13.956-4.243.665-.084 1.306-.317 1.971-.4z" fill="#e1d0c8"/><path d="m596.499 337.566c3.995.094 3.833-.09 7.993.009.876.021.811.024 10.948.323.063.513.125 1.025.187 1.537-.85 2.165-.565 3.695-5.277 2.458-1.239-.324-1.041-1.75-3.059-1.805-9.213-.251-8.755 2.716-17.76 2.449-.004-.902-1.071-5.011 6.968-4.971z" fill="#d9cecc"/><path d="m575.82 246.444c.504.169.344 1.181.848 1.35 1.21.404 14.354-3.021 20.062 1.837-6.161 1.504-6.359-1.663-12.313.584-1.043.394-1.011-.088-13.946.17-.719.014-.664-.049-8.967-.652 4.767-6.311 6.708-1.434 14.316-3.289z" fill="#d3c0b6"/><path d="m433.215 316.585c2.628 2.223 4.09 2.88 1.425 5.058-.136.11 0 0-.445 2.141-2.889-.08-2.713-.291-5.613-.362-7.854-1.104-8.822 2.054-14.994-3.134-4.619-2.624-5.276-1.316-5.303-1.762-.182-3.026 4.885-1.331 5.297-1.193 6.371 2.131 6.484.563 12.948 2.1 1.619.384 1.43.058 3.091.126 2.86-1.127 3.456-2.627 3.594-2.974z" fill="#c1a189"/><path d="m399.074 308.336c2.376.529 2.276.246 30.343 2.301 4.915-.404 4.738-.239 5.148-.287.619 2.03.078 2.107-.091 2.131-12.999 1.84-32.323-.523-35.112-.864-.731-1.567-.377-1.423-.288-3.281z" fill="#d7c5bc"/><path d="m404.511 245.555c1.168-.025.97-.199 1.952-.22.325-.007.301.002 4.066.031 3.988.302 3.787.881 7.908.649 6.035-1.08 5.854-.428 11.928.919l2.658.837c1.376 1.063 1.313.707 2.914.757.041 1.186.082 2.373.124 3.559-3.562-3.238-4.016-1.79-6.563-1.259-2.723-2.809-3.026-2.093-7.024-1.965-9.449-.529-17.893.684-17.963-3.308z" fill="#bb9d8d"/><path d="m530.496 335.484c-.189.815-.631 3.414-4.351 5.73-.966-1.419-.292-3.239-6.645-2.927-19.559.961-19.571.838-21.186 1.364-.605-.717-1.21-1.434-1.814-2.151 2.534-.923 2.354-1.281 4.999-1.051 14.494 1.263 14.305-1.097 28.997-.965z" fill="#a36d3d"/><path d="m483.83 261.143c1.354 1.344 2.707 2.689 4.061 4.033-6.875 3.325-14.086.022-25.41-.622-1.523-.087-1.638-.339-1.697-.467-.488-1.067 1.12-.794.629-1.87 5.989-.617 15.857 1.754 22.417-1.074z" fill="#ceb19d"/><path d="m589.559 270.709c29.529-.019 34.925.606 37.941.956-1.029 1.376-1.151 2.148-12.045 1.46l-4.909.135c-1.668.018-19.796.205-20.852.073-1.872-.235-1.063-.91-.135-2.624z" fill="#e0d8d4"/><path d="m467.505 284.502c2.932.159 3.442-.493 3.441.869-.002 3.652 6.706-.087 7.571.04 12.376 1.816-10.574 4.915-25.764 1.699-1.424-.561-1.209-.635-2.602-1.219 7.227-5.577 8.196-.243 17.354-1.389z" fill="#d4bdaf"/><path d="m440.717 299.521c-.111 9.214-.218 9.18-.22 9.979-2.605 1.814-2.793.699-5.932.85-.41.048-.233-.117-5.148.287-.144-3.877-.252-4.141.079-4.142 6.239-.007 12.29 2.626 8.041-2.032-.221-.243-.264.428-4.103.273-3.438-.138-2.653-1.564-5.047-2.975 8.575-.15 8.798.164 11.113-2.21z" fill="#b88964"/><path d="m428.684 225.27c4.586.56 4.872-1.745 8.792.884-9.719 5.365-36.168 2.747-38.239 2.354l.105-1.049c4.697-.696 18.457.121 20.025-.44 4.722-1.689 5.913 2.009 9.317-1.749z" fill="#cfbdb7"/><path d="m417.801 188.119c-7.239 2.986-14.55 2.316-18.52 3.338.276-.7 2.747-6.971 6.198-7.06 6.93-.18 7.545-1.269 12.322 3.722z" fill="#bd9a81"/><path d="m601.588 242.215c1.16 2.911-3.222 4.807-.104 4.971 7.289.385 21.196.202 23.039.177l-.023 1.38c-2.553 1.992-22.786 1.957-25.86-.557-1.052-1.295-.962-1.111-2.299-2.237 3.861-3.563 4.735-3.671 5.247-3.734z" fill="#e0dfdf"/><path d="m398.947 255.396c10.574 2.879 25.225-4.236 33.535 1.956-16.358.229-16.445-1.163-22.984 1.169-.792.283-.775.052-10.491.797-.02-1.307-.04-2.615-.06-3.922z" fill="#b89784"/><path d="m607.602 449.934c-1.102.157-1.032.101-1.102.157-.698.555-.149.847-.961 1.445-1.198.882-.967-.066-2.085-1.959-.784-1.327-19.403-1.056-15.194-4.117.036-.026 24.864.865 25.004 1.146 2.033 4.068-1.16 2.881-5.662 3.328z" fill="#e2dddd"/><path d="m539.641 275.803c3.896.143 8.155-.111 8.863-.153 3.028-.044 2.813-.016 5.992-.123 8.55-.019 8.354-.05 16.943.098.016.018.003-.002 1.142 1.924-2.586.116-28.649 1.29-32.352.23-2.02-.578-.58-1.951-.588-1.976z" fill="#e2d7d2"/><path d="m426.419 479.723c.502.025 33.155 2.291 5.421 3.168-3.818.307-45.197-2.539-16.315-3.087 5.482-.104 5.358-.04 10.894-.081z" fill="#e2d0c3"/><path d="m611.489 307.269c-9.579 5.439-10.119 3.445-24.457 2.238 6.135-2.494 5.848-3.697 12.383-2.742 2.861.418 11.108.495 12.074.504z" fill="#d9d1d1"/><path d="m416.329 261.836c13.144.11 15.969-.164 18.228 2.001-16.759.427-16.588 1.178-33.311.003 4.124-3.201 12.304-1.969 15.083-2.004z" fill="#dbcec5"/><path d="m429.498 250.828c2.547-.531 3.001-1.979 6.563 1.259-4.967 9.174 6.864-4.536 15.368 1.719-2.371 1.424-12.83 3.029-25.768-1.353 1.72-1.538 1.504-2.088 3.837-1.625z" fill="#d6c7c3"/><path d="m430.501 383.427c-6.232 6.187-7.365 3.238-16.084 2.463-36.869-3.276 13.601-2.772 16.084-2.463z" fill="#dcc7bc"/><path d="m571.549 255.316c-.154 4.107-1.684 3.135-5.848 3.789-1.095-.113-12.825-1.321-13.056-4.364-.082-1.077 17.396.443 18.904.575z" fill="#dacecb"/><path d="m412.442 284.423c22.405-.853 22.333 1.442 22.916 2.848-2.312-.069-19.324-.58-28.898-1.034 2.346-2.516 2.659-1.801 5.982-1.814z" fill="#e1d8d5"/><path d="m534.347 294.312c6.53.466 21.346.164 23.201.126 14.643 1.836-16.16 4.182-21.981 1.862z" fill="#ddccc1"/><path d="m559.29 244.369c6.49 1.734 6.418.495 13.106.438l3.211.401.213 1.236c-7.608 1.855-9.549-3.022-14.316 3.289-4.365-.463-3.873.827-4.909 2.238-1.322-.146-2.644-.293-3.965-.439 1.201-1.565 6.114-6.603 6.66-7.163z" fill="#b8957d"/><path d="m582.675 274.856c-.901.011-.869.205-11.236.769-8.589-.148-8.393-.117-16.943-.098.407-1.645.025-1.824.998-2.054 4.263-1.007 3.688-1.817 4.039-1.877 3.925-.675 3.408 1.473 5.989 1.812 8.691 1.141 8.877-1.272 17.153 1.448z" fill="#c8ab9a"/><path d="m440.864 331.489-.032 7.03c-1.301-1.363-3.269-3.424-23.426-2.436 6.737-6.839 14.97 1.685 23.458-4.594z" fill="#c09c81"/><path d="m401.553 460.937c23.445-1.542 23.817 2.293 24.004 4.234-1.369.225-3.304.544-17.186-2.331-4.191-.868-6.318 2.221-6.818-1.903z" fill="#dbc5bc"/><path d="m600.583 263.713c1.637-3.406 2.611-1.507 5.235.508 4.46 2.617 19.247.498 9.655 3.225-8.756 2.488-9.151 2.367-16.981-2.077.159-.142.138-.048 2.091-1.656z" fill="#dbd2d2"/><path d="m413.588 320.288c6.172 5.188 7.14 2.03 14.994 3.134-1.443 2.195-2.018.986-4.357 1.837-1.748 3.014-2.381-1.01-5.787-.856-4.002.18-3.836.318-4.171.326-.739-.27-1.683-.615-9.746-1.283 1.356-5.32 4.331-.656 9.067-3.158z" fill="#d9cecc"/><path d="m461.517 250.44c2.328.416 4.656.832 6.984 1.247l1.085.595c-.307 2.091 1.654 3.366 1.924 3.542-2.215 1.051-2.051 1.803-4.072.941-4.101-1.75-4.126-1.878-4.2-2.252-.531-2.714-2.181 1.233-10.126-.675 1.175-4.985 4.302-.456 8.405-3.398z" fill="#d1bdb0"/><path d="m627.8 350.483c-.019.561.229.39-.001 7.023-4.245-.772-4.049-.701-8.263-.98-.003-.102 1.849-1.815-.146-3.986-2.325-2.532 4.672-4.86 8.41-2.057z" fill="#caa27f"/><path d="m424.49 214.129c10.322 4.762-8.247.747-12.992.977-.716.034-17.506.847-8.701-2.151 1.316-.448 16.06.408 21.693 1.174z" fill="#d4cbcb"/><path d="m402.061 433.928c-1.752-2.69-1.977-2.566-1.752-2.69.212-.117.541-.298 3.029-.103 18.601 1.457 18.585.951 20.08 1.552 10.444 4.196-19.652 1.4-21.357 1.241z" fill="#dbcac2"/><path d="m543.735 300.909c9.778-1.583 9.662-.763 19.735-.461-.361 1.004-.722 2.008-1.083 3.013-7.052-.656-6.867-.866-10.893-.725-6.673.233-8.509 2.625-9.133-1.497z" fill="#aa7753"/><path d="m402.615 364.359c-.594-.286-1.188-.573-1.782-.859.364-1.536.186-1.887 1.7-1.94 11.466-.402 14.651-2.635 15.035 4.29-7.489-1.159-7.317-1.237-14.953-1.491z" fill="#d4beb2"/><path d="m522.819 344.828c-4.651 8.545-12.187 4.989-13.196 4.513-.427-.826-.854-1.652-1.281-2.478 6.647-3.609 7.393.395 14.477-2.035z" fill="#af784c"/><path d="m533.524 296.667c2.236 5.356 5.656 1.794 8.988 2.713.629.173.594 1.355 1.223 1.529-.458.11-.916.22-1.374.33-8.47.128-9.267-.115-10.036-.349-7.959-2.423-12.952 1.612-10.797-3.66.959.066 9.519.654 11.996-.563z" fill="#d9b598"/><path d="m598.504 239.488c-.221.48 1.235 1.875-2.014 2.14-12.254.997-20.325-.475-22.063-.792 5.127-3.257 21.56-1.401 24.077-1.348z" fill="#cbb4a5"/><path d="m398.732 436.567-.047.947c.027 2.664.055 5.327.082 7.991-.049 5.34-.097 10.68-.146 16.02l-.053.975c-.806-1-1.613-2-2.419-3.001-.001-5.335-.001-10.67-.001-16.005 1.349-3.651.992-3.564 2.584-6.927z" fill="#613819"/><path d="m625.828 221.127c3.107.333 2.718 1.108 3.342 1.401l.014 3.926c-6.445-1.396-6.025 2.339-6.484 2.879-.105-.029-2.196 1.522-3.367-3.808.391-3.665 2.746-1.507 5.167-4.191z" fill="#c9ac98"/><path d="m607.565 429.343c.187 5.979-5.845-.849-8.974 2.464-2.868 3.036-9.607-.477-10.343-.86.367-1.507.752-3.088 19.317-1.604z" fill="#dfd8d6"/><path d="m604.774 320.929c7.613 3.021-3.019 2.39-3.264 2.462-.402.118-.115.409-4.065 3.291-.64.02-13.147.395-7.123-3.626.703-.469.953 1.095 10.49-1.21 1.321-.305 2.642-.611 3.962-.917z" fill="#d8cfce"/><path d="m575.607 245.208c16.035.2 16.014-.225 20.734.741 1.337 1.126 1.247.942 2.299 2.237-.637.482-1.273.963-1.91 1.445-5.708-4.858-18.852-1.433-20.062-1.837-.504-.169-.344-1.181-.848-1.35z" fill="#c2a99b"/><path d="m606.391 411.714c1.3 1.054 3.295.376 1.874 1.519-.17.136-.521.419-2.648.626-1.44.14-11.15 1.085-18.079-.406-19.494-4.195 17.342-1.835 18.853-1.739z" fill="#eae9eb"/><path d="m552.504 286.524c-1.448-.028-86.123-1.65-17.954-2.308 16.524-.159 17.227 1.055 17.954 2.308z" fill="#ae876b"/><path d="m430.512 271.469c1.077.213.999.239 10.866 3.291-.871 1.572-1.267.873-9.877.756-6.507-.088-6.055-1.528-5.772-1.925 2.112-2.962 2.784-2.066 4.783-2.122z" fill="#be967b"/><path d="m470.077 245.989 1.099.853c-4.958 2.506-5.043 1.405-10.646 1.701-7.473-.013-7.746-.635-7.947-.032-1.23 3.69-2.578 2.104-4.997-.295 2.917.096 2.903.084 4.922-2.087 1.398-.151 1.39.953 17.569-.14z" fill="#dbcac0"/><path d="m611.5 296.133c3.027-.196 3.482-4.405 13.695-.633-.569 2.101-.398 2.066-.569 2.101-.96.196-7.452 1.519-12.258.091-.57-.169-.298-1.389-.868-1.559z" fill="#d5c2b7"/><path d="m411.468 425.535c.894-.531 4.979-2.956 12.946 1.13-7.023 4.848-12.19 1.827-12.946-1.13z" fill="#d3c0b7"/><path d="m582.675 274.856c2.585.158 5.171.316 7.756.474.037.716.074 1.431.111 2.146-10.125-.029-12.7-1.125-17.961.073-1.139-1.926-1.126-1.906-1.142-1.924 10.367-.564 10.335-.758 11.236-.769z" fill="#ddcfc5"/><path d="m492.171 284.012c5.649 3.849 8.343-.802 12.242 3.875-1.207.044-81.481 2.569-14.914-2.405 2.185-.163 1.693-.931 2.672-1.47z" fill="#b38a6a"/><path d="m525.609 321.19c.727.291 1.454.583 2.181.875.855.874 1.048.708 1.704-.484 2.48.639 3.663-.693 7.062 2.983-.261.149-.248.046-3.462 1.451-5.749-.821-9.245.876-7.485-4.825z" fill="#cba282"/><path d="m447.488 271.528c4.7.185 4.454.316 9.062.477-3.513 2.813-3.766 4.549-8.999 1.495-4.353-2.541-4.702-1.321-5.037-1.579-3.924-3.017 1.319-3.357 4.974-.393z" fill="#cdb09b"/><path d="m625.453 321.629c.285 1.547 2.058 1.92.423 2.301-.265.062-11.403-.193-12.394-.216-7.406-.169 1.32-3.78 11.971-2.085z" fill="#dccfcb"/><path d="m424.463 342.963c.038.767.077 1.534.115 2.301-1.956 1.1-2.078.479-13.876-1.056-19.933-2.594 12.656-1.289 13.761-1.245z" fill="#dcccc4"/><path d="m421.108 300.866c.075-.073-.159-1.944 18.392-1.315-2.315 2.374-2.538 2.06-11.113 2.21-3.826-.123-3.722.214-7.279-.895z" fill="#946852"/><path d="m579.324 223.27c5.624 1.772 5.636 1.057 11.58 2.041.401 1.932-4.938 1.825-6.416 2.226-7.791-.537-7.052-2.199-7.309-2.291z" fill="#d8c5b6"/><path d="m543.684 271.244c2.798 2.416 5.046.806 4.82 4.406-.708.042-4.967.296-8.863.153-12.482-.391 1.704-2.449 1.955-2.478.234-.028 0 0 2.088-2.081z" fill="#d0b298"/><path d="m407.469 234.225c1.213-4.704 11.245-4.204 12.113.096-6.168.409-5.965.286-12.113-.096z" fill="#cebdb7"/><path d="m417.626 380.045c-4.698 2.653-4.875 2.516-10.064 1.214-17.806-4.465 9.258-1.308 10.064-1.214z" fill="#b59076"/><path d="m424.463 342.963c7.455.528 7.267.936 14.703 1.537-2.806 2.324-3.17 1.218-12.677 1.12l-1.911-.356c-.038-.767-.077-1.534-.115-2.301z" fill="#dbccc3"/><path d="m629.184 226.454.174 7.038c-2.993-2.719-3.513-1.683-6.658-4.159.459-.54.039-4.275 6.484-2.879z" fill="#c1966c"/><path d="m562.415 241.412c.589.25.496 1.332 1.085 1.582 1.504.639 6.45-1.282 6.983-1.489.637 1.101 1.275 2.201 1.913 3.302-6.688.057-6.616 1.296-13.106-.438z" fill="#d4bca6"/><path d="m554.503 288.505c4.348-.098 8.696-.196 13.043-.295 2.139 3.965-10.996 3.337-13.043.295z" fill="#b58765"/><path d="m402.523 401.24-1.023-1.05c0-.487-1-.579-1-1.067 0-.362 12.548-3.332 10.951 2.956-4.452-.905-4.32-.795-8.928-.839z" fill="#decbbf"/><path d="m628.283 326.48c-.108.957-.216 1.914-.324 2.872-.762-.059-1.524-.117-2.286-.175-3.061-.203-6.123-.405-9.184-.607-.216-.483-2.487-2.537.979-2.372 5.533.262 5.297.414 10.815.282z" fill="#a27559"/><path d="m433.473 361.639 1.046.232c3.222 1.008 3.05 1.392 6.369.635l-.024 3.002c-2.365-.17-2.141-.356-4.38-.517-.496-.036-.46-.019-6.21-.25l-.846-.163c.466-1.112.257-1.003 1.135-1.853 1.62-.364 1.426-.335 2.91-1.086z" fill="#ad805d"/><path d="m582.007 220.149c1.974 3.462 2.936 1.915 9.461 2.995l-.564 2.167c-5.944-.984-5.956-.269-11.58-2.041z" fill="#bc9e8b"/><path d="m558.473 280.237c5.32.311 5.085.072 10.222-.504 8.349-.938-8.725 7.824-10.222.504z" fill="#d8c9c5"/><path d="m398.722 408.493c3.672 2.385 7.604 1.351 4.662 4.841-.176.21-.633.752-2.884 1.851-.631.439-1.263.878-1.894 1.317.039-2.67.078-5.339.116-8.009z" fill="#c39c7e"/><path d="m620.564 219.366c-.355.332.726 1.077.371 1.409-1.132 1.06-26.25.255-7.629-1.556 3.769-.367 3.56-.275 7.258.147z" fill="#b49994"/><path d="m478.571 310.387c.114-.523-.386-2.442 7.885-1.666 36.222 3.401-7.243 1.726-7.885 1.666z" fill="#dbcecc"/><path d="m405.886 405.221c1.333.872 11.553 3.845 7.635 4.311-6.408.762-10.257 1.427-7.635-4.311z" fill="#c09f8a"/><path d="m404.511 245.555c-1.955-.032-1.683-.473-2.558-2.209-.402-.797 7.531-3.024 8.576 2.02-3.765-.029-3.741-.038-4.066-.031-.982.021-.784.195-1.952.22z" fill="#c5b5b4"/><path d="m623.817 439.997c1.076.206.942.005 1.975-.3l.442-.279c-.175.689-.349 1.379-.524 2.069-.037.665-.075 1.33-.113 1.995-4.464-2.037-4.459-1.527-9.324-1.8-1.188-.067-1.036-2.178-.784-2.22 1.087-.184 7.664.469 8.328.535z" fill="#b5855e"/><path d="m410.567 199.006c-.221.614-2.104 5.844-7.808 2.366-.516-.315-.449-1.554-.125-1.728.449-.241 7.297-.604 7.933-.638z" fill="#cdc0bc"/><path d="m620.462 242.262c8.182.232 7.977.089 8.669.134l-.016 2.213c-5.208-.543-5.003-.717-10.439-.565.022-1.604.34-1.49 1.786-1.782z" fill="#ae866e"/><path d="m509.59 296.692c3.995-1.171 3.915-.442 7.927-.218-.12.609.949 1.058.829 1.667-.014.073-6.759.61-9.481.565.865-.842.754-.785.725-2.014z" fill="#d9b695"/><path d="m424.773 348.579c1.577-.261 8.532-3.274 9.972 1.299-5.154-.093-5.136.449-9.972-1.299z" fill="#d9c6b9"/><path d="m606.278 426.904c4.319-3.31 4.742-3.446 9.771-1.19 4.69 2.104-8.985 1.24-9.771 1.19z" fill="#eae1d6"/><path d="m617.791 449.893c.807-2.648.217-2.605.397-5.481.294-4.709 7.545 4.789 1.452 5.53-.147.017 0 0-1.849-.049z" fill="#d0af99"/><path d="m615.44 337.898c.805.019 10.06.232 10.06.232.885 2.027-1.045.507-2.951 1.432-2.307-.042-4.615-.085-6.922-.127-.062-.512-.124-1.024-.187-1.537z" fill="#deccc2"/><path d="m428.895 330.053c-3.237 1.045-2.949 1.534-6.444 1.646-3.936-4.638 3.75-3.111 6.444-1.646z" fill="#cbaa8b"/><path d="m626.222 425.544-.298 1.025c-.493.295-5.122 3.064-7.152.62-.39-.469-1.143-3.954 7.45-1.645z" fill="#ddc5b2"/><path d="m605.014 317.557c2.575-.358 4.222-3.309 9.434.891-5.018.251-5.234 1.849-9.434-.891z" fill="#ded4d7"/><path d="m398.998 296.336c.462.21.448-.149 6.328.413.075.732 1.969.105 2.044.837.069.672-.548-.164-8.253 1.794-.039-1.015-.079-2.029-.119-3.044z" fill="#b2896a"/><path d="m511.477 306.34c7.168-.152 7.208-.144 7.822-.022l-.02 1.552c-5.118.985-7.489 3.569-7.802-1.53z" fill="#c89f7e"/><path d="m629.212 241.471-.081.925c-.692-.045-.487.098-8.669-.134.364-.601 2.851-4.699 8.75-.791z" fill="#d2b6a4"/><path d="m425.542 395.66c6.374-.018 6.487-.413 6.871-.019.728.747-.854.916-.112 1.678-4.539.889-7.038 3.09-6.759-1.659z" fill="#e2d5cc"/><path d="m444.48 246.58c2.941-1.615 2.982-1.261 6.112-.273l1.916-.178c-2.019 2.171-2.005 2.183-4.922 2.087-1.732-.723-1.586-.699-3.106-1.636z" fill="#d4c6c2"/><path d="m432.395 430.169c1.054.367 2.108.734 3.162 1.1.123 2.402.234 2.765-2.048 3.209-1.92-1.653-1.111-4.282-1.114-4.309z" fill="#a57358"/><path d="m622.243 211.206c1.676-4.197 4.853-5.339 4.564-1.706-.244 3.059-1.636 1.557-4.564 1.706z" fill="#ccb3a7"/><path d="m620.454 414.124c-4.03 1.636-5.549-.256-4.734-1.557 2.204-3.516 3.147-.291 4.734 1.557z" fill="#c9afa0"/><path d="m405.555 276.2c-.389-.026-6.767-.455-4.055-2.712.527-.438 6.797.065 4.055 2.712z" fill="#cebab6"/><path d="m609.773 279.135c-2.241-4.445 3.111-1.387 3.359-1.244 13.329 7.617-3.092 1.349-3.359 1.244z" fill="#c7b4ab"/><path d="m428.306 316.846c1.008-.243.091-1.119 1.194-1.385 0 0 3.417 1.034 3.715 1.124-.138.347-.734 1.847-3.594 2.974-.438-.904-.877-1.808-1.315-2.713z" fill="#caab96"/><path d="m440.733 286.654c.005.043.003.001-.08 3.809-.669-.368-1.338-.736-2.007-1.104-.789-.287-1.578-.573-2.367-.86l-.083-1.399c2.268-.502 2.047-.525 4.537-.446z" fill="#9a6230"/><path d="m629.32 248.495-.072 4.029c-9.138-1.708-.241-3.951.072-4.029z" fill="#c4a076"/><path d="m430.563 362.725c-.878.85-.669.741-1.135 1.853-.322-.038-16.845-1.989-2.91-2.807.332-.02.3.07 4.045.954z" fill="#ba9681"/><path d="m598.442 388.647c.407-2.405.708-2.568 3.018-2.377 16.866 1.393-2.711 2.385-3.018 2.377z" fill="#ccbcb2"/><path d="m517.568 330.34c-.521 3.388-1.888 2.051-5.063 1.132-1.28-1.984 1.512-1.654 5.063-1.132z" fill="#dcc5b5"/><path d="m484.521 274.491c5.463-3.201 5.369-.412 5.311.009-.5 3.6-2.03 1.708-5.311-.009z" fill="#ceb8b4"/><path d="m421.544 399.531c-2.005 1.502-2.816 1.067-3.041.947-.089-.048-1.601-5.403 3.041-.947z" fill="#ddc9c2"/><path d="m433.308 269.781c2.443-1.482 2.381-2.216 5.116-1.231.396.143.841 2.488-5.116 1.231z" fill="#c6a489"/><path d="m456.777 293.047c2.022-.038 1.892.005 3.865.222-.374 1.64-.609 1.434-.94 3.065-.321-.145-2.088-.944-2.925-3.287z" fill="#a56d2d"/><path d="m444.569 229.575c-.987.017-1.981 1.495-2.761-1.114-.424-1.416 2.275-2.882 2.761 1.114z" fill="#b08975"/><path d="m627.449 364.497c2.204 5.881.089 8.097-.13 8.977z" fill="#8a5b2e"/><path d="m625.373 455.517c1.615 2.881 1.581 3.054.026 5.965z" fill="#835130"/><path d="m609.519 350.747c.148-.099.194-1.45 2.077-1.377 11.044.425-1.878 1.377-2.077 1.377z" fill="#dbcbc2"/><path d="m628.8 219.695.37 2.833c-.624-.293-.235-1.068-3.342-1.401.044-.086-1.094-1.595 2.972-1.432z" fill="#a16e44"/><path d="m425.281 437.213c2.212-.7 3.212 2.13 1.004 1.712-.156-.029 0 0-1.004-1.712z" fill="#d6c1bc"/><path d="m414.148 238.926c3.464-3.822 3.662-.704 3.681-.408.068 1.066-3.389.46-3.681.408z" fill="#d4ced6"/><path d="m425.661 252.453c-2.266 1.134-3.862 2.535-3.348-.011.235-1.163.682-.531 3.348.011z" fill="#c9b1a7"/><path d="m525.393 285.496c1.331.89 1.295.655 2.199 1.827-.246.074-3.077.919-3.077.919-.382-.099.779-2.538.878-2.746z" fill="#c58e66"/><path d="m597.525 211.456c-1.229 1.971-1.558 1.285-3.927 1.31 1.309-.437 2.618-.873 3.927-1.31z" fill="#c2a799"/><path d="m404.268 207.18c2.267-.691 3.599 1.08 1.271 1.926-.424-.642-.847-1.284-1.271-1.926z" fill="#c9ab7c"/><path d="m625.578 450.514c.113.316 1.412 3.957 1.412 3.957-.108.633-1.51.413-1.617 1.046z" fill="#7b481f"/><path d="m629.453 218.494c1.258 2.026 1.035 2.174-.283 4.034l-.37-2.833c.217-.4.435-.801.653-1.201z" fill="#8b531c"/><path d="m442.827 224.07c4.398-.893 2.971 1.451 2.754 1.584s-.204-.117-2.754-1.584z" fill="#cfb4a0"/><path d="m406.544 489.359c2.656.258 5.313.516 7.969.773-4.195-.054-4.008-.063-7.969-.773z" fill="#865324"/><path d="m432.735 376.107c2.039 1.066 3.806 1.559 1.678 2.284-.215.073 0 0-1.678-2.284z" fill="#d2ae92"/><path d="m433.023 247.771c1.731-.055 1.857-.533 2.914.757-1.601-.05-1.538.306-2.914-.757z" fill="#ceb8ad"/><path d="m558.531 285.324c2.951-1.866 3.204-1.188 3.203-.921 0 0-2.947.847-3.203.921z" fill="#d7c1b6"/><path d="m590.532 490.351 5.916.382c-3.103.305-3.023.684-5.916-.382z" fill="#a26931"/><path d="m626.656 402.512c.566 2.59.43 2.373.425 5.067l-.64-1.069z" fill="#855023"/><path d="m420.607 203.234c-2.747.347-2.199-.581-2.109-.735.853-1.443 1.234-.647 2.109.735z" fill="#c4aa97"/><path d="m626.441 406.51.64 1.069c-.183 1.304-.365 2.608-.548 3.911-.031-1.66-.062-3.32-.092-4.98z" fill="#905d30"/><path d="m620.744 367.962c.123-.099 4.774-3.828 1.964-.227-.097.124 0 0-1.964.227z" fill="#d6b491"/><path d="m596.518 265.18c-2.659 1.328-2.516 1.518-2.659 1.328s-.325-.812 2.659-1.328z" fill="#c9bbbf"/><path d="m625.383 462.505-.203 5.934c-.292-3.07-.665-2.941.203-5.934z" fill="#a66c2f"/><path d="m576.446 234.77c-.567.517-1.134 1.034-1.701 1.551.157-.45-.914-.761-.757-1.21.378-1.084 1.456-1.234 1.618-1.257.829-.115-.018 1.035.84.916z" fill="#c5a797"/><path d="m529.494 321.581c-.656 1.192-.849 1.358-1.704.484.568-.161 1.136-.322 1.704-.484z" fill="#cea47c"/><path d="m527.792 309.068c1.209.499.865.616 1.69 1.562-.563-.521-1.126-1.042-1.69-1.562z" fill="#c3936c"/><path d="m402.183 270.977c-.881-.494-.806-.188-1.683-.944-3.658-3.156.909-1.036 1-.972.556.388.128 1.527.683 1.916z" fill="#cebbb1"/><path d="m606.39 470.174c-.655.394-1.31.788-1.964 1.182.777-1.017.591-1.451 1.964-1.182z" fill="#d9c4b7"/><path d="m627.138 383.482c-.032 1.364-.063 2.729-.095 4.093-.427-2.142-.403-2.035.095-4.093z" fill="#955819"/><path d="m508.342 346.863c.427.826.854 1.652 1.281 2.478-.627-.759-1.255-1.518-1.883-2.278z" fill="#9b6130"/><path d="m436.378 381.008c.114-.127 3.121-3.48 2.122-.25-.05.164 0 0-2.122.25z" fill="#bd9172"/><path d="m415.516 490.147c2.097-.289 1.914-.289 3.964.007z" fill="#936134"/><path d="m613.456 418.566c.564 1.059.8 1.074.029 1.885-.01-.628-.019-1.257-.029-1.885z" fill="#cebbb1"/><path d="m627.551 360.51c.36 1.558.323 1.466-.152 3.004l.044-2.019z" fill="#905a23"/><path d="m616.657 490.843-.212.52-2.968-.145c1.06-.125 2.12-.25 3.18-.375z" fill="#a0692d"/><path d="m625.71 441.487c.27 1.548.341 1.418-.029 2.992l-.084-.997c.038-.665.076-1.33.113-1.995z" fill="#a66627"/><path d="m436.279 288.499c.789.287 1.578.573 2.367.86l-1.232.321z" fill="#b17d51"/><path d="m403.335 318.656c-.741-.642-.369-.683.165-1.422z" fill="#c6a68f"/><path d="m624.921 257.443c.239.471.478.942.717 1.412z" fill="#d5c2b8"/><path d="m616.657 490.843c.651-.057 1.301-.113 1.952-.169-.722.23-1.443.459-2.164.689z" fill="#835123"/><path d="m428.533 489.826 3.034-.044c-1.646.321-1.477.33-3.034.044z" fill="#97683e"/><path d="m597.533 486.688c.906-2.087.765-1.971.906-2.087 2.753-2.268-.789 1.948-.906 2.087z" fill="#dbc4a9"/><path d="m623.817 439.997 1.975-.3c-1.033.305-.899.506-1.975.3z" fill="#b98046"/><path d="m505.858 347.005c.627.019 1.255.039 1.882.058-.627-.019-1.255-.039-1.882-.058z" fill="#9d6533"/><path d="m454.661 291.403.457.31.512.61c-.323-.307-.646-.613-.969-.92z" fill="#9e6d3f"/><path d="m583.251 286.592c-.733 93.005-2.984 162.085-1.784 198.902l-.984.977c-11.464 2.28-19.794-5.79-37.97-1.321-1.929.474-4.819-1.212-10.055-.369-.866-.591-4.394-3.001-12.987-1.812-8.895-1.013-9.27 3.473-16.996-.411-.184-3.203-1.815-2.873-3.997-.571-.674-.154-.303-1.677-.978-1.831-1.012-.232-8.286 1.216-9 1.358-1.896.305-1.902-.576-23.989.751-1.695.102-19.593-1.206-22.076-.775 2.231-15.363 2.831-19.493 2.743-194.037 4.08-1.405 4.972 3.251 32.066 32.256 26.687 28.57 30.824 45.269 51.168 23.705 52.506-55.654 52.209-56.481 54.839-56.822z" fill="#edccba"/><path d="m442.435 481.49c2.483-.431 20.381.877 22.076.775 22.087-1.327 22.093-.446 23.989-.751.637.49 4.244 3.265 10.022.573l3.953.471c7.726 3.884 8.101-.602 16.996.411 4.741 5.288 5.797 1.929 12.987 1.812 5.236-.843 8.126.843 10.055.369 18.176-4.469 26.506 3.601 37.97 1.321.328-.325.656-.651.984-.977 1.198 3.887.547 3.764-1.018 7.27-57.6-1.711-76.549-5.278-103.936-3.633-12.264.737-31.545-1.219-34.603 1.369-.173.146 0 0-2.569-1.165 1.031-2.615 2.063-5.23 3.094-7.845z" fill="#c08968"/><path d="m320.487 479.702c2.147 1.416 2.28 2.456 5.005.688 7.256 2.54 7.576-.302 14.981 1.432 2.467.577 6.238-1.413 6.998-.996.279.153-.227.649 3.038 2.571l.966 1.16c-7.184 3.938-15.545-2.814-11.82 4.514-9.084.24-31.441-3.698-42.147-2.555 1.483-3.057 1.307-3.266-1.019-5.956 1.257-.683 20.125-.354 23.998-.858z" fill="#c59070"/><path d="m296.489 480.56c2.326 2.69 2.502 2.899 1.019 5.956-.791 1.368-.853 1.139-1.479 2.557-3.446 7.815-5.258 1.859-5.225 1.427.141-1.832-.118-1.717.101-3.456-10.441-5.751-25.531.046-34.379-2.573 2.124-8.07 33.932-4.95 39.963-3.911z" fill="#c4967d"/><path d="m351.475 484.557c3.566 2.253 4.81 4.728 5.072 5.25-1.68.102-3.361.205-5.041.307-.946-.109-4.997-.575-11.851-1.043-3.725-7.328 4.636-.576 11.82-4.514z" fill="#ab7458"/><path d="m622.506 185.459c-7.602-2.554-7.171.471-13.378 5.703-6.572 7.052-6.385 6.994-13.015 14.05-6.75 7.145-9.087 10.035-9.827 10.95-1.426 1.329-2.853 2.658-4.279 3.987l-2.683 3.121-2.145 1.976c-1.11 1.354-1.102 1.269-14.764 16.166l-3.125 2.957c-.546.56-5.459 5.598-6.66 7.163-9.563 11.434-10.531 10.321-26.492 28.569l-1.997 2.208c-4.782 4.704-3.912 5.546-9.664 8.765-.166-.013-1.23 1.369-6.96-3.601-5.273-5.837-14.783-16.488-16.066-17.924l-1.806-1.274c-.511-1.832-.483-1.618-1.754-3.099-1.354-1.344-2.707-2.689-4.061-4.033-.917-1.222-1.243-.86-12.654-14.301l-1.099-.853c-1.098-1.224-11.693-13.037-13.946-15.107-16.235-18.426-16.146-18.478-17.437-19.591-2.135-1.65-14.574-16.656-15.803-18.138l-.926-.96c-1.388-1.358-2.776-2.716-4.164-4.074-4.777-4.991-5.392-3.902-12.322-3.722-3.451.089-5.922 6.36-6.198 7.06l-.119 11.94c.032 1.14-.614 77.144-2.415 14.054-.357-12.532-4.234-37.809 14.762-37.322 13.464.345 97.553 109.456 103.981 106.356 4.245-2.048 93.728-103.709 102.002-105.091 19.203-3.208 14.719 26.544 14.238 58.11-.073 4.803-.238 30.356-.255 32.995-.079 12.402-.276 42.899-2.559 155-4.114-5.741-.113-6.607-2.293-15.014l-.09-.995c.183-1.303.365-2.607.548-3.911.005-2.694.141-2.477-.425-5.067l-.057-1.936c.087-.706.173-1.412.26-2.119.017-.803-.169-.783-.132-10.043l.316-.839c.032-1.364.063-2.729.095-4.093-.206-3.828.131-9.209.181-10.008.219-.88 2.334-3.096.13-8.977l-.05-.983c.475-1.538.512-1.446.152-3.004l.248-3.004c.23-6.633-.018-6.462.001-7.023.469-9.514-.055-18.715.159-21.131.108-.958.216-1.915.324-2.872.274-13.981.237-23.904.229-25.983.57-27.612.474-27.584.564-29.981l.111-7.085c-.034-.872-.188-4.802.061-10.907l.072-4.029-.205-3.886.016-2.213.081-.925c.054-1.333.107-2.667.161-4.001l-.015-3.978-.174-7.038-.014-3.926c1.318-1.86 1.541-2.008.283-4.034l.024-2.995c.049-8.333.045-8.28.053-8.999.044-4.015.24-3.831.285-7.88.185-8.779-.082-10.684-7.309-13.161z" fill="#38252a"/><path d="m442.454 283.452c1.736-.405 1.507-.603 3.45-.448-.895 2.223-.81 2.036-.726 4.449.088 174.544-.512 178.674-2.743 194.037-1.031 2.615-2.063 5.23-3.094 7.845-4.475 4.884-5.374 5.865-82.794.472-.262-.522-1.506-2.997-5.072-5.25l-.966-1.16c5.337-5.58 37.231.336 45.231-1.766.399-7.226.393-7.063.409-22.132.806 1.001 1.613 2.001 2.419 3.001-.006 19.148-1.972 23.61 7.976 26.859 3.961.71 3.774.719 7.969.773l1.003.015 3.964.007c3.018-.109 6.036-.218 9.053-.328 1.557.286 1.388.277 3.034-.044 11.159 1.818 8.809-29.095 8.778-36.271-.083-4.481.037-4.447.117-56.017l.018-11.994c-.04-3.948.015-3.861.384-19.992l.024-3.002c-.255-8.511-.12-8.321-.164-16.984-.036-1.667-.073-3.333-.109-4.999l.217-2.004.032-7.03-.07-3.012c.008-1.518.062-12.96-.297-18.977.002-.799.109-.765.22-9.979.097-4.692.12-4.515-.064-9.058.083-3.808.085-3.766.08-3.809.773-1.646.842-1.392 1.721-3.202z" fill="#593b2e"/><path d="m584.668 284.129c2.806 3.187 1.455 3.693 1.787 13.371-.105 2.31-.209 4.62-.313 6.929.078 2.727-.144 2.628.89 5.078-.313 2.661-.625 5.323-.938 7.985-.139 3.335-.278 6.671-.417 10.006-.152 9.516.127 9.353-.071 18.998-.062 11.139-.118 10.982-.349 21.987l-.11 12.972c-.066 4.016-.132 8.031-.197 12.046v4.975c-.213 7.249-.114 16.847-.608 28.014-.029.67.05 1.341.021 2.011l-.058 10.03c-.086 6.309-.172 12.618-.258 18.926-.235 23.067-2.434 30.417 6.485 32.894 2.893 1.066 2.813.687 5.916.382 8.557.336 8.338-.011 17.029.485l2.968.145c.721-.23 1.442-.459 2.164-.689 1.468-2.532 2.721-2.777 3.048-2.841 1.647-.323 2.614-3.961 3.132-5.168.456-1.466.244-1.259.196-3.4.065-3.608.13-7.217.195-10.826l.203-5.934.016-1.023c1.555-2.911 1.589-3.084-.026-5.965.107-.633 1.509-.413 1.617-1.046 0 0-1.299-3.641-1.412-3.957l.103-6.035c.37-1.574.299-1.444.029-2.992.175-.69.349-1.38.524-2.069-.096-1.024-.916-9.716-.31-12.849l.298-1.025.118-4.079c-.418-6.91.052-8.299.283-8.98 2.18 8.407-1.821 9.273 2.293 15.014-1.372 37.807 1.075 65.36-9.41 66.099-13.906.981-35.94-.609-39.057-.834 1.565-3.506 2.216-3.383 1.018-7.27-1.2-36.817 1.051-105.897 1.784-198.902.472-.821.945-1.642 1.417-2.463z" fill="#3a281f"/><path d="m398.602 219.423c.907 3.634.538 3.505.74 8.036l-.105 1.049-.136 5.788c-.154 1.357-.311 2.74-.087 17.071-.022 1.343-.045 2.686-.067 4.029.02 1.307.04 2.615.06 3.922-.039 3.078-.077 6.156-.116 9.234.037 1.349.272 9.831.04 16.874l.088 5.976c-.007 1.645-.014 3.29-.021 4.934.04 1.015.08 2.029.119 3.044-.259 4.546-.15 4.382-.043 8.956-.089 1.858-.443 1.714.288 3.281-.297 7.607-2.54 36.822 1.139 36.882 6.504.105 6.305.091 12.995.11 4.499.013 7.487-1.503 5.977 2.761-1.503-.022-17.615-.256-18.789-.498-3.987-.822-1.841 1.858-1.933 11.658l.058 11.051c.942 9.43-.719 9.357.114 18.739l-.109 4.261c-.031 3.97-.061 7.941-.092 11.912-.038 2.67-.077 5.339-.116 8.009.042 6.688.084 13.377.126 20.065-1.592 3.363-1.235 3.276-2.584 6.927-.032-17.948-.398-224.267.923-224.351.518-.033 1.014.313 1.531.28z" fill="#503224"/><path d="m445.904 283.004c2.235 1.289 2.119 1.097 4.247 2.887 1.393.584 1.178.658 2.602 1.219.24 2.409.547 2.158 1.908 4.293.323.307.646.613.969.92l1.147.724c.837 2.343 2.604 3.142 2.925 3.287 1.78 1.939 1.659 1.886 3.657 3.453l1.424.27c.111 1.61.276 3.995 12.416 15.899l.425.299c2.121 2.033 3.381 3.838 3.635 4.202 3.054 3.734 2.928 3.685 3.783 4.478 1.462 1.551 2.924 3.103 4.385 4.654 3.611 4.11 3.378 4.006 7.073 7.911.604.717 1.209 1.434 1.814 2.151.59.602 5.439 5.54 7.544 7.354.627.019 1.255.039 1.882.058.628.76 1.256 1.519 1.883 2.278 1.009.476 8.545 4.032 13.196-4.513 2.177-1.6 2.107-1.431 3.326-3.614 3.72-2.316 4.162-4.915 4.351-5.73 4.622-.902 11.865-11.266 14.013-13.969 1.101-.802 6.129-4.463 11.917-12.151 3.276-2.736 3.008-2.838 5.961-5.903.361-1.005.722-2.009 1.083-3.013 4.509-1.9 7.384-6.48 7.836-7.201 6.443-4.192 5.67-9.154 12.993-9.329l.369.211c-.472.821-.945 1.642-1.417 2.463-2.63.341-2.333 1.168-54.839 56.822-20.344 21.564-24.481 4.865-51.168-23.705-27.094-29.005-27.986-33.661-32.066-32.256-.084-2.413-.169-2.226.726-4.449z" fill="#41261b"/></g></svg>